{"glyphs":{"0":{"ha":1018,"x_min":56,"x_max":963,"o":"m 249 1150 q 197 1201 232 1185 q 167 1208 181 1208 q 138 1213 154 1208 l 138 1214 q 129 1215 132 1214 q 57 1310 57 1233 q 86 1380 57 1351 q 157 1408 115 1408 q 244 1354 217 1408 q 256 1308 256 1333 q 258 1289 256 1303 q 310 1215 264 1238 q 371 1201 331 1203 l 371 1201 l 372 1201 l 374 1201 l 394 1201 l 428 1201 l 435 1201 l 442 1201 l 443 1201 l 444 1201 l 471 1201 l 471 1201 l 472 1201 l 478 1201 l 479 1201 l 590 1201 l 624 1201 l 628 1201 q 701 1175 660 1197 q 758 1088 742 1153 l 758 1088 q 767 1061 760 1075 q 839 1006 789 1014 q 855 1002 847 1003 q 871 1001 863 1001 l 872 1001 l 872 1001 q 878 1001 875 1001 q 883 1000 881 1000 l 885 999 l 886 999 q 960 924 944 985 q 962 877 963 903 q 961 831 961 851 l 961 797 l 961 474 l 961 406 l 961 403 l 961 396 l 961 396 l 961 361 q 961 347 961 353 q 961 336 961 342 l 961 329 q 956 286 961 306 q 922 233 943 250 q 882 210 900 215 q 851 203 865 204 q 821 196 836 203 q 765 124 774 172 q 762 106 763 114 q 761 92 761 99 l 761 90 l 761 90 q 760 84 761 86 q 760 79 760 82 l 758 78 l 758 76 q 728 25 751 46 q 669 3 704 4 q 610 1 640 0 q 553 1 581 1 l 550 1 l 500 1 l 467 1 l 447 1 l 489 1 l 439 1 l 465 1 q 406 1 436 1 q 350 3 376 0 q 290 25 313 4 q 260 76 265 46 l 260 78 l 260 79 q 258 84 258 82 q 257 90 257 86 l 257 90 l 257 92 q 255 106 256 99 q 253 124 254 114 q 197 196 243 172 q 166 203 181 203 q 136 210 151 204 q 95 233 117 215 q 64 286 74 250 q 58 323 57 306 q 58 361 58 340 q 58 421 58 390 q 57 483 57 451 l 57 797 l 57 831 q 56 877 57 851 q 60 924 56 903 q 133 999 71 985 l 133 999 l 135 1000 q 140 1001 138 1000 q 146 1001 143 1001 l 147 1001 l 147 1001 q 163 1002 156 1001 q 179 1006 169 1003 q 251 1061 228 1014 q 249 1150 269 1101 m 479 1000 l 478 1000 l 474 1000 l 471 1000 l 469 1000 l 444 1000 l 443 1000 l 442 1000 l 436 1000 l 435 1000 l 428 1000 l 394 1000 l 374 1000 l 372 1000 l 369 1000 l 365 1000 l 364 1000 l 364 1000 q 363 1000 364 1000 q 363 1000 363 1000 l 363 1000 l 363 1000 q 360 1000 361 1000 q 357 1000 358 1000 q 281 964 310 1000 q 265 940 274 957 q 255 885 251 913 q 258 831 258 858 l 258 797 l 258 463 l 258 463 l 258 353 q 258 307 258 332 q 267 264 258 282 q 294 228 272 246 q 358 202 324 201 q 426 203 392 203 l 447 203 l 467 203 l 592 203 q 660 202 626 203 q 725 228 694 201 q 753 264 746 249 q 760 307 760 282 q 760 353 760 332 l 760 463 l 760 463 l 760 797 l 760 831 q 763 885 760 858 q 754 940 767 913 q 739 964 747 951 q 661 1000 707 1000 q 658 1000 660 1000 q 656 1000 656 1000 l 656 1000 l 656 1000 q 655 1000 656 1000 q 654 1000 654 1000 l 654 1000 l 653 1000 l 649 1000 l 647 1000 l 644 1000 l 624 1000 l 590 1000 l 479 1000 z "},"1":{"ha":1025,"x_min":56,"x_max":969,"o":"m 568 515 l 568 549 l 568 969 q 524 1018 568 1018 q 503 1013 514 1018 q 488 1001 494 1008 q 476 988 482 993 l 421 929 l 421 929 q 419 926 419 928 q 418 925 418 925 q 374 893 399 901 l 375 893 q 374 893 375 893 q 374 893 374 893 q 350 887 361 889 q 328 878 339 885 q 278 817 296 856 q 265 778 268 797 q 253 742 261 760 q 239 718 249 731 q 171 681 213 685 q 97 703 129 676 q 60 769 64 728 q 83 844 56 811 q 128 876 97 863 q 160 883 146 882 q 190 897 174 883 q 240 1003 231 926 l 240 1003 q 261 1050 244 1029 q 263 1052 261 1051 q 265 1056 264 1053 l 447 1238 q 527 1327 485 1275 q 615 1408 569 1379 l 615 1408 l 615 1408 q 669 1424 639 1424 q 737 1397 708 1424 q 769 1331 765 1369 l 769 1331 l 769 1331 l 769 1325 l 769 1324 l 769 1321 l 769 549 l 769 515 l 769 346 q 769 313 769 329 q 771 281 768 297 l 771 279 q 831 207 781 228 q 860 199 847 199 q 890 196 874 200 l 890 196 q 892 195 890 196 q 897 194 894 194 q 969 99 969 172 q 940 28 969 57 q 871 0 911 0 q 782 54 810 0 q 773 85 774 71 q 769 118 772 100 q 717 192 760 167 q 706 195 711 193 q 696 200 700 197 q 656 205 674 204 q 621 218 639 206 q 575 269 589 235 q 568 301 568 286 q 568 336 568 317 l 568 515 z "},"2":{"ha":1118,"x_min":56,"x_max":1063,"o":"m 533 1014 l 388 1014 q 354 1014 369 1014 q 324 1021 339 1014 q 271 1065 288 1036 q 258 1101 258 1083 q 253 1139 258 1118 q 246 1160 250 1149 q 174 1213 224 1203 q 142 1216 156 1215 q 111 1224 128 1217 q 57 1311 57 1251 q 85 1382 57 1351 q 156 1413 114 1413 q 249 1353 232 1413 q 249 1346 249 1350 l 249 1346 q 253 1308 253 1329 q 261 1271 253 1288 q 332 1214 281 1222 l 333 1214 q 365 1212 350 1211 q 397 1213 381 1213 l 533 1213 l 565 1213 l 743 1213 l 744 1213 l 746 1213 l 751 1213 l 753 1213 l 753 1213 q 792 1200 775 1210 q 836 1167 821 1188 q 858 1132 851 1147 q 863 1101 863 1115 q 871 1071 864 1086 q 943 1017 893 1025 q 958 1013 950 1014 q 974 1013 965 1013 l 975 1013 l 975 1013 q 980 1012 978 1013 q 986 1011 982 1011 l 988 1010 l 989 1010 q 1061 936 1047 996 q 1063 922 1061 926 l 1061 900 l 1063 890 q 1061 878 1061 886 q 989 803 1047 818 l 988 803 l 986 803 q 975 801 982 801 l 975 801 l 974 801 q 958 799 965 800 q 943 797 950 799 q 871 742 892 786 q 863 712 864 726 q 858 682 863 697 q 833 641 850 663 q 783 610 817 619 q 746 603 763 603 q 710 604 729 604 q 539 605 624 604 q 368 606 454 606 l 367 606 l 365 606 l 360 606 l 358 606 l 358 606 q 358 606 358 606 q 357 606 357 606 l 357 606 l 357 606 q 354 606 356 606 q 351 606 353 606 q 261 547 286 606 q 251 510 253 531 l 251 510 l 251 521 l 251 497 l 251 493 l 251 492 q 261 454 253 471 q 306 408 272 426 q 365 396 328 396 q 428 396 401 396 q 491 394 460 394 q 554 393 522 393 l 586 393 l 732 393 q 765 393 750 393 q 797 386 781 393 q 849 343 829 374 q 860 306 860 322 q 867 269 860 289 q 874 247 871 250 q 946 196 899 201 q 977 192 963 193 q 1010 183 992 192 q 1063 97 1063 157 q 1034 28 1063 56 q 965 0 1006 0 q 871 71 889 0 q 870 73 871 71 q 869 78 869 75 l 869 78 q 867 107 867 94 q 860 136 867 119 q 788 194 835 186 l 788 196 q 754 196 771 196 q 722 196 738 196 l 586 196 l 554 196 l 418 196 q 372 196 394 196 q 328 207 349 196 q 283 238 299 218 q 263 276 267 258 q 256 306 257 292 q 249 336 254 319 q 176 392 226 381 q 161 392 168 392 q 146 394 154 393 l 146 394 l 144 394 q 133 397 150 392 l 132 397 l 132 397 q 56 501 56 414 q 132 604 57 588 l 132 604 l 133 604 q 144 607 142 607 l 146 607 l 146 607 q 161 608 154 607 q 176 611 168 608 q 249 667 225 619 q 256 695 254 681 q 263 726 257 710 q 285 765 268 744 q 336 797 301 786 q 373 803 356 803 q 410 803 390 803 q 581 803 496 803 q 751 803 665 803 l 753 803 l 756 803 l 760 803 l 761 803 l 761 801 q 762 801 761 801 q 763 801 763 801 l 763 803 l 763 803 q 765 803 763 803 q 768 803 767 803 q 860 860 831 803 q 869 899 867 876 l 869 899 l 869 917 l 869 910 l 869 915 l 869 915 q 860 953 867 936 q 768 1011 831 1011 q 765 1011 767 1011 q 763 1011 763 1011 l 763 1011 l 763 1011 q 762 1011 763 1011 q 761 1011 761 1011 l 761 1011 l 760 1011 l 756 1011 l 753 1011 l 751 1011 q 657 1013 703 1011 q 565 1014 611 1014 l 533 1014 z "},"3":{"ha":1135,"x_min":56,"x_max":1079,"o":"m 571 1015 l 392 1015 q 357 1015 372 1015 q 325 1022 342 1015 q 274 1068 290 1036 q 261 1104 261 1088 q 256 1143 261 1121 q 247 1164 253 1156 q 174 1217 225 1207 q 141 1220 156 1219 q 110 1229 126 1221 q 56 1318 56 1257 q 84 1388 56 1358 q 154 1417 113 1417 q 250 1344 231 1417 q 251 1340 250 1342 q 251 1338 251 1338 l 251 1338 q 256 1308 256 1321 q 264 1278 256 1294 q 336 1218 283 1228 l 338 1218 q 369 1216 354 1215 q 401 1217 385 1217 l 571 1217 l 604 1217 q 697 1218 633 1217 q 794 1210 761 1219 q 846 1177 829 1199 q 871 1138 863 1156 q 876 1106 875 1121 q 885 1076 876 1092 q 929 1031 900 1044 q 958 1021 946 1021 q 990 1018 971 1021 q 1003 1014 990 1019 l 1004 1014 q 1005 1014 1004 1014 q 1007 1014 1006 1014 q 1019 1008 1015 1011 q 1078 938 1067 988 q 1078 928 1078 933 q 1079 921 1079 924 l 1078 938 l 1079 883 q 1078 876 1079 879 q 1078 869 1078 872 q 1004 793 1064 808 l 1003 793 l 1001 793 q 990 792 999 792 l 990 792 l 989 792 q 973 790 981 790 q 957 788 965 789 q 885 731 906 776 q 885 651 867 692 q 957 596 907 604 q 973 592 965 593 q 989 592 981 592 l 990 592 l 990 592 q 996 591 993 592 q 1001 590 999 590 l 1003 589 l 1004 589 q 1078 514 1064 575 q 1078 506 1078 510 q 1079 500 1079 503 l 1078 450 l 1079 492 q 1078 484 1079 488 q 1078 478 1078 481 q 1004 403 1064 415 l 1003 403 l 1001 401 q 996 401 999 401 q 990 400 993 400 l 990 400 l 989 400 q 973 398 981 399 q 957 396 965 397 q 885 340 907 386 q 876 309 876 324 q 871 279 875 294 q 846 238 863 260 q 794 206 829 217 q 697 197 761 194 q 604 200 633 200 l 571 200 l 401 200 q 369 200 385 200 q 338 199 354 200 l 336 197 q 264 139 285 188 q 256 109 256 122 q 251 79 256 96 l 251 79 q 251 75 251 76 q 250 72 250 74 q 154 0 231 0 q 84 28 113 0 q 56 99 56 57 q 110 186 56 160 q 141 195 126 194 q 174 200 156 196 q 247 253 225 208 q 256 274 253 261 q 261 311 261 294 q 274 349 261 328 q 325 393 292 381 q 357 400 342 400 q 392 400 372 400 q 558 401 475 400 q 724 401 640 401 q 781 401 751 401 q 835 418 810 401 q 872 461 858 432 q 872 531 888 496 q 779 590 844 590 q 776 590 778 590 q 774 590 774 590 l 774 590 l 774 590 q 773 590 774 590 q 772 590 772 590 l 772 590 l 772 590 l 767 590 l 765 590 l 763 590 q 708 590 735 590 q 656 590 682 590 l 656 590 q 653 590 654 590 q 650 590 651 590 q 599 604 624 590 l 599 604 q 599 604 599 604 q 599 604 599 604 q 578 619 586 611 q 557 631 569 626 q 479 632 522 642 q 441 617 458 626 q 406 604 424 608 q 378 600 393 600 q 307 629 336 600 q 278 700 278 658 q 307 771 278 742 q 378 800 336 800 q 431 785 406 800 q 456 763 447 774 q 486 749 465 753 q 600 778 536 738 l 600 778 q 650 790 622 790 q 653 790 651 790 q 656 790 654 790 l 656 790 q 709 792 685 790 q 763 793 733 793 l 765 793 l 767 793 l 772 793 l 772 793 l 772 793 q 773 793 772 793 q 774 793 774 793 l 774 793 l 774 793 q 776 793 774 793 q 779 793 778 793 q 872 853 844 793 q 882 890 879 867 l 882 890 l 882 936 l 882 939 l 882 914 l 882 914 q 872 956 878 940 q 806 1010 849 1006 q 721 1015 763 1014 q 646 1015 683 1015 q 571 1015 608 1015 z "},"4":{"ha":978,"x_min":56,"x_max":922,"o":"m 464 232 q 342 186 425 161 q 290 217 307 196 q 267 258 272 239 q 260 288 261 274 q 253 319 260 303 q 181 375 229 365 q 163 377 171 376 q 147 379 156 378 l 147 379 l 147 379 q 136 381 143 381 l 133 382 l 133 382 q 60 458 74 394 q 60 460 60 458 q 60 463 60 461 q 58 468 58 464 l 58 429 l 58 469 q 67 521 56 499 q 67 522 67 521 q 68 524 68 524 l 100 597 q 226 824 163 710 q 353 1054 289 939 q 383 1114 374 1100 q 418 1174 393 1128 q 421 1176 421 1176 q 480 1224 440 1213 q 557 1217 519 1236 q 603 1156 592 1196 q 596 1081 615 1117 q 594 1078 594 1079 q 593 1076 593 1076 l 447 814 l 301 549 q 265 456 278 507 q 310 388 253 404 q 390 376 360 371 q 444 401 419 381 q 475 440 465 419 q 482 470 482 457 q 486 500 482 483 l 486 500 q 487 503 486 501 q 488 508 488 506 q 583 581 510 581 q 653 551 624 581 q 682 481 682 522 q 628 393 682 421 q 595 383 610 385 q 564 381 581 382 q 490 328 514 371 q 482 306 485 314 q 475 267 475 285 q 464 232 475 250 m 722 97 l 722 560 l 722 576 l 722 806 l 722 1201 l 722 1203 q 722 1194 722 1203 q 722 1206 722 1185 q 722 1206 722 1206 q 722 1208 722 1207 l 722 1285 q 722 1286 722 1285 q 722 1289 722 1288 q 751 1359 722 1329 q 822 1389 781 1389 q 892 1359 863 1389 q 922 1289 922 1329 q 922 1286 922 1288 q 922 1285 922 1285 l 922 1208 q 922 1206 922 1207 q 922 1206 922 1206 q 922 1194 922 1185 q 922 1203 922 1203 l 922 1201 l 922 806 l 922 576 l 922 560 l 922 129 q 922 93 922 111 q 915 58 921 75 q 822 -7 890 -7 q 751 22 781 -7 q 722 93 722 51 q 722 94 722 93 q 722 97 722 96 m 256 428 l 256 431 l 256 428 z "},"5":{"ha":1135,"x_min":56,"x_max":1079,"o":"m 540 203 l 574 203 q 666 204 619 203 q 763 206 713 206 l 764 206 l 767 206 l 771 206 l 772 206 l 772 206 q 773 206 772 206 q 774 206 774 206 l 774 206 l 774 206 q 776 206 774 206 q 779 206 778 206 q 872 265 843 206 q 882 303 879 282 l 882 303 l 882 308 l 882 301 l 882 442 q 881 477 882 461 q 872 513 881 493 q 779 571 843 571 q 776 571 778 571 q 774 571 774 571 l 774 571 l 774 571 q 773 571 774 571 q 772 571 772 571 l 772 571 l 771 571 l 767 571 l 764 571 l 763 571 q 589 571 675 571 q 415 571 503 571 q 377 570 394 571 q 340 576 360 569 q 288 608 304 586 q 265 649 271 629 q 258 678 260 664 q 250 710 257 693 q 178 765 226 756 q 161 767 168 767 q 146 769 154 768 l 146 769 l 144 769 q 139 770 142 769 q 133 771 136 771 l 132 772 l 132 772 q 63 827 71 785 q 56 915 56 869 q 56 922 56 918 q 58 929 57 925 q 132 1004 69 990 l 132 1004 l 133 1006 q 139 1006 136 1006 q 144 1007 142 1007 l 146 1007 l 146 1007 q 161 1008 154 1007 q 178 1011 168 1008 q 250 1067 226 1019 q 258 1097 257 1082 q 265 1128 260 1111 q 285 1165 269 1144 q 332 1199 301 1186 q 378 1210 354 1210 q 428 1210 403 1210 l 561 1210 l 594 1210 l 733 1210 q 765 1208 749 1210 q 799 1211 782 1207 l 799 1211 q 872 1269 847 1218 q 879 1299 879 1286 q 883 1331 879 1313 l 883 1329 q 884 1333 883 1331 q 885 1338 885 1335 q 981 1410 903 1410 q 1050 1381 1021 1410 q 1079 1311 1079 1351 q 1025 1222 1079 1250 q 992 1213 1007 1214 q 961 1210 978 1211 q 888 1157 911 1200 q 879 1136 888 1157 q 872 1097 872 1114 q 861 1061 872 1079 q 810 1015 843 1029 q 776 1008 792 1008 q 743 1008 761 1008 l 594 1008 l 561 1008 q 469 1007 515 1008 q 372 1006 422 1006 l 371 1006 l 369 1006 l 364 1006 l 363 1006 l 363 1006 q 362 1006 363 1006 q 361 1006 361 1006 l 361 1006 l 361 1006 q 358 1006 360 1006 q 356 1006 357 1006 q 264 946 289 1006 q 264 831 236 886 q 356 771 289 771 q 358 771 357 771 q 361 771 360 771 l 361 771 l 361 771 q 362 771 361 771 q 363 771 363 771 l 363 771 l 364 771 l 369 771 l 371 771 l 372 771 q 546 772 460 771 q 719 772 632 772 q 757 772 740 772 q 794 767 774 771 q 846 734 829 756 q 871 693 863 713 q 876 662 875 676 q 885 633 876 647 q 957 576 906 586 q 973 573 965 574 q 989 572 981 572 l 990 572 l 990 572 q 1001 571 997 572 l 1003 571 l 1004 571 q 1071 515 1049 560 q 1078 475 1079 494 q 1079 436 1078 456 l 1079 296 q 1078 289 1079 292 q 1078 282 1078 286 q 1004 207 1064 219 l 1003 207 l 1001 206 q 995 205 997 206 q 990 204 993 204 l 990 204 l 989 204 q 973 202 981 203 q 957 200 965 201 q 885 144 907 190 q 876 113 876 128 q 871 83 875 99 q 849 45 864 65 q 803 14 833 25 q 753 1 779 0 q 701 1 726 1 l 574 1 l 540 1 l 310 1 l 290 1 q 267 1 278 1 q 244 1 256 1 q 161 56 188 11 q 163 150 135 100 q 215 196 178 179 q 247 202 232 201 q 281 203 263 203 l 540 203 z "},"6":{"ha":1135,"x_min":56,"x_max":1079,"o":"m 461 1206 q 572 1204 515 1206 q 683 1203 628 1203 l 683 1203 l 685 1203 l 685 1203 q 746 1218 721 1204 q 797 1290 788 1240 q 799 1310 799 1299 q 810 1356 800 1335 q 897 1410 838 1410 q 967 1381 938 1410 q 996 1313 996 1353 q 924 1218 996 1236 q 917 1215 925 1219 l 917 1215 q 887 1211 900 1211 q 857 1204 874 1211 q 806 1153 821 1188 q 794 1108 796 1131 q 783 1067 793 1086 q 703 1008 760 1022 q 653 1003 678 1003 q 606 1003 629 1003 q 517 1003 560 1003 q 429 1004 474 1004 l 396 1004 l 375 1004 l 372 1004 l 371 1004 l 365 1004 l 365 1004 l 365 1004 q 364 1006 364 1004 l 364 1004 l 364 1004 q 360 1004 363 1004 q 358 1004 358 1004 q 281 969 310 1004 q 265 946 271 957 q 256 890 253 917 q 260 836 260 864 l 260 719 l 260 463 l 260 463 l 260 353 q 259 307 260 332 q 267 264 258 282 q 294 228 274 249 q 358 202 324 201 q 428 203 392 203 l 621 203 l 654 203 l 704 203 l 704 203 l 764 203 l 765 203 l 767 203 l 772 203 l 774 203 l 774 201 q 774 201 774 201 q 774 201 774 201 l 774 203 l 774 203 q 776 203 775 203 q 779 203 778 203 q 872 261 846 203 q 882 299 879 278 l 882 300 l 882 438 l 882 463 l 882 482 l 882 482 q 872 521 879 501 q 853 549 865 535 q 797 577 824 576 q 742 578 771 578 l 674 578 l 672 578 l 671 578 l 671 578 q 610 564 633 575 q 557 489 565 539 q 556 469 556 482 q 543 422 553 440 q 454 367 515 367 q 383 396 413 367 q 354 467 354 425 q 428 564 354 542 q 430 565 428 564 q 435 565 432 565 l 435 565 q 465 569 451 569 q 496 578 478 569 q 549 631 531 593 q 558 674 557 651 q 571 718 560 697 q 654 776 593 761 q 733 783 681 783 q 765 781 754 782 q 796 775 776 779 q 847 741 829 763 q 871 701 864 719 q 876 670 875 685 q 885 642 878 656 q 958 585 906 596 q 974 581 967 582 q 990 581 982 581 l 990 581 l 990 581 q 1003 579 999 581 l 1004 579 l 1004 579 q 1078 503 1064 563 q 1079 489 1079 499 l 1079 450 l 1079 292 q 1078 279 1079 283 q 1004 203 1063 215 l 1004 203 l 1003 203 q 996 201 999 201 q 990 200 993 200 l 990 200 l 990 200 q 974 198 982 199 q 958 197 967 197 q 885 140 906 185 q 876 110 878 125 q 871 81 875 96 q 847 38 864 60 q 796 7 829 17 q 758 1 775 0 q 721 1 742 1 l 618 1 l 618 1 l 465 1 q 408 1 438 1 q 350 3 378 0 q 292 25 314 4 q 261 76 267 46 l 261 76 l 260 79 q 259 83 260 81 q 258 90 258 86 l 258 90 l 258 92 q 256 106 257 99 q 254 124 256 114 q 199 196 244 172 q 167 203 182 203 q 138 210 153 204 q 97 233 118 215 q 64 285 75 250 q 58 322 58 304 q 58 360 58 339 l 58 396 l 58 396 l 58 397 l 58 403 l 58 404 l 58 406 l 58 719 l 58 836 q 57 882 58 857 q 60 928 56 907 q 133 1004 72 988 l 135 1004 l 136 1004 q 141 1005 139 1004 q 147 1007 143 1006 l 147 1007 l 149 1007 q 163 1008 156 1007 q 181 1010 171 1008 q 253 1067 231 1019 q 261 1101 261 1083 l 261 1101 l 261 1101 q 261 1102 261 1101 q 261 1104 261 1103 q 272 1144 261 1113 q 328 1193 282 1175 q 392 1206 358 1206 q 461 1206 426 1206 z "},"7":{"ha":1146,"x_min":56,"x_max":1090,"o":"m 571 1022 l 392 1022 q 357 1022 372 1022 q 325 1029 342 1021 q 274 1075 289 1044 q 260 1110 261 1093 q 256 1149 260 1128 q 247 1171 253 1157 q 174 1224 222 1214 q 141 1226 156 1225 q 110 1236 126 1228 q 56 1325 56 1264 q 84 1394 56 1365 q 154 1424 113 1424 q 250 1351 226 1424 q 251 1347 250 1349 q 251 1343 251 1344 l 251 1343 q 255 1313 256 1326 q 263 1283 254 1300 q 335 1225 286 1233 l 336 1225 q 369 1222 353 1221 q 401 1224 385 1224 l 571 1224 l 604 1224 l 988 1224 l 990 1224 l 992 1224 l 997 1224 l 999 1224 l 999 1224 q 1063 1190 1036 1219 q 1090 1122 1090 1161 q 1071 1063 1090 1088 q 1068 1060 1068 1060 l 1068 1060 l 1068 1058 l 801 582 q 669 340 736 467 l 668 340 l 668 339 l 668 339 q 651 279 651 306 q 692 199 651 228 q 707 188 703 190 q 743 156 731 172 q 749 53 778 106 q 690 5 729 17 q 615 14 651 -7 q 567 121 549 49 q 569 128 571 129 l 568 128 q 578 156 572 144 q 586 186 585 168 q 567 257 590 224 q 533 285 551 274 q 501 317 514 297 q 489 415 472 357 q 538 525 503 468 q 601 631 574 582 l 726 853 q 753 896 738 872 q 768 942 768 919 q 743 1000 768 975 q 685 1025 718 1025 q 644 1024 664 1025 q 604 1022 625 1022 l 571 1022 z "},"8":{"ha":1022,"x_min":56,"x_max":967,"o":"m 253 1151 q 201 1203 236 1186 q 172 1210 185 1210 q 142 1214 158 1210 l 142 1215 q 133 1217 136 1215 q 61 1311 61 1235 q 90 1381 61 1353 q 161 1410 119 1410 q 249 1356 221 1410 q 260 1310 260 1335 q 263 1290 260 1304 q 314 1217 268 1239 q 375 1203 335 1204 l 375 1203 l 376 1203 l 378 1203 l 399 1203 l 432 1203 l 439 1203 l 446 1203 l 447 1203 l 449 1203 l 475 1203 l 475 1203 l 476 1203 l 482 1203 l 483 1203 l 594 1203 l 628 1203 l 632 1203 q 705 1176 664 1199 q 763 1089 746 1154 l 763 1089 q 771 1063 764 1076 q 843 1007 793 1015 q 859 1003 851 1004 q 875 1003 867 1003 l 876 1003 l 876 1003 q 882 1002 879 1003 q 888 1001 885 1001 l 889 1000 l 890 1000 q 954 951 931 989 q 966 901 967 926 q 965 850 965 875 l 965 822 l 965 833 l 965 831 l 965 824 l 965 824 l 965 789 q 965 809 965 781 q 965 833 965 838 l 965 826 q 960 782 965 801 q 926 730 947 747 q 886 707 904 713 q 855 701 869 701 q 825 693 840 700 q 769 621 778 669 q 767 597 767 601 q 769 574 767 590 q 825 501 778 524 q 855 492 840 493 q 886 486 869 490 q 935 456 913 478 q 960 406 960 431 l 960 292 q 890 203 960 217 l 889 201 l 888 201 q 882 201 885 201 q 876 200 879 200 l 876 200 l 875 200 q 859 198 867 199 q 843 196 851 197 q 771 140 793 186 q 765 125 769 138 l 765 125 l 765 124 q 763 119 764 121 q 763 115 763 117 q 729 49 757 94 q 628 0 701 4 q 529 0 578 0 q 432 0 481 0 l 399 0 l 394 0 q 320 24 361 3 q 264 113 279 46 l 264 113 q 256 140 261 125 q 183 196 232 186 q 167 198 174 197 q 151 200 160 199 l 151 200 l 150 200 q 144 201 147 200 q 139 201 142 201 l 138 201 l 138 203 q 64 278 75 215 l 67 376 q 140 486 68 461 q 170 492 156 490 q 201 501 185 493 q 257 574 247 524 q 261 597 257 575 q 259 607 260 601 q 257 621 258 613 q 201 693 247 669 q 170 701 185 700 q 140 707 156 701 q 86 746 104 718 q 58 831 60 779 q 64 925 56 883 q 138 1000 75 986 l 138 1000 l 139 1001 q 144 1002 142 1001 q 150 1003 147 1003 l 151 1003 l 151 1003 q 167 1003 160 1003 q 183 1007 174 1004 q 256 1063 232 1015 q 253 1151 274 1103 m 628 201 l 649 201 l 651 201 l 653 201 l 657 201 l 658 201 l 658 201 q 659 201 658 201 q 660 201 660 201 l 660 201 l 660 201 q 662 201 660 201 q 665 201 664 201 q 743 236 710 201 q 757 268 757 253 q 757 304 757 283 l 757 385 q 755 431 757 415 q 729 468 753 447 q 665 493 699 493 q 596 493 631 493 l 575 493 l 556 493 l 431 493 q 362 493 396 493 q 299 468 328 493 q 269 406 271 444 l 269 293 q 270 263 269 274 q 285 236 271 251 q 361 201 314 201 q 364 201 363 201 q 367 201 365 201 l 367 201 l 367 201 q 367 201 367 201 q 368 201 368 201 l 368 201 l 369 201 l 374 201 l 376 201 l 378 201 q 503 201 440 201 q 628 201 565 201 m 483 1001 l 482 1001 l 478 1001 l 475 1001 l 474 1001 l 449 1001 l 447 1001 l 446 1001 l 440 1001 l 439 1001 l 432 1001 l 399 1001 l 378 1001 l 376 1001 l 374 1001 l 369 1001 l 368 1001 l 368 1001 q 367 1001 368 1001 q 367 1001 367 1001 l 367 1001 l 367 1001 q 364 1001 365 1001 q 361 1001 363 1001 q 285 965 314 1001 q 269 942 278 958 q 256 823 243 886 q 271 760 269 760 q 299 725 275 744 q 440 697 333 694 q 596 700 547 700 q 665 699 631 700 q 729 725 699 699 q 757 760 750 746 q 764 804 764 779 q 764 850 764 829 l 764 810 l 764 850 q 766 897 764 874 q 758 942 768 919 q 743 965 751 953 q 665 1001 711 1001 q 662 1001 664 1001 q 660 1001 660 1001 l 660 1001 l 660 1001 q 659 1001 660 1001 q 658 1001 658 1001 l 658 1001 l 657 1001 l 653 1001 l 651 1001 l 649 1001 l 628 1001 l 594 1001 l 483 1001 z "},"9":{"ha":1068,"x_min":56,"x_max":1013,"o":"m 819 1158 q 817 1069 797 1110 q 889 1014 839 1022 q 905 1010 897 1011 q 921 1010 913 1010 l 922 1010 l 922 1010 q 928 1009 925 1010 q 933 1008 931 1008 l 935 1007 l 936 1007 q 1003 956 994 993 q 1013 875 1013 919 l 1013 292 l 1013 290 l 1013 290 q 1010 279 1007 274 q 936 203 997 215 l 936 203 l 935 203 q 928 201 931 201 q 924 200 926 200 l 924 200 l 922 200 q 906 198 914 199 q 890 197 899 197 q 818 140 839 186 q 809 110 810 125 q 803 81 808 96 q 779 38 796 60 q 728 7 763 17 q 697 1 717 3 l 697 1 l 697 1 l 693 1 q 677 1 685 0 q 663 1 669 1 l 432 1 l 399 1 l 449 1 q 399 1 424 1 q 350 7 374 0 q 269 65 293 18 q 257 107 258 85 q 247 151 256 129 q 194 203 229 186 q 165 210 178 210 q 135 215 151 211 l 135 215 q 128 217 129 215 q 56 311 56 235 q 84 382 56 353 q 154 411 113 411 q 242 356 214 411 q 253 310 253 335 q 256 290 253 304 q 307 217 261 242 q 368 203 326 204 l 368 203 l 369 203 l 371 203 l 399 203 l 432 203 l 551 203 l 551 203 l 696 203 l 697 203 l 700 203 l 704 203 l 706 203 l 706 203 q 706 201 706 201 q 707 201 707 201 l 707 203 l 707 203 q 709 203 707 203 q 713 203 711 203 q 806 261 776 203 q 814 297 811 279 l 814 657 q 812 642 813 649 q 811 628 811 635 l 811 628 l 811 628 q 810 621 811 624 q 810 617 810 618 l 808 614 l 808 614 q 778 563 801 583 q 719 539 753 540 q 660 538 690 538 q 603 539 631 539 l 629 539 l 579 539 l 621 539 l 601 539 l 568 539 l 518 539 l 515 539 q 456 538 486 539 q 400 539 426 538 q 340 563 364 540 q 310 614 315 583 l 310 614 l 310 617 q 307 628 313 611 l 307 628 l 307 628 q 305 644 306 636 q 303 661 304 651 q 247 732 293 711 q 216 741 231 740 q 186 747 201 742 q 136 781 157 757 q 105 849 108 810 q 110 932 101 888 q 183 1007 121 993 l 183 1007 l 185 1008 q 190 1009 188 1008 q 196 1010 193 1010 l 197 1010 l 197 1010 q 213 1010 206 1010 q 229 1014 219 1011 q 301 1069 278 1022 q 310 1096 307 1083 l 310 1096 q 366 1183 325 1161 q 440 1210 407 1206 l 444 1210 l 478 1210 l 589 1210 l 590 1210 l 596 1210 l 597 1210 l 599 1210 l 625 1210 l 625 1210 l 626 1210 l 633 1210 l 640 1210 l 674 1210 l 696 1210 l 697 1210 l 697 1210 l 697 1210 q 758 1224 739 1211 q 811 1297 801 1244 q 813 1317 813 1304 q 824 1363 814 1342 q 913 1417 850 1417 q 982 1388 953 1417 q 1011 1318 1011 1360 q 939 1224 1011 1242 q 932 1222 936 1222 l 932 1221 q 902 1217 915 1217 q 872 1210 889 1217 q 819 1158 835 1194 m 589 1008 l 478 1008 l 444 1008 l 424 1008 l 422 1008 l 419 1008 l 415 1008 l 414 1008 l 414 1008 q 413 1008 414 1008 q 413 1008 413 1008 l 413 1008 l 413 1008 q 410 1008 411 1008 q 407 1008 408 1008 q 331 972 360 1008 q 315 949 324 965 q 299 853 294 907 q 344 765 303 800 q 408 740 374 739 q 476 740 442 740 l 601 740 l 621 740 l 642 740 q 692 739 667 740 q 742 746 717 738 q 803 838 803 767 l 803 911 q 711 1008 804 1008 q 708 1008 710 1008 q 706 1008 706 1008 l 706 1008 l 706 1008 q 705 1008 706 1008 q 704 1008 704 1008 l 704 1008 l 703 1008 l 699 1008 l 697 1008 l 694 1008 l 674 1008 l 640 1008 l 633 1008 l 632 1008 l 628 1008 l 625 1008 l 624 1008 l 599 1008 l 597 1008 l 596 1008 l 590 1008 l 589 1008 z "}," ":{"ha":535,"x_min":0,"x_max":0,"o":""},"´":{"ha":464,"x_min":56,"x_max":408,"o":"m 215 803 q 199 792 204 799 q 192 767 190 779 q 169 697 207 722 q 89 713 122 664 q 104 794 56 763 q 104 794 104 794 q 104 794 104 794 q 113 799 110 799 q 124 803 117 800 q 144 831 140 813 q 143 856 147 849 q 150 883 139 863 q 157 896 153 889 q 164 908 161 903 l 242 1078 q 269 1110 253 1106 q 347 1090 296 1118 q 406 1028 397 1061 q 401 1001 408 1010 q 383 981 394 993 l 267 849 q 259 840 264 847 q 250 828 254 833 q 215 803 231 806 z "},"¿":{"ha":1147,"x_min":56,"x_max":1092,"o":"m 589 1206 q 515 1238 546 1207 q 485 1313 485 1269 q 517 1388 485 1357 q 592 1417 549 1418 q 666 1385 636 1417 q 696 1310 696 1354 q 665 1236 696 1267 q 589 1206 633 1206 m 1089 322 q 1088 283 1089 301 q 1078 243 1088 264 q 1036 198 1061 203 q 978 189 1011 193 l 978 189 l 978 189 q 949 181 968 189 q 890 110 903 161 q 890 94 890 101 q 888 78 889 86 l 888 78 l 888 78 q 887 72 888 75 q 885 65 886 69 l 885 64 l 885 64 q 807 -8 871 3 q 746 -11 785 -12 q 581 -7 664 -7 q 414 -6 497 -7 q 376 -6 393 -6 q 339 0 360 -6 q 288 33 304 11 q 265 75 272 56 q 260 106 261 92 q 250 135 258 119 q 179 192 231 182 q 163 195 171 194 q 147 196 156 196 l 147 196 l 146 196 q 135 199 151 193 l 133 199 l 133 199 q 82 229 103 208 q 64 258 69 243 q 57 299 56 286 q 58 342 58 313 l 60 401 l 60 435 q 61 477 60 458 q 69 517 63 496 q 102 569 81 553 q 143 592 124 586 q 174 598 160 597 q 203 606 188 599 q 261 678 250 628 q 263 694 263 688 q 264 710 264 701 l 264 710 l 264 711 q 267 722 261 706 l 267 724 l 267 724 q 344 796 285 786 q 357 797 349 797 l 397 797 q 435 806 418 800 q 496 899 494 833 q 496 901 496 900 q 496 904 496 903 l 496 904 l 496 903 q 496 904 496 904 q 496 904 496 904 l 496 904 l 496 906 l 496 911 l 496 913 l 496 914 l 496 926 q 496 927 496 926 q 496 928 496 928 l 496 928 l 496 929 l 496 990 q 497 1049 497 1025 q 518 1099 497 1072 q 599 1136 553 1136 q 681 1092 653 1136 q 698 1051 697 1068 q 699 1007 699 1035 l 697 939 q 690 879 697 900 q 658 829 679 846 q 617 806 636 813 q 587 800 601 801 q 556 790 572 799 q 499 719 510 771 q 497 703 497 711 q 494 688 496 696 l 494 688 l 494 688 q 494 682 494 685 q 493 676 493 679 l 492 674 l 492 674 q 415 601 478 614 q 409 601 413 601 q 401 600 406 600 l 361 600 q 324 590 340 599 q 274 543 293 579 q 260 368 247 489 q 285 232 272 247 q 319 203 301 210 q 363 195 339 194 q 408 196 388 196 l 518 194 l 518 193 q 638 192 578 192 q 756 189 697 193 q 828 196 799 183 q 851 211 844 204 q 889 288 888 242 q 888 292 889 290 q 888 293 888 293 l 888 294 l 889 293 q 889 294 889 294 q 889 294 889 294 l 888 294 l 888 296 l 888 301 l 888 303 l 888 304 l 888 325 l 888 358 q 890 426 889 389 q 876 490 892 463 q 804 542 854 533 q 786 544 797 543 q 739 556 758 547 q 686 643 685 585 q 715 713 686 685 q 785 742 744 742 q 879 668 861 740 q 880 666 879 668 q 881 661 881 664 l 881 661 q 885 631 885 644 q 892 601 885 618 q 943 549 908 565 q 986 539 964 540 q 1029 526 1008 538 q 1084 452 1076 500 q 1090 356 1092 404 q 1090 339 1090 347 q 1089 322 1089 331 z "},"¡":{"ha":450,"x_min":56,"x_max":394,"o":"m 243 1136 q 169 1168 200 1136 q 138 1243 138 1200 q 170 1317 139 1288 q 244 1347 201 1347 q 319 1316 289 1347 q 349 1240 350 1285 q 318 1167 349 1197 q 243 1136 288 1136 m 199 790 q 217 831 215 807 q 196 899 224 868 l 196 899 l 194 900 l 194 900 l 193 900 l 193 901 q 172 931 179 917 q 186 1026 147 983 q 247 1053 211 1051 q 307 1031 282 1056 q 328 936 351 990 q 315 915 322 922 q 300 896 308 908 q 290 818 276 860 q 322 767 306 776 q 342 704 338 758 q 344 669 343 688 q 346 639 346 651 l 388 207 q 393 156 392 178 q 372 111 394 135 q 235 60 328 64 q 85 115 143 57 q 61 171 56 146 q 74 233 67 196 l 150 635 q 160 700 153 650 q 172 752 165 733 q 199 790 178 771 z "},"«":{"ha":715,"x_min":56,"x_max":660,"o":"m 283 140 l 282 142 l 279 143 l 278 144 l 276 146 l 274 149 l 271 150 l 268 151 l 267 154 l 264 156 l 260 158 l 257 161 l 254 163 l 253 165 l 250 168 l 246 169 l 232 182 l 229 185 l 226 186 l 224 189 l 221 192 l 218 194 l 215 196 l 214 197 l 211 199 l 208 201 l 207 203 l 204 204 l 203 206 l 200 208 l 197 211 l 194 213 l 192 215 l 189 218 l 188 219 l 186 222 l 183 225 l 182 228 l 181 229 l 179 232 l 178 235 l 178 236 l 178 239 l 176 242 l 176 243 l 176 246 l 175 247 l 175 249 l 175 251 l 174 253 l 174 256 l 174 257 l 174 258 l 172 260 l 171 263 l 171 264 l 169 265 l 169 268 l 167 269 l 165 272 l 164 274 l 161 275 l 161 276 l 161 276 l 160 276 l 160 278 l 160 278 l 158 279 l 157 279 l 157 279 l 157 281 l 156 282 l 154 282 l 154 282 l 154 282 l 153 283 l 153 283 l 151 285 l 150 285 l 150 285 l 150 285 l 149 285 l 147 286 l 147 286 l 146 286 l 144 286 l 144 286 l 143 288 l 143 288 l 142 288 l 140 289 l 140 289 l 140 289 l 139 289 l 138 289 l 136 289 l 136 289 l 135 289 l 133 289 l 133 290 l 131 290 l 131 290 l 129 290 l 128 290 l 128 290 l 126 290 l 126 290 l 125 290 l 124 290 l 124 290 l 122 289 l 121 289 l 119 289 l 119 289 l 118 289 l 117 289 l 115 289 l 114 289 l 114 289 l 111 289 l 111 289 l 110 289 l 108 289 l 107 289 l 106 289 l 104 290 l 103 290 l 100 292 l 97 292 l 94 292 l 92 293 l 89 294 l 88 296 l 85 296 l 83 299 l 81 299 l 78 301 l 76 303 l 74 304 l 72 306 l 71 308 l 68 310 l 67 311 l 67 313 l 64 315 l 63 318 l 61 319 l 61 322 l 60 325 l 60 326 l 58 329 l 57 332 l 57 335 l 56 336 l 56 339 l 56 342 l 56 344 l 56 347 l 56 350 l 56 353 l 56 356 l 57 358 l 57 360 l 57 363 l 58 365 l 60 368 l 60 369 l 61 372 l 61 375 l 64 376 l 64 379 l 67 381 l 68 383 l 68 385 l 71 386 l 72 389 l 74 390 l 76 392 l 78 393 l 81 394 l 83 396 l 85 397 l 88 399 l 90 400 l 92 401 l 94 401 l 97 403 l 100 403 l 103 403 l 104 404 l 106 404 l 107 404 l 108 404 l 110 404 l 111 404 l 113 404 l 114 404 l 115 404 l 117 404 l 117 404 l 118 404 l 119 404 l 121 404 l 122 404 l 124 404 l 124 404 l 125 404 l 126 404 l 126 404 l 128 404 l 129 404 l 131 404 l 131 404 l 132 404 l 133 404 l 133 404 l 135 404 l 136 404 l 138 406 l 138 406 l 139 406 l 140 406 l 140 406 l 142 406 l 143 406 l 143 407 l 144 407 l 144 407 l 146 408 l 147 408 l 147 408 l 147 408 l 149 408 l 150 410 l 150 410 l 150 410 l 151 410 l 153 411 l 153 411 l 154 413 l 154 413 l 154 413 l 156 413 l 157 414 l 157 414 l 157 415 l 158 415 l 160 415 l 160 417 l 160 417 l 161 418 l 161 418 l 161 418 l 164 419 l 165 422 l 167 424 l 168 425 l 169 426 l 169 429 l 171 431 l 171 432 l 171 435 l 172 436 l 172 438 l 174 440 l 174 442 l 174 443 l 174 446 l 175 449 l 175 450 l 176 453 l 176 454 l 176 456 l 176 458 l 178 460 l 178 463 l 179 465 l 181 468 l 181 469 l 182 472 l 183 475 l 186 476 l 188 478 l 189 481 l 193 485 q 210 499 200 492 q 231 513 221 506 l 236 517 l 246 525 l 276 549 l 293 563 l 296 564 l 297 565 l 297 565 l 299 565 l 299 567 l 300 567 l 300 567 l 301 568 l 303 568 l 303 569 l 304 569 l 306 569 l 306 571 l 307 571 l 307 572 l 308 572 l 310 572 l 310 572 l 311 574 l 313 575 l 313 575 l 314 575 l 315 575 l 317 575 l 317 576 l 319 576 l 319 576 l 321 576 l 322 576 l 324 578 l 326 578 l 329 579 l 331 579 l 332 579 l 335 579 l 336 579 l 339 579 l 340 579 l 343 579 l 344 578 l 347 578 l 349 576 l 350 576 l 353 576 l 356 576 l 357 575 l 358 575 l 360 574 l 363 572 l 365 572 l 367 571 l 368 569 l 369 568 l 372 567 l 374 565 l 374 565 l 376 563 l 378 561 l 379 560 l 381 558 l 382 556 l 383 556 l 385 553 l 386 551 l 386 549 l 388 547 l 389 546 l 389 543 l 390 542 l 390 540 l 392 538 l 393 536 l 393 533 l 393 532 l 393 529 l 393 528 l 394 526 l 394 524 l 394 522 l 394 519 l 394 517 l 394 515 l 393 514 l 393 513 l 393 510 l 393 508 l 393 506 l 392 504 l 390 501 l 390 500 l 390 499 l 389 496 l 389 494 l 388 493 l 386 492 l 386 490 l 385 489 l 383 488 l 383 486 l 382 486 l 382 485 l 381 483 l 379 482 l 379 482 l 378 481 l 376 479 l 376 479 l 375 478 l 374 476 l 374 475 l 372 475 l 371 475 l 369 474 l 369 472 l 368 472 l 367 471 l 367 469 l 365 469 l 364 468 l 363 467 l 361 465 l 360 465 l 358 464 l 357 464 l 353 460 l 351 458 l 349 457 l 347 456 l 344 453 l 342 451 l 339 449 l 336 447 l 333 446 l 332 443 l 329 442 l 326 439 l 324 436 l 321 435 l 318 432 l 315 431 l 313 428 l 310 426 l 307 425 l 303 422 l 300 419 l 297 418 l 294 415 l 292 414 l 289 411 l 286 410 l 283 408 l 281 406 l 278 404 l 275 401 l 272 401 l 269 399 l 265 396 l 263 394 l 260 393 l 257 392 l 254 390 l 253 389 l 250 389 l 247 388 l 246 388 l 243 386 l 242 386 l 239 386 l 238 386 l 236 386 l 233 386 l 232 386 l 231 386 l 229 386 l 228 386 l 226 386 l 224 386 l 222 386 l 221 385 l 219 385 l 217 385 l 214 385 l 213 385 l 210 383 l 207 382 l 204 382 l 203 381 l 199 379 l 196 376 l 192 376 l 189 374 l 186 372 l 185 369 l 182 368 l 181 365 l 178 364 l 178 361 l 176 358 l 175 357 l 175 354 l 174 351 l 174 349 l 174 347 l 174 344 l 174 342 l 175 339 l 176 338 l 176 335 l 178 332 l 179 331 l 181 328 l 183 326 l 185 324 l 186 322 l 189 319 l 193 318 l 196 317 l 199 315 l 203 313 l 204 313 l 206 313 l 207 311 l 210 311 l 211 310 l 213 310 l 214 310 l 217 310 l 218 310 l 219 310 l 221 310 l 222 310 l 224 310 l 226 310 l 228 310 l 229 310 l 231 310 l 232 310 l 233 310 l 236 310 l 238 308 l 239 308 l 240 308 l 243 308 l 246 308 l 247 307 l 249 306 l 251 306 l 253 304 l 254 303 l 257 303 l 260 301 l 263 299 l 267 297 l 269 296 l 272 293 l 276 292 l 279 289 l 282 286 l 286 285 l 289 282 l 293 279 l 296 276 l 300 275 l 303 272 l 307 269 l 310 267 l 314 264 l 317 261 l 321 258 l 324 257 l 328 253 l 331 251 l 333 249 l 338 246 l 340 243 l 343 242 l 346 239 l 350 236 l 353 235 l 356 233 l 361 228 l 363 226 l 364 225 l 367 222 l 368 222 l 369 222 l 369 221 l 371 219 l 372 219 l 374 218 l 374 218 l 375 217 l 376 215 l 376 215 l 378 214 l 379 213 l 379 213 l 381 211 l 382 210 l 382 208 l 383 208 l 383 206 l 385 206 l 386 204 l 386 203 l 388 201 l 388 200 l 389 199 l 389 197 l 390 196 l 390 194 l 390 192 l 392 190 l 392 189 l 393 186 l 393 185 l 393 183 l 393 182 l 393 179 l 394 178 l 394 176 l 394 175 l 394 172 l 394 171 l 394 169 l 393 167 l 393 165 l 393 163 l 393 161 l 393 160 l 393 158 l 392 156 l 390 154 l 390 153 l 390 151 l 389 149 l 389 147 l 388 146 l 386 144 l 386 142 l 385 142 l 383 139 l 382 138 l 382 136 l 379 135 l 379 133 l 378 132 l 376 131 l 375 129 l 374 129 l 372 128 l 371 126 l 369 125 l 368 125 l 367 124 l 365 122 l 364 122 l 363 121 l 361 119 l 360 119 l 357 119 l 356 118 l 354 118 l 353 118 l 351 117 l 350 117 l 347 117 l 346 115 l 344 115 l 343 115 l 342 115 l 340 115 l 339 115 l 336 115 l 335 115 l 333 115 l 331 115 l 329 115 l 326 115 l 324 115 l 322 117 l 321 117 l 319 118 l 317 118 l 314 119 l 313 119 l 313 119 l 310 121 l 308 122 l 307 122 l 306 124 l 303 125 l 303 125 l 300 128 l 299 128 l 297 129 l 296 129 l 294 131 l 293 132 l 292 133 l 290 135 l 289 136 l 288 136 l 286 138 l 285 139 l 283 140 m 549 138 l 547 139 l 544 140 l 543 143 l 542 144 l 539 146 l 536 147 l 533 150 l 532 153 l 529 154 l 526 157 l 524 158 l 521 161 l 518 164 l 515 165 l 511 168 l 497 181 l 494 182 l 492 185 l 489 188 l 486 189 l 483 192 l 481 193 l 479 196 l 476 197 l 474 199 l 472 201 l 469 203 l 468 204 l 467 206 l 463 208 l 460 211 l 457 213 l 454 215 l 453 218 l 451 221 l 450 224 l 447 226 l 447 228 l 444 231 l 444 232 l 443 235 l 443 238 l 442 239 l 442 240 l 442 243 l 440 246 l 440 247 l 440 249 l 440 251 l 440 253 l 439 254 l 439 257 l 438 258 l 438 260 l 436 263 l 435 264 l 435 265 l 433 267 l 431 269 l 431 271 l 428 274 l 426 274 l 426 275 l 425 275 l 425 276 l 425 276 l 424 276 l 424 278 l 424 278 l 422 279 l 421 279 l 421 279 l 419 279 l 419 281 l 418 281 l 418 281 l 417 282 l 417 282 l 415 282 l 415 283 l 414 283 l 414 283 l 413 283 l 411 283 l 411 285 l 410 285 l 408 286 l 408 286 l 407 286 l 407 286 l 407 286 l 406 286 l 404 286 l 403 288 l 401 288 l 401 288 l 400 288 l 400 288 l 399 288 l 397 288 l 396 288 l 394 288 l 394 288 l 393 288 l 392 288 l 392 288 l 390 288 l 390 288 l 389 288 l 388 288 l 386 288 l 385 288 l 385 288 l 383 288 l 383 288 l 381 288 l 381 288 l 379 288 l 378 288 l 376 288 l 375 288 l 374 288 l 374 288 l 371 288 l 371 288 l 368 288 l 365 289 l 363 290 l 360 290 l 357 290 l 354 293 l 353 293 l 350 294 l 349 296 l 346 297 l 344 299 l 342 300 l 340 303 l 338 304 l 336 306 l 335 307 l 332 310 l 332 311 l 331 314 l 328 315 l 328 318 l 326 321 l 325 322 l 325 325 l 324 328 l 324 329 l 322 332 l 321 335 l 321 338 l 321 340 l 321 343 l 321 346 l 321 347 l 321 350 l 321 353 l 322 356 l 322 358 l 324 360 l 324 363 l 325 365 l 325 368 l 326 369 l 328 372 l 329 374 l 331 376 l 332 378 l 333 381 l 335 383 l 336 385 l 338 386 l 340 388 l 342 390 l 344 392 l 346 393 l 349 394 l 350 394 l 353 397 l 356 397 l 357 399 l 360 400 l 363 400 l 365 401 l 368 401 l 371 403 l 371 403 l 374 403 l 374 403 l 375 403 l 376 403 l 378 403 l 379 403 l 381 403 l 382 403 l 383 403 l 383 403 l 385 403 l 386 403 l 388 403 l 389 403 l 390 403 l 390 403 l 392 403 l 392 403 l 393 403 l 394 403 l 396 403 l 397 403 l 397 403 l 399 403 l 400 403 l 400 403 l 401 403 l 403 403 l 404 403 l 404 403 l 406 404 l 407 404 l 407 404 l 408 404 l 408 404 l 410 404 l 411 404 l 411 406 l 413 406 l 413 406 l 414 407 l 414 407 l 415 407 l 417 407 l 417 408 l 417 408 l 418 410 l 418 410 l 419 410 l 419 410 l 421 411 l 421 411 l 422 411 l 424 411 l 424 413 l 424 413 l 425 414 l 425 414 l 425 414 l 426 415 l 426 417 l 428 417 l 429 418 l 431 419 l 432 421 l 433 424 l 435 425 l 435 426 l 436 428 l 438 431 l 438 432 l 438 433 l 438 436 l 439 438 l 439 440 l 440 442 l 440 443 l 440 446 l 440 447 l 442 450 l 442 453 l 442 454 l 442 457 l 443 458 l 444 461 l 444 463 l 446 465 l 447 468 l 447 469 l 450 472 l 451 474 l 453 476 l 454 478 l 460 483 q 477 497 467 489 q 497 511 488 504 l 501 514 l 511 522 l 542 546 l 560 560 l 561 561 l 563 563 l 564 563 l 564 564 l 564 564 l 565 564 l 567 565 l 567 567 l 568 567 l 569 567 l 569 567 l 571 568 l 571 569 l 572 569 l 574 569 l 574 571 l 575 571 l 576 571 l 576 571 l 578 572 l 578 572 l 581 572 l 581 574 l 582 574 l 583 574 l 585 574 l 586 574 l 586 575 l 588 575 l 590 576 l 592 576 l 594 576 l 596 576 l 597 576 l 600 576 l 603 576 l 604 576 l 607 576 l 608 576 l 610 576 l 613 576 l 614 575 l 617 575 l 619 574 l 621 574 l 622 574 l 624 572 l 626 571 l 628 571 l 631 569 l 632 569 l 633 567 l 636 567 l 638 565 l 639 564 l 640 563 l 642 561 l 643 560 l 646 557 l 646 557 l 647 554 l 649 553 l 650 550 l 651 550 l 653 547 l 653 544 l 654 543 l 654 542 l 656 540 l 657 538 l 657 536 l 658 533 l 658 532 l 660 531 l 660 528 l 660 526 l 660 524 l 660 521 l 660 519 l 660 518 l 660 515 l 660 514 l 660 511 l 660 510 l 660 507 l 658 506 l 658 504 l 657 503 l 657 500 l 656 497 l 656 496 l 654 494 l 654 493 l 653 490 l 653 490 l 651 488 l 650 488 l 650 486 l 649 485 l 647 483 l 647 483 l 646 481 l 646 481 l 644 479 l 643 478 l 643 478 l 642 476 l 640 476 l 640 475 l 639 474 l 638 472 l 636 472 l 636 471 l 635 471 l 633 469 l 633 469 l 632 468 l 631 467 l 629 467 l 628 464 l 626 464 l 625 463 l 624 461 l 624 461 l 619 458 l 617 457 l 614 454 l 613 453 l 610 451 l 607 449 l 604 447 l 603 444 l 600 443 l 597 440 l 594 439 l 592 438 l 589 435 l 586 433 l 583 431 l 581 428 l 578 426 l 575 424 l 572 422 l 569 419 l 567 418 l 564 415 l 560 414 l 557 411 l 554 410 l 553 407 l 549 406 l 546 404 l 543 403 l 540 400 l 538 399 l 535 396 l 531 394 l 528 393 l 525 390 l 522 390 l 519 388 l 518 388 l 515 386 l 514 386 l 511 386 l 510 385 l 507 385 l 504 383 l 503 383 l 501 383 l 500 383 l 497 383 l 497 383 l 494 383 l 493 383 l 492 383 l 490 383 l 488 383 l 486 383 l 485 383 l 483 383 l 481 382 l 478 382 l 476 381 l 474 381 l 471 379 l 468 378 l 464 376 l 461 375 l 457 374 l 454 371 l 451 369 l 450 368 l 447 367 l 446 364 l 444 361 l 443 360 l 442 357 l 440 354 l 440 353 l 440 350 l 440 347 l 440 346 l 440 343 l 440 340 l 440 338 l 442 336 l 442 333 l 443 331 l 444 329 l 447 326 l 449 324 l 450 321 l 451 319 l 454 318 l 458 317 l 461 314 l 464 313 l 468 311 l 469 311 l 471 310 l 474 310 l 475 310 l 476 308 l 478 308 l 481 308 l 482 308 l 483 307 l 485 307 l 488 307 l 488 307 l 490 307 l 492 307 l 493 307 l 494 307 l 496 307 l 497 307 l 500 307 l 501 307 l 503 307 l 504 307 l 507 307 l 508 306 l 511 306 l 513 304 l 514 304 l 517 303 l 518 303 l 521 301 l 524 300 l 526 300 l 528 297 l 532 296 l 535 293 l 538 292 l 542 289 l 544 288 l 547 285 l 551 283 l 554 281 l 558 278 l 561 275 l 565 272 l 569 269 l 572 267 l 576 264 l 579 263 l 583 260 l 586 257 l 590 254 l 593 251 l 597 250 l 600 247 l 603 244 l 607 242 l 610 239 l 611 238 l 615 235 l 618 233 l 621 231 l 626 225 l 629 224 l 629 224 l 633 221 l 633 219 l 635 219 l 636 219 l 636 218 l 638 217 l 639 217 l 640 215 l 640 214 l 642 214 l 643 213 l 643 213 l 644 211 l 646 210 l 646 208 l 647 207 l 647 207 l 649 206 l 650 204 l 650 203 l 651 203 l 653 200 l 653 200 l 653 197 l 654 197 l 654 196 l 656 193 l 656 192 l 657 190 l 657 188 l 657 186 l 658 185 l 658 183 l 660 181 l 660 179 l 660 178 l 660 176 l 660 174 l 660 172 l 660 171 l 660 169 l 660 167 l 660 164 l 660 163 l 660 161 l 658 160 l 658 157 l 658 156 l 657 154 l 657 153 l 656 150 l 656 149 l 654 147 l 654 146 l 653 143 l 653 142 l 651 140 l 650 139 l 649 138 l 647 136 l 647 133 l 646 133 l 644 131 l 643 131 l 642 129 l 640 128 l 639 126 l 638 126 l 636 124 l 636 124 l 633 122 l 632 121 l 631 121 l 629 119 l 628 119 l 626 118 l 625 118 l 624 117 l 621 117 l 619 117 l 619 115 l 617 114 l 615 114 l 614 114 l 611 114 l 610 114 l 610 114 l 607 113 l 606 113 l 604 113 l 603 113 l 600 113 l 599 113 l 596 113 l 594 114 l 592 114 l 590 114 l 588 114 l 586 114 l 585 115 l 582 117 l 581 117 l 578 117 l 578 118 l 576 119 l 574 119 l 572 121 l 571 121 l 569 122 l 568 124 l 567 125 l 564 126 l 564 126 l 561 128 l 560 129 l 560 131 l 557 131 l 557 132 l 554 133 l 553 135 l 553 136 l 550 136 l 549 138 z "},"»":{"ha":718,"x_min":56,"x_max":663,"o":"m 433 553 l 433 551 l 436 550 l 438 547 l 440 546 l 443 544 l 446 543 l 449 540 l 450 539 l 453 536 l 456 533 l 458 532 l 461 529 l 464 528 l 467 525 l 469 522 l 485 511 l 488 508 l 490 507 l 493 504 l 496 503 l 499 500 l 501 497 l 503 496 l 506 494 l 508 493 l 510 490 l 513 489 l 514 488 l 517 486 l 519 483 l 522 481 l 525 479 l 528 476 l 529 474 l 532 471 l 533 468 l 535 465 l 536 464 l 538 461 l 539 460 l 539 457 l 539 454 l 540 453 l 542 451 l 542 449 l 542 447 l 542 444 l 542 443 l 543 440 l 543 439 l 544 438 l 544 435 l 544 433 l 546 432 l 547 431 l 547 428 l 549 426 l 550 425 l 553 422 l 553 421 l 556 418 l 557 418 l 557 417 l 557 417 l 558 417 l 558 417 l 560 415 l 560 414 l 560 414 l 561 414 l 563 413 l 563 413 l 564 413 l 564 411 l 565 411 l 565 411 l 567 410 l 567 410 l 568 410 l 568 410 l 569 410 l 569 408 l 571 408 l 572 408 l 572 407 l 574 407 l 575 407 l 575 407 l 576 407 l 576 406 l 576 406 l 578 406 l 579 406 l 581 406 l 582 406 l 582 406 l 583 406 l 583 406 l 585 404 l 586 404 l 588 404 l 589 404 l 589 404 l 590 404 l 592 404 l 592 404 l 593 404 l 593 404 l 594 404 l 596 406 l 597 406 l 599 406 l 599 406 l 600 406 l 600 406 l 603 406 l 603 406 l 604 406 l 606 406 l 607 406 l 608 406 l 610 406 l 610 406 l 613 406 l 613 404 l 615 404 l 618 404 l 621 403 l 624 403 l 626 401 l 629 400 l 631 400 l 633 399 l 635 397 l 638 396 l 639 394 l 642 393 l 644 390 l 646 389 l 647 388 l 649 386 l 651 383 l 651 382 l 654 379 l 656 378 l 657 375 l 657 372 l 660 371 l 660 368 l 660 365 l 661 364 l 663 361 l 663 358 l 663 356 l 663 353 l 663 351 l 663 349 l 663 346 l 663 343 l 663 340 l 663 338 l 663 335 l 661 333 l 661 331 l 660 328 l 658 325 l 658 324 l 657 321 l 656 319 l 654 317 l 653 315 l 651 313 l 650 310 l 649 308 l 647 307 l 644 306 l 642 303 l 640 301 l 639 300 l 636 299 l 635 297 l 632 296 l 629 294 l 628 294 l 625 293 l 622 292 l 619 292 l 617 292 l 614 290 l 614 290 l 611 290 l 611 290 l 610 290 l 608 290 l 607 290 l 606 290 l 604 290 l 603 290 l 603 290 l 601 290 l 600 290 l 599 290 l 597 290 l 596 290 l 594 290 l 594 290 l 593 290 l 593 290 l 592 290 l 590 290 l 589 290 l 588 290 l 588 290 l 586 290 l 586 290 l 585 290 l 583 290 l 582 289 l 581 289 l 581 289 l 579 289 l 578 289 l 578 289 l 576 289 l 576 288 l 575 288 l 574 288 l 574 286 l 572 286 l 572 286 l 571 286 l 571 286 l 569 285 l 569 285 l 569 283 l 568 283 l 567 283 l 567 283 l 565 282 l 565 282 l 564 281 l 564 281 l 563 281 l 563 281 l 563 279 l 561 279 l 560 278 l 560 278 l 560 278 l 558 276 l 558 276 l 557 276 l 556 274 l 554 272 l 553 271 l 551 268 l 550 267 l 550 265 l 549 264 l 549 261 l 549 260 l 547 258 l 547 257 l 546 254 l 546 251 l 546 250 l 546 249 l 544 246 l 544 244 l 544 242 l 544 240 l 543 238 l 543 235 l 542 233 l 542 231 l 540 229 l 540 226 l 539 224 l 538 222 l 536 219 l 535 218 l 533 215 l 531 213 l 526 208 q 509 195 519 203 q 489 181 499 188 l 485 176 l 475 168 l 444 144 l 428 131 l 425 128 l 424 128 l 424 128 l 422 126 l 422 126 l 422 126 l 421 125 l 419 124 l 419 124 l 418 124 l 417 124 l 417 122 l 415 121 l 415 121 l 414 121 l 413 119 l 413 119 l 411 119 l 410 118 l 410 118 l 408 118 l 407 118 l 406 117 l 406 117 l 404 115 l 403 115 l 401 115 l 400 115 l 399 115 l 397 114 l 396 114 l 393 113 l 392 113 l 389 113 l 386 113 l 385 113 l 383 113 l 381 113 l 379 113 l 376 114 l 375 114 l 372 115 l 371 115 l 368 115 l 367 115 l 365 117 l 363 117 l 361 118 l 360 119 l 357 119 l 356 121 l 353 122 l 351 124 l 350 124 l 347 126 l 347 126 l 346 128 l 343 131 l 342 132 l 340 133 l 339 135 l 338 136 l 336 139 l 335 140 l 335 142 l 333 144 l 332 146 l 332 147 l 331 149 l 331 151 l 329 154 l 328 156 l 328 157 l 328 158 l 328 161 l 328 163 l 326 165 l 326 168 l 326 169 l 326 171 l 326 174 l 326 175 l 326 178 l 326 179 l 326 182 l 328 183 l 328 185 l 329 188 l 329 189 l 331 192 l 331 193 l 331 194 l 332 197 l 333 199 l 333 199 l 335 201 l 336 201 l 336 204 l 338 204 l 338 206 l 339 207 l 340 208 l 340 208 l 342 210 l 343 211 l 343 211 l 344 213 l 344 214 l 346 214 l 347 217 l 349 217 l 350 217 l 350 218 l 351 218 l 351 219 l 353 221 l 354 221 l 356 222 l 357 224 l 358 225 l 358 226 l 361 226 l 361 228 l 363 228 l 367 231 l 368 233 l 371 235 l 372 236 l 375 239 l 378 242 l 381 243 l 383 244 l 386 246 l 388 249 l 392 251 l 393 253 l 396 256 l 399 257 l 401 260 l 404 261 l 407 264 l 410 265 l 413 268 l 417 271 l 419 272 l 421 275 l 425 276 l 428 278 l 431 281 l 433 283 l 436 285 l 439 286 l 442 289 l 444 290 l 447 292 l 450 294 l 454 296 l 457 299 l 460 300 l 463 301 l 465 303 l 467 304 l 469 304 l 471 306 l 474 306 l 475 307 l 478 307 l 481 307 l 482 307 l 483 307 l 485 307 l 488 307 l 488 307 l 489 307 l 492 307 l 493 307 l 494 307 l 497 307 l 499 308 l 500 308 l 501 308 l 504 310 l 506 310 l 508 310 l 511 311 l 514 313 l 517 313 l 521 315 l 524 317 l 528 318 l 529 319 l 532 322 l 535 324 l 536 325 l 539 328 l 540 331 l 542 332 l 542 335 l 543 338 l 543 339 l 544 342 l 544 344 l 544 347 l 544 349 l 544 351 l 543 354 l 543 356 l 542 358 l 540 361 l 539 363 l 538 365 l 535 368 l 533 371 l 532 372 l 529 374 l 525 375 l 522 376 l 519 379 l 515 381 l 514 381 l 513 382 l 511 382 l 508 382 l 507 383 l 506 383 l 504 383 l 501 383 l 500 383 l 499 383 l 496 383 l 496 383 l 494 383 l 492 383 l 490 383 l 489 383 l 488 383 l 486 383 l 485 383 l 482 383 l 481 385 l 479 385 l 478 385 l 475 385 l 472 385 l 471 386 l 469 388 l 467 388 l 465 389 l 463 389 l 460 390 l 458 392 l 456 393 l 451 396 l 449 397 l 446 399 l 442 401 l 439 403 l 436 406 l 432 407 l 429 410 l 425 413 l 421 415 l 418 418 l 414 421 l 411 424 l 407 425 l 404 428 l 400 431 l 397 433 l 393 435 l 389 439 l 386 440 l 383 443 l 379 446 l 376 449 l 374 450 l 371 453 l 368 454 l 365 457 l 363 458 l 356 464 l 354 465 l 353 467 l 350 468 l 349 469 l 347 469 l 347 471 l 346 471 l 344 472 l 343 474 l 343 474 l 342 475 l 340 475 l 340 476 l 339 478 l 338 478 l 338 479 l 336 481 l 336 482 l 335 482 l 333 483 l 333 485 l 332 486 l 331 488 l 331 489 l 329 489 l 329 492 l 328 492 l 328 494 l 326 496 l 326 497 l 325 499 l 325 501 l 325 503 l 324 504 l 324 506 l 322 508 l 322 510 l 322 511 l 322 513 l 322 515 l 322 517 l 322 518 l 322 519 l 322 522 l 322 525 l 322 526 l 322 528 l 324 529 l 324 532 l 324 533 l 324 535 l 325 536 l 326 539 l 326 540 l 326 542 l 328 544 l 328 546 l 329 547 l 331 549 l 331 550 l 333 551 l 333 554 l 335 556 l 336 556 l 338 558 l 338 558 l 340 561 l 340 561 l 342 563 l 343 564 l 344 565 l 346 565 l 347 567 l 349 568 l 350 568 l 351 569 l 354 571 l 354 571 l 356 571 l 358 572 l 360 574 l 361 574 l 363 574 l 364 575 l 365 575 l 368 575 l 369 576 l 371 576 l 372 576 l 374 576 l 375 576 l 378 576 l 379 576 l 381 576 l 382 576 l 385 576 l 388 576 l 389 576 l 392 576 l 393 575 l 394 575 l 397 575 l 399 574 l 401 572 l 403 572 l 404 572 l 406 571 l 407 571 l 408 569 l 411 568 l 413 568 l 414 567 l 415 565 l 417 564 l 418 564 l 419 563 l 421 561 l 422 560 l 424 560 l 425 558 l 426 557 l 428 556 l 429 554 l 431 554 l 433 553 m 167 551 l 168 550 l 171 549 l 172 547 l 175 544 l 176 543 l 179 542 l 182 540 l 185 538 l 186 535 l 190 533 l 193 531 l 196 528 l 199 526 l 201 524 l 204 521 l 218 510 l 221 508 l 225 506 l 228 503 l 231 501 l 233 499 l 236 496 l 238 494 l 240 493 l 243 492 l 244 489 l 247 488 l 249 486 l 250 485 l 254 482 l 257 479 l 260 478 l 263 475 l 264 472 l 265 469 l 268 467 l 269 464 l 271 463 l 272 460 l 272 458 l 274 456 l 274 453 l 275 451 l 275 450 l 275 447 l 276 446 l 276 443 l 276 442 l 278 439 l 278 438 l 278 436 l 278 433 l 279 432 l 281 431 l 281 429 l 282 426 l 283 425 l 285 424 l 286 421 l 288 419 l 290 418 l 290 417 l 292 415 l 292 415 l 293 415 l 293 415 l 293 414 l 294 413 l 294 413 l 296 413 l 296 411 l 297 411 l 299 411 l 299 411 l 299 410 l 300 410 l 301 408 l 301 408 l 303 408 l 303 408 l 303 408 l 304 407 l 306 407 l 306 407 l 307 406 l 308 406 l 308 406 l 310 406 l 311 406 l 311 404 l 311 404 l 313 404 l 313 404 l 315 404 l 315 404 l 317 404 l 318 404 l 318 404 l 319 403 l 321 403 l 322 403 l 322 403 l 324 403 l 325 403 l 325 403 l 326 403 l 328 403 l 328 403 l 329 403 l 329 404 l 332 404 l 332 404 l 333 404 l 335 404 l 335 404 l 336 404 l 338 404 l 339 404 l 340 404 l 342 404 l 342 404 l 344 404 l 344 404 l 346 404 l 347 403 l 350 403 l 353 403 l 356 401 l 358 401 l 361 401 l 363 399 l 365 399 l 368 397 l 369 396 l 372 394 l 374 393 l 376 392 l 378 389 l 381 388 l 382 386 l 383 385 l 385 382 l 386 381 l 388 378 l 390 376 l 390 374 l 392 371 l 393 369 l 393 367 l 394 364 l 396 363 l 396 360 l 397 357 l 397 354 l 397 351 l 397 350 l 397 347 l 397 344 l 397 342 l 397 339 l 396 336 l 396 333 l 396 332 l 394 329 l 394 326 l 393 324 l 392 322 l 392 319 l 390 318 l 389 315 l 388 314 l 385 311 l 385 308 l 383 307 l 381 306 l 379 304 l 376 301 l 375 300 l 374 299 l 371 297 l 369 296 l 367 294 l 364 294 l 363 293 l 360 292 l 357 292 l 354 290 l 351 290 l 349 289 l 347 289 l 346 289 l 346 289 l 343 289 l 343 289 l 340 289 l 340 289 l 339 289 l 338 289 l 336 289 l 336 289 l 335 289 l 333 289 l 331 289 l 331 289 l 329 289 l 329 289 l 328 289 l 326 289 l 326 289 l 324 289 l 324 289 l 322 289 l 322 289 l 321 289 l 319 289 l 319 289 l 317 289 l 317 288 l 315 288 l 314 288 l 314 288 l 313 288 l 313 288 l 311 288 l 310 286 l 310 286 l 308 286 l 307 285 l 307 285 l 307 285 l 306 285 l 306 285 l 304 283 l 303 283 l 303 282 l 303 282 l 301 282 l 300 282 l 300 281 l 300 281 l 299 279 l 299 279 l 297 279 l 296 279 l 296 278 l 296 278 l 294 278 l 293 276 l 293 276 l 293 275 l 293 275 l 292 275 l 290 272 l 289 271 l 288 269 l 286 267 l 285 265 l 285 264 l 283 263 l 282 260 l 282 258 l 282 257 l 282 256 l 281 253 l 281 250 l 281 249 l 281 247 l 279 244 l 279 243 l 278 240 l 278 239 l 278 236 l 278 233 l 276 232 l 276 229 l 275 228 l 274 225 l 274 222 l 272 221 l 271 218 l 269 217 l 267 214 l 265 213 l 261 207 q 244 194 254 201 q 224 179 233 186 l 219 175 l 210 167 l 179 143 l 163 129 l 160 128 l 158 126 l 158 126 l 157 125 l 157 125 l 156 125 l 156 124 l 154 122 l 153 122 l 153 122 l 151 122 l 151 121 l 150 119 l 149 119 l 149 119 l 147 118 l 146 118 l 146 118 l 144 117 l 144 117 l 143 117 l 142 117 l 140 115 l 139 115 l 139 115 l 136 115 l 136 115 l 135 114 l 133 114 l 132 113 l 129 113 l 128 113 l 125 113 l 124 113 l 121 111 l 119 111 l 118 111 l 115 111 l 113 111 l 111 113 l 108 113 l 107 114 l 106 114 l 103 114 l 101 114 l 99 115 l 97 115 l 96 117 l 93 118 l 92 118 l 89 119 l 88 121 l 86 122 l 83 122 l 82 125 l 82 125 l 79 126 l 78 129 l 76 131 l 75 132 l 74 133 l 72 135 l 71 138 l 69 139 l 69 140 l 68 143 l 67 144 l 67 146 l 65 147 l 64 150 l 64 153 l 63 154 l 63 156 l 61 157 l 61 160 l 61 163 l 61 164 l 61 167 l 61 168 l 61 169 l 61 172 l 61 174 l 61 176 l 61 178 l 61 181 l 63 182 l 63 183 l 63 186 l 64 189 l 65 190 l 65 192 l 65 193 l 67 196 l 67 197 l 68 199 l 69 200 l 69 200 l 71 203 l 72 203 l 72 204 l 74 206 l 74 207 l 75 208 l 76 208 l 76 210 l 78 210 l 78 211 l 79 213 l 81 213 l 81 215 l 83 215 l 83 215 l 85 217 l 85 218 l 86 218 l 88 219 l 88 219 l 90 221 l 90 222 l 92 224 l 93 225 l 94 225 l 96 226 l 97 226 l 101 231 l 103 232 l 106 233 l 107 235 l 110 238 l 113 240 l 115 242 l 118 243 l 121 244 l 122 247 l 125 250 l 128 251 l 131 254 l 133 256 l 136 258 l 139 260 l 142 263 l 144 265 l 147 267 l 150 269 l 153 271 l 156 274 l 160 275 l 163 278 l 164 279 l 167 282 l 171 283 l 174 285 l 176 288 l 178 290 l 181 290 l 185 293 l 188 294 l 190 297 l 194 299 l 197 300 l 200 301 l 201 303 l 204 303 l 206 304 l 208 304 l 210 306 l 211 306 l 214 306 l 217 306 l 218 306 l 219 306 l 221 306 l 222 306 l 224 306 l 225 306 l 228 306 l 229 306 l 231 306 l 233 307 l 235 307 l 236 307 l 239 308 l 240 308 l 243 308 l 246 310 l 249 311 l 251 311 l 254 314 l 258 315 l 261 317 l 264 319 l 267 321 l 268 322 l 271 324 l 272 326 l 275 329 l 275 331 l 276 333 l 278 336 l 278 339 l 279 340 l 279 343 l 279 346 l 279 349 l 279 350 l 278 353 l 276 356 l 276 357 l 275 360 l 274 363 l 271 364 l 269 367 l 268 369 l 267 371 l 264 372 l 260 374 l 257 376 l 254 378 l 250 379 l 249 379 l 247 381 l 244 381 l 243 381 l 242 382 l 240 382 l 238 382 l 236 382 l 235 382 l 232 382 l 231 382 l 231 382 l 228 382 l 226 382 l 225 382 l 222 382 l 222 382 l 221 382 l 218 382 l 217 382 l 215 383 l 214 383 l 211 383 l 210 383 l 207 383 l 206 385 l 204 386 l 201 386 l 199 388 l 197 388 l 194 389 l 192 390 l 189 393 l 186 394 l 183 396 l 179 397 l 176 400 l 174 401 l 169 404 l 167 406 l 163 408 l 160 411 l 156 414 l 153 417 l 149 419 l 146 422 l 142 424 l 138 426 l 135 429 l 131 432 l 128 433 l 124 438 l 121 439 l 118 442 l 114 444 l 111 447 l 108 449 l 106 451 l 101 454 l 99 456 l 96 457 l 90 463 l 89 464 l 88 465 l 83 468 l 83 468 l 82 468 l 82 469 l 81 469 l 79 471 l 78 472 l 76 472 l 76 474 l 75 474 l 74 475 l 74 476 l 72 476 l 72 478 l 71 479 l 69 481 l 69 481 l 68 482 l 67 483 l 67 485 l 65 486 l 64 488 l 64 488 l 64 490 l 63 490 l 61 493 l 61 494 l 61 496 l 60 497 l 58 500 l 58 501 l 58 503 l 58 504 l 57 507 l 57 508 l 57 510 l 56 511 l 56 514 l 56 515 l 56 517 l 56 519 l 56 521 l 57 524 l 57 525 l 57 526 l 58 528 l 58 531 l 58 532 l 58 533 l 60 536 l 60 538 l 60 539 l 61 540 l 63 543 l 63 544 l 64 546 l 64 547 l 65 549 l 67 550 l 68 553 l 69 554 l 71 556 l 71 557 l 72 557 l 74 560 l 75 560 l 76 561 l 78 563 l 79 564 l 81 565 l 82 565 l 83 567 l 85 567 l 86 568 l 88 569 l 89 569 l 90 569 l 92 571 l 94 572 l 96 572 l 97 572 l 99 574 l 100 574 l 101 574 l 104 575 l 106 575 l 107 575 l 108 575 l 110 575 l 111 575 l 114 575 l 115 575 l 117 575 l 119 575 l 121 575 l 124 575 l 125 575 l 128 574 l 129 574 l 131 574 l 133 572 l 135 571 l 138 571 l 138 571 l 140 569 l 142 569 l 143 568 l 144 567 l 147 567 l 147 565 l 150 564 l 151 563 l 153 563 l 154 561 l 156 560 l 157 558 l 158 558 l 160 557 l 161 556 l 163 554 l 164 553 l 165 553 l 167 551 z "},"…":{"ha":1269,"x_min":56,"x_max":1214,"o":"m 194 235 q 278 199 243 235 q 313 117 313 164 q 274 29 313 63 q 222 4 254 10 q 200 1 211 1 q 179 -1 189 0 q 150 -11 161 -4 q 117 -21 136 -21 q 56 39 56 -21 q 65 72 56 58 q 78 111 71 82 q 82 144 78 128 q 100 185 85 167 q 194 235 133 235 m 658 232 q 742 197 707 232 q 776 114 776 161 q 738 26 776 60 q 686 1 718 7 q 664 -2 675 -1 q 643 -4 653 -3 q 614 -14 625 -7 q 581 -24 600 -24 q 519 36 519 -24 q 529 69 519 56 q 542 108 535 79 q 546 142 542 125 q 564 182 549 164 q 658 232 597 232 m 1096 225 q 1179 190 1144 225 q 1214 107 1214 154 q 1175 19 1214 53 q 1124 -4 1156 0 q 1101 -8 1113 -7 q 1081 -10 1090 -8 q 1051 -19 1063 -12 q 1018 -29 1038 -29 q 957 29 957 -29 q 967 63 957 49 q 979 101 972 72 q 983 135 979 118 q 1001 175 986 157 q 1096 225 1035 225 z "},"“":{"ha":718,"x_min":56,"x_max":663,"o":"m 228 1071 q 237 1068 232 1069 q 246 1067 242 1067 l 246 1067 q 319 954 328 1040 q 281 882 314 910 q 203 858 247 853 q 131 897 158 863 q 107 975 101 931 q 107 976 107 975 q 107 976 107 976 q 107 978 107 976 q 107 981 107 979 q 94 996 107 990 q 91 997 93 996 q 89 999 89 997 q 78 1003 82 999 q 58 1029 63 1011 q 58 1043 56 1035 l 61 1075 l 61 1078 l 69 1158 q 74 1174 69 1165 q 97 1194 81 1190 q 108 1197 106 1197 q 111 1197 110 1197 q 115 1197 113 1197 q 131 1211 125 1199 q 132 1218 132 1214 q 133 1224 132 1221 q 136 1231 135 1226 q 163 1251 143 1246 l 163 1254 l 174 1253 l 176 1253 l 176 1253 l 176 1253 q 204 1261 192 1250 q 306 1244 263 1301 q 289 1144 347 1186 q 189 1160 231 1101 q 167 1172 179 1175 q 151 1157 153 1167 q 149 1151 150 1154 q 149 1147 149 1149 q 174 1096 150 1114 q 228 1071 199 1078 m 543 1071 q 552 1068 547 1069 q 563 1067 557 1067 l 563 1067 q 636 954 644 1039 q 597 882 631 910 q 519 858 563 853 q 447 897 475 863 q 424 975 418 931 q 424 976 424 975 q 424 976 424 976 q 424 978 424 976 q 424 981 424 979 q 410 996 421 992 q 404 999 410 996 q 393 1003 399 999 q 375 1029 376 1011 q 374 1043 374 1033 l 378 1075 l 378 1078 l 386 1158 q 389 1174 386 1163 q 413 1194 394 1189 q 425 1197 421 1197 q 427 1197 425 1197 q 431 1197 429 1197 q 447 1211 442 1199 q 449 1218 447 1215 q 453 1231 449 1224 q 478 1251 458 1246 l 479 1254 l 490 1253 l 492 1253 l 492 1253 l 493 1253 q 521 1261 508 1250 q 574 1273 544 1278 q 621 1244 604 1268 q 606 1144 663 1186 q 504 1160 547 1100 q 482 1172 494 1174 q 467 1157 469 1167 q 465 1147 465 1154 q 490 1096 465 1114 q 543 1071 515 1078 z "},"”":{"ha":719,"x_min":56,"x_max":664,"o":"m 492 1063 q 483 1065 488 1064 q 474 1067 478 1067 l 474 1067 q 400 1179 392 1093 q 440 1251 406 1224 q 518 1275 474 1281 q 589 1236 563 1271 q 613 1158 618 1203 q 613 1158 613 1158 q 613 1157 613 1157 q 613 1156 613 1157 q 613 1153 613 1154 q 625 1138 613 1143 q 628 1135 626 1136 q 631 1133 631 1135 q 642 1129 638 1133 q 661 1103 657 1121 q 661 1089 664 1097 l 658 1057 l 658 1054 l 650 974 q 644 958 650 967 q 621 939 638 942 q 610 936 613 936 q 607 936 608 936 q 603 936 606 936 q 588 922 593 935 q 586 915 586 919 q 585 910 586 913 q 582 903 583 907 q 556 882 575 888 l 556 879 l 544 881 l 542 881 l 542 881 l 542 881 q 514 872 526 883 q 413 889 456 832 q 431 989 371 947 q 531 974 489 1032 q 553 961 539 958 q 568 976 567 967 q 570 982 569 979 q 571 986 571 985 q 545 1038 569 1019 q 492 1063 521 1056 m 176 1064 q 167 1067 172 1065 q 157 1068 163 1068 l 157 1068 q 83 1181 75 1096 q 124 1253 89 1225 q 201 1276 158 1282 q 272 1238 246 1272 q 296 1160 301 1204 q 296 1159 296 1160 q 296 1158 296 1158 q 296 1157 296 1158 q 296 1154 296 1156 q 310 1139 299 1143 q 315 1136 310 1139 q 326 1132 321 1136 q 344 1104 343 1122 q 346 1090 346 1100 l 342 1058 l 342 1056 l 333 976 q 331 961 333 972 q 306 940 324 946 q 293 938 297 938 q 291 938 293 938 q 288 938 289 938 q 271 924 276 936 q 269 917 271 919 q 265 904 269 911 q 240 883 260 889 l 239 881 l 228 882 l 226 882 l 226 882 l 225 882 q 197 874 210 885 q 144 862 174 857 q 97 890 114 867 q 114 990 56 949 q 215 975 172 1035 q 238 963 225 961 q 253 978 250 968 q 254 988 254 981 q 229 1039 254 1021 q 176 1064 204 1057 z "},"‘":{"ha":400,"x_min":56,"x_max":344,"o":"m 225 769 q 234 767 229 768 q 244 765 239 765 l 244 765 q 318 653 326 738 q 279 581 313 608 q 201 557 244 551 q 129 596 157 561 q 106 674 100 629 q 106 674 106 674 q 106 675 106 675 q 106 676 106 675 q 106 679 106 678 q 92 694 103 690 q 86 697 92 694 q 75 701 81 697 q 57 728 58 710 q 56 742 56 732 l 60 774 l 60 776 l 68 857 q 71 872 68 861 q 94 893 76 888 q 107 896 103 896 q 109 896 107 896 q 113 896 111 896 q 129 910 124 897 q 131 917 129 914 q 135 929 131 922 q 160 950 140 944 l 161 953 l 172 951 l 174 951 l 174 951 l 175 951 q 203 960 190 949 q 256 972 226 976 q 303 943 286 967 q 288 843 344 885 q 186 858 229 799 q 164 871 176 872 q 149 856 151 865 q 147 846 147 853 q 172 794 147 813 q 225 769 197 776 z "},"’":{"ha":403,"x_min":56,"x_max":347,"o":"m 178 744 q 169 749 174 747 q 158 750 164 750 l 158 750 q 86 863 76 779 q 125 935 92 907 q 204 957 161 964 q 275 918 249 953 q 297 839 304 883 q 297 838 297 839 q 297 838 297 838 q 297 836 297 838 q 297 833 297 835 q 311 818 300 822 q 317 815 311 818 q 328 811 322 815 q 346 785 344 803 q 347 771 347 781 l 342 739 l 342 736 l 333 656 q 329 640 333 651 q 306 619 324 625 q 293 617 297 617 q 291 617 293 617 q 288 617 289 617 q 271 604 276 615 q 269 597 271 600 q 265 585 269 592 q 240 564 260 569 l 239 561 l 228 563 l 226 563 l 226 563 l 225 563 q 197 554 210 565 q 143 544 172 539 q 97 572 114 549 q 114 672 56 632 q 215 656 172 717 q 236 643 224 642 q 253 658 250 649 q 254 668 254 661 q 229 719 254 701 q 178 744 204 738 z "},"¤":{"ha":976,"x_min":56,"x_max":921,"o":"m 432 386 l 429 386 l 429 386 l 428 386 l 418 386 l 304 386 l 304 286 l 304 286 l 304 235 l 304 233 l 304 233 l 304 232 l 304 232 l 304 231 l 304 231 l 304 229 l 304 228 l 304 228 l 304 226 l 306 225 l 306 224 l 306 224 l 306 222 l 306 221 l 306 219 l 306 219 l 307 218 l 307 217 l 307 217 l 307 217 l 308 215 l 308 214 l 308 214 l 308 213 l 308 211 l 310 211 l 310 210 l 310 208 l 311 208 l 311 207 l 311 206 l 313 203 l 314 200 l 315 199 l 317 197 l 319 194 l 319 192 l 321 189 l 322 188 l 325 185 l 326 185 l 329 182 l 331 181 l 333 178 l 336 176 l 338 175 l 339 174 l 342 172 l 344 169 l 347 168 l 350 168 l 351 168 l 354 167 l 357 165 l 360 164 l 363 164 l 365 163 l 368 163 l 369 163 l 374 161 l 376 161 l 379 161 l 383 161 l 383 161 l 383 161 l 385 161 l 385 161 l 385 161 l 385 161 l 385 161 l 386 161 l 513 161 l 513 161 l 642 161 l 647 161 l 653 161 l 657 161 l 661 161 l 667 161 l 672 161 l 676 163 l 682 163 l 686 163 l 690 164 l 696 165 l 701 165 l 704 167 l 710 168 l 714 168 l 718 171 l 722 172 l 726 174 l 731 176 l 735 179 l 736 182 l 740 185 l 743 188 l 747 190 l 750 194 l 751 199 l 753 203 l 756 207 l 757 213 l 758 217 l 760 222 l 760 229 l 760 231 l 760 232 l 761 233 l 761 235 l 761 239 l 761 240 l 761 243 l 761 244 l 761 246 l 761 249 l 761 249 l 761 250 l 763 251 l 763 254 l 763 256 l 763 257 l 763 258 l 764 261 l 764 263 l 764 264 l 765 265 l 765 267 l 767 268 l 767 269 l 768 272 l 768 274 l 768 275 l 769 278 l 769 279 l 771 281 l 772 282 l 774 285 l 775 286 l 776 289 l 779 292 l 781 293 l 782 296 l 785 297 l 785 297 l 786 300 l 789 301 l 790 303 l 793 306 l 794 307 l 797 308 l 800 310 l 800 311 l 803 313 l 806 313 l 808 313 l 810 314 l 813 315 l 815 317 l 817 317 l 819 318 l 822 318 l 825 319 l 828 319 l 831 319 l 833 321 l 835 321 l 838 321 l 840 321 l 846 321 l 849 321 l 853 319 l 857 319 l 861 318 l 865 317 l 868 315 l 872 314 l 876 313 l 879 311 l 882 310 l 885 307 l 889 306 l 892 303 l 896 300 l 897 297 l 900 294 l 903 292 l 906 289 l 907 285 l 910 282 l 913 279 l 913 275 l 914 272 l 915 268 l 917 265 l 918 261 l 919 257 l 919 253 l 921 249 l 921 244 l 921 240 l 921 238 l 921 233 l 921 231 l 919 228 l 919 224 l 918 219 l 917 217 l 915 214 l 915 211 l 913 208 l 913 204 l 911 201 l 910 200 l 907 197 l 906 193 l 903 190 l 901 188 l 899 186 l 897 185 l 894 182 l 892 179 l 890 178 l 886 175 l 883 174 l 881 171 l 879 169 l 876 168 l 872 168 l 869 167 l 865 165 l 864 164 l 860 163 l 858 163 l 857 163 l 856 163 l 854 163 l 853 163 l 851 161 l 850 161 l 849 161 l 849 161 l 847 161 l 846 161 l 844 161 l 843 161 l 842 160 l 840 160 l 839 160 l 838 160 l 836 160 l 835 160 l 833 160 l 833 160 l 832 160 l 831 158 l 829 158 l 828 158 l 826 158 l 825 158 l 824 158 l 822 157 l 821 157 l 819 157 l 817 157 l 815 156 l 813 154 l 808 153 l 806 153 l 803 153 l 800 150 l 799 149 l 796 147 l 793 146 l 790 144 l 788 143 l 786 140 l 785 139 l 782 136 l 779 136 l 778 133 l 775 132 l 774 129 l 771 126 l 769 125 l 768 122 l 767 121 l 765 118 l 764 115 l 763 113 l 761 110 l 760 107 l 758 104 l 757 103 l 756 100 l 754 97 l 754 96 l 754 94 l 753 93 l 753 92 l 753 90 l 753 89 l 753 89 l 753 88 l 753 86 l 753 86 l 753 85 l 753 83 l 753 82 l 753 81 l 753 79 l 751 75 l 751 72 l 751 72 l 751 71 l 751 71 l 750 69 l 750 68 l 750 67 l 750 65 l 750 64 l 749 63 l 749 61 l 749 60 l 749 58 l 747 56 l 746 53 l 744 50 l 743 47 l 742 44 l 740 42 l 739 40 l 738 38 l 736 35 l 735 32 l 733 29 l 731 26 l 729 25 l 726 24 l 724 21 l 721 19 l 721 17 l 718 15 l 715 14 l 713 11 l 710 10 l 707 8 l 704 8 l 701 7 l 699 6 l 696 4 l 692 4 l 689 3 l 688 3 l 683 1 l 681 1 l 675 0 l 672 0 l 672 0 l 669 0 l 513 0 l 513 0 l 467 0 l 467 1 l 431 1 l 431 1 l 429 1 l 428 1 l 428 1 l 422 1 l 422 1 l 414 1 l 404 1 l 397 3 l 389 4 l 383 6 l 376 8 l 369 8 l 364 11 l 358 14 l 353 17 l 349 19 l 343 24 l 339 25 l 336 29 l 332 33 l 328 36 l 325 40 l 322 43 l 319 47 l 318 50 l 315 54 l 314 57 l 311 60 l 310 64 l 308 68 l 307 71 l 306 72 l 306 75 l 304 79 l 304 81 l 304 83 l 304 86 l 304 86 l 304 86 l 304 88 l 304 88 l 304 89 l 304 89 l 303 89 l 303 89 l 303 92 l 301 96 l 301 99 l 300 101 l 299 104 l 297 106 l 296 108 l 294 111 l 293 114 l 292 117 l 290 119 l 289 121 l 288 124 l 286 125 l 283 128 l 282 131 l 279 132 l 278 135 l 275 136 l 272 138 l 271 139 l 268 140 l 267 142 l 263 143 l 261 146 l 257 147 l 256 147 l 253 149 l 250 150 l 247 151 l 244 151 l 240 153 l 240 153 l 239 153 l 236 153 l 235 153 l 233 153 l 232 153 l 231 153 l 228 153 l 226 153 l 225 153 l 222 153 l 221 154 l 219 154 l 218 154 l 217 154 l 215 154 l 215 154 l 215 154 l 214 154 l 214 154 l 213 154 l 213 154 l 211 154 l 211 154 l 211 154 l 210 156 l 210 156 l 208 156 l 208 156 l 208 156 l 208 156 l 207 156 l 207 156 l 206 157 l 201 157 l 199 158 l 196 158 l 193 160 l 192 161 l 189 163 l 186 164 l 183 165 l 181 167 l 178 168 l 176 169 l 175 171 l 172 172 l 169 175 l 168 176 l 165 179 l 164 181 l 161 183 l 160 185 l 160 188 l 157 189 l 156 192 l 154 194 l 153 197 l 151 200 l 150 201 l 149 204 l 147 207 l 147 210 l 146 213 l 144 217 l 144 218 l 144 218 l 144 219 l 144 219 l 144 221 l 143 221 l 143 222 l 143 224 l 143 224 l 143 224 l 143 225 l 143 226 l 143 226 l 143 228 l 143 228 l 143 229 l 143 275 l 143 386 l 132 386 l 131 386 l 129 386 l 128 386 l 125 386 l 124 386 l 121 386 l 119 386 l 119 386 l 118 386 l 117 386 l 115 386 l 114 386 l 114 386 l 113 386 l 111 386 l 111 386 l 110 386 l 110 388 l 108 388 l 107 388 l 106 388 l 104 388 l 104 388 l 103 388 l 101 388 l 100 388 l 97 389 l 96 389 l 94 390 l 92 390 l 89 392 l 88 393 l 85 393 l 82 394 l 81 396 l 79 397 l 78 399 l 75 400 l 74 401 l 72 404 l 69 406 l 68 407 l 67 410 l 65 410 l 64 413 l 64 414 l 63 417 l 61 419 l 61 421 l 60 424 l 58 425 l 58 428 l 57 431 l 57 432 l 57 435 l 56 438 l 56 440 l 56 442 l 56 444 l 57 449 l 57 451 l 57 454 l 58 457 l 58 458 l 60 461 l 61 464 l 63 467 l 64 469 l 64 472 l 65 474 l 67 475 l 68 478 l 71 481 l 72 482 l 75 485 l 76 486 l 79 488 l 81 489 l 82 490 l 85 492 l 88 493 l 90 494 l 93 494 l 96 496 l 97 497 l 100 497 l 103 497 l 107 499 l 110 499 l 111 499 l 113 499 l 113 499 l 114 499 l 114 499 l 114 499 l 117 499 l 119 499 l 119 499 l 122 499 l 125 499 l 143 499 l 143 596 l 133 596 l 132 596 l 131 596 l 128 596 l 128 596 l 125 596 l 122 596 l 121 596 l 119 596 l 118 596 l 117 596 l 115 596 l 114 596 l 114 596 l 113 596 l 111 596 l 111 597 l 110 597 l 108 597 l 107 597 l 106 597 l 104 597 l 103 597 l 101 597 l 100 597 l 99 599 l 97 599 l 96 599 l 96 600 l 94 600 l 93 600 l 90 601 l 89 601 l 86 601 l 85 603 l 82 604 l 81 606 l 79 607 l 78 608 l 76 610 l 74 611 l 72 613 l 71 615 l 69 617 l 68 618 l 67 619 l 65 621 l 64 622 l 64 625 l 64 626 l 63 629 l 61 631 l 60 633 l 60 635 l 58 636 l 58 639 l 58 642 l 57 643 l 57 646 l 57 649 l 57 650 l 57 651 l 57 656 l 57 658 l 57 661 l 58 664 l 58 665 l 60 668 l 60 671 l 61 674 l 63 676 l 64 679 l 64 682 l 65 683 l 67 685 l 69 688 l 71 690 l 72 692 l 75 694 l 78 696 l 79 697 l 81 699 l 83 700 l 85 701 l 88 703 l 90 704 l 93 704 l 96 706 l 97 707 l 101 707 l 104 708 l 107 708 l 110 708 l 111 708 l 113 708 l 113 708 l 113 708 l 114 708 l 114 708 l 114 708 l 115 708 l 118 708 l 119 708 l 122 708 l 124 708 l 143 708 l 143 864 l 143 867 l 143 869 l 143 874 l 143 875 l 143 882 l 143 885 l 143 888 l 143 890 l 143 893 l 143 896 l 143 899 l 143 901 l 143 904 l 143 907 l 143 910 l 143 913 l 143 915 l 144 918 l 144 921 l 146 924 l 146 926 l 147 929 l 147 932 l 149 935 l 150 938 l 151 939 l 153 942 l 154 944 l 156 947 l 158 950 l 160 953 l 160 954 l 161 956 l 163 957 l 164 958 l 165 960 l 165 961 l 167 961 l 168 963 l 169 964 l 171 965 l 172 967 l 175 968 l 176 969 l 176 971 l 178 971 l 179 971 l 181 972 l 182 974 l 183 974 l 186 975 l 188 975 l 189 976 l 190 978 l 192 978 l 193 979 l 194 979 l 196 981 l 197 981 l 200 982 l 201 982 l 203 982 l 206 983 l 207 983 l 207 983 l 208 983 l 208 983 l 208 983 l 208 983 l 210 985 l 210 985 l 211 985 l 211 985 l 211 985 l 213 985 l 213 985 l 214 985 l 214 985 l 215 985 l 215 985 l 215 985 l 217 985 l 218 985 l 219 986 l 221 986 l 224 986 l 226 986 l 228 986 l 231 986 l 232 986 l 233 986 l 235 986 l 236 986 l 239 986 l 240 986 l 240 986 l 244 988 l 247 989 l 250 989 l 253 990 l 256 992 l 257 993 l 261 994 l 263 996 l 267 997 l 268 999 l 271 1000 l 272 1001 l 275 1003 l 278 1004 l 279 1007 l 282 1008 l 283 1011 l 286 1014 l 288 1017 l 289 1018 l 290 1019 l 292 1022 l 293 1025 l 294 1028 l 296 1031 l 297 1033 l 299 1035 l 300 1038 l 301 1040 l 301 1044 l 303 1047 l 303 1050 l 303 1050 l 304 1050 l 304 1050 l 304 1051 l 304 1051 l 304 1053 l 304 1053 l 304 1054 l 304 1056 l 304 1058 l 304 1061 l 306 1064 l 306 1067 l 307 1068 l 308 1072 l 310 1075 l 311 1079 l 314 1082 l 315 1085 l 318 1089 l 319 1093 l 322 1096 l 325 1099 l 328 1103 l 332 1107 l 336 1110 l 339 1114 l 343 1115 l 349 1119 l 353 1122 l 358 1125 l 364 1128 l 369 1131 l 376 1132 l 383 1133 l 389 1135 l 397 1136 l 404 1138 l 414 1138 l 422 1139 l 424 1139 l 428 1139 l 428 1139 l 429 1139 l 431 1139 l 432 1139 l 433 1139 l 467 1139 l 467 1139 l 513 1139 l 513 1139 l 669 1139 l 672 1139 l 672 1139 l 675 1139 l 681 1138 l 683 1138 l 688 1136 l 689 1136 l 692 1135 l 696 1135 l 699 1133 l 701 1132 l 704 1131 l 707 1131 l 710 1129 l 713 1128 l 715 1125 l 718 1124 l 721 1122 l 721 1119 l 724 1118 l 726 1115 l 729 1114 l 731 1113 l 733 1110 l 735 1107 l 736 1104 l 738 1101 l 739 1099 l 740 1097 l 742 1094 l 743 1092 l 744 1089 l 746 1086 l 747 1083 l 749 1081 l 749 1079 l 749 1078 l 749 1076 l 750 1075 l 750 1074 l 750 1072 l 750 1071 l 750 1069 l 751 1068 l 751 1068 l 751 1067 l 751 1067 l 751 1064 l 753 1060 l 753 1058 l 753 1057 l 753 1056 l 753 1054 l 753 1054 l 753 1053 l 753 1051 l 753 1050 l 753 1050 l 753 1049 l 753 1047 l 753 1046 l 754 1044 l 754 1043 l 754 1042 l 756 1039 l 757 1036 l 758 1035 l 760 1032 l 761 1029 l 763 1026 l 764 1024 l 765 1021 l 767 1018 l 768 1017 l 769 1015 l 771 1013 l 774 1010 l 775 1007 l 778 1006 l 779 1003 l 782 1003 l 785 1000 l 786 999 l 788 996 l 790 994 l 793 993 l 796 992 l 799 990 l 800 989 l 803 988 l 806 986 l 808 986 l 813 985 l 815 983 l 817 983 l 819 982 l 821 982 l 822 982 l 824 981 l 825 981 l 826 981 l 828 981 l 829 981 l 831 981 l 832 981 l 833 979 l 833 979 l 835 979 l 836 979 l 838 979 l 839 979 l 840 979 l 842 979 l 843 979 l 846 979 l 846 978 l 847 978 l 849 978 l 849 978 l 850 978 l 851 978 l 853 978 l 854 976 l 856 976 l 857 976 l 858 976 l 860 976 l 864 975 l 865 974 l 869 972 l 872 971 l 876 971 l 879 969 l 881 968 l 883 965 l 886 964 l 890 961 l 892 960 l 894 957 l 897 954 l 899 954 l 901 951 l 903 949 l 906 946 l 907 943 l 910 939 l 911 938 l 913 935 l 913 932 l 915 928 l 915 925 l 917 922 l 918 919 l 919 915 l 919 913 l 921 908 l 921 906 l 921 903 l 921 899 l 921 894 l 921 890 l 919 886 l 919 882 l 918 878 l 917 874 l 915 871 l 914 867 l 913 864 l 913 860 l 910 857 l 907 854 l 906 850 l 903 847 l 900 844 l 897 842 l 896 839 l 892 838 l 889 835 l 885 832 l 882 829 l 879 828 l 876 826 l 872 825 l 868 824 l 865 822 l 861 821 l 857 819 l 853 819 l 849 818 l 846 818 l 840 818 l 838 818 l 835 818 l 833 818 l 831 819 l 828 819 l 825 819 l 822 821 l 819 821 l 817 822 l 815 822 l 813 824 l 810 825 l 808 826 l 806 826 l 803 826 l 800 828 l 800 829 l 797 831 l 794 832 l 793 835 l 790 836 l 789 838 l 786 839 l 785 842 l 785 842 l 782 844 l 781 846 l 779 847 l 776 850 l 775 853 l 774 854 l 772 857 l 771 858 l 769 860 l 769 861 l 768 864 l 768 865 l 768 867 l 767 869 l 767 871 l 765 872 l 765 874 l 764 875 l 764 876 l 764 878 l 763 881 l 763 882 l 763 883 l 763 886 l 763 888 l 761 889 l 761 890 l 761 892 l 761 893 l 761 894 l 761 896 l 761 899 l 761 901 l 761 904 l 761 906 l 760 907 l 760 908 l 760 910 l 760 917 l 758 922 l 757 926 l 756 932 l 753 938 l 751 940 l 750 944 l 747 949 l 743 951 l 740 954 l 736 957 l 735 960 l 731 963 l 726 965 l 722 967 l 718 969 l 714 971 l 710 971 l 704 972 l 701 974 l 696 975 l 690 975 l 686 976 l 682 976 l 676 976 l 672 978 l 667 978 l 661 978 l 657 978 l 653 978 l 647 978 l 642 978 l 513 978 l 513 978 l 386 978 l 385 978 l 385 978 l 385 978 l 385 978 l 385 978 l 383 978 l 383 978 l 383 978 l 379 978 l 376 978 l 374 978 l 369 978 l 368 976 l 365 976 l 363 975 l 360 975 l 357 974 l 354 972 l 351 972 l 350 971 l 347 971 l 344 969 l 342 968 l 339 965 l 338 964 l 336 963 l 333 961 l 331 958 l 329 957 l 326 954 l 325 954 l 322 951 l 321 950 l 319 947 l 319 944 l 317 942 l 315 940 l 314 939 l 313 936 l 311 933 l 311 932 l 311 931 l 310 931 l 310 929 l 310 928 l 308 928 l 308 926 l 308 925 l 308 925 l 308 924 l 307 922 l 307 922 l 307 922 l 307 921 l 306 919 l 306 919 l 306 918 l 306 917 l 306 915 l 306 915 l 306 914 l 304 913 l 304 913 l 304 911 l 304 910 l 304 908 l 304 908 l 304 907 l 304 907 l 304 907 l 304 906 l 304 904 l 304 882 l 304 882 l 304 708 l 313 708 l 318 708 l 322 708 l 333 708 l 343 708 l 353 708 l 364 708 l 411 708 l 417 708 l 432 708 l 442 708 l 451 708 l 463 708 l 467 708 l 500 708 l 517 708 l 518 708 l 521 708 l 522 708 l 525 708 l 526 707 l 528 707 l 531 707 l 533 706 l 536 706 l 539 704 l 542 704 l 544 703 l 547 701 l 550 700 l 553 699 l 556 697 l 558 696 l 560 694 l 563 692 l 564 689 l 567 686 l 569 683 l 571 681 l 572 678 l 574 674 l 575 669 l 576 665 l 576 661 l 576 656 l 576 650 l 576 646 l 575 640 l 575 638 l 575 636 l 574 635 l 574 633 l 572 632 l 572 629 l 571 628 l 569 626 l 569 624 l 568 622 l 567 621 l 565 619 l 565 618 l 564 617 l 563 615 l 561 614 l 560 613 l 560 611 l 558 610 l 557 608 l 554 607 l 553 606 l 551 606 l 550 604 l 549 603 l 546 601 l 544 601 l 544 601 l 542 600 l 540 600 l 539 599 l 536 599 l 536 599 l 535 597 l 533 597 l 532 597 l 532 597 l 531 597 l 529 597 l 529 597 l 528 596 l 528 596 l 528 596 l 526 596 l 525 596 l 525 596 l 524 596 l 522 596 l 522 596 l 521 596 l 519 596 l 519 596 l 518 596 l 518 596 l 517 596 l 514 596 l 513 596 l 513 596 l 511 596 l 510 596 l 432 596 l 429 596 l 429 596 l 428 596 l 418 596 l 304 596 l 304 499 l 324 499 l 336 499 l 347 499 l 358 499 l 375 499 l 403 499 l 410 499 l 415 499 l 421 499 l 432 499 l 443 499 l 454 499 l 465 499 l 478 499 l 489 499 l 500 499 l 517 499 l 518 499 l 521 499 l 522 499 l 525 499 l 526 497 l 528 497 l 531 497 l 533 496 l 536 496 l 539 494 l 542 494 l 544 493 l 547 492 l 550 490 l 553 489 l 556 489 l 558 486 l 560 485 l 563 482 l 564 479 l 567 476 l 569 474 l 571 471 l 572 468 l 574 464 l 575 460 l 576 457 l 576 451 l 576 446 l 576 442 l 576 436 l 575 431 l 575 428 l 575 426 l 574 425 l 574 424 l 572 422 l 572 419 l 571 418 l 569 417 l 569 414 l 568 413 l 567 411 l 565 410 l 565 410 l 564 408 l 563 406 l 561 404 l 560 403 l 560 401 l 558 400 l 557 399 l 554 397 l 553 396 l 551 396 l 550 394 l 549 393 l 546 393 l 544 393 l 544 392 l 542 390 l 540 390 l 539 389 l 536 389 l 536 389 l 535 388 l 533 388 l 532 388 l 532 388 l 531 388 l 529 388 l 529 388 l 528 386 l 528 386 l 528 386 l 526 386 l 525 386 l 525 386 l 524 386 l 522 386 l 522 386 l 521 386 l 519 386 l 519 386 l 518 386 l 517 386 l 517 386 l 515 386 l 514 386 l 513 386 l 511 386 l 510 386 l 510 386 l 432 386 z "},"ˆ":{"ha":501,"x_min":56,"x_max":446,"o":"m 76 789 l 76 790 l 79 792 l 81 793 l 82 794 l 83 796 l 85 799 l 86 801 l 88 803 l 89 806 l 92 807 l 93 810 l 96 813 l 97 814 l 99 817 l 101 819 l 111 831 l 113 835 l 115 836 l 118 839 l 119 840 l 121 843 l 122 846 l 124 847 l 126 849 l 128 851 l 129 853 l 131 856 l 132 857 l 133 858 l 135 861 l 138 863 l 140 865 l 142 868 l 143 869 l 146 871 l 147 872 l 150 874 l 151 875 l 154 875 l 156 876 l 157 876 l 160 878 l 161 878 l 163 879 l 165 879 l 167 879 l 168 879 l 169 881 l 171 881 l 174 881 l 175 881 l 176 882 l 178 882 l 179 882 l 181 883 l 182 883 l 183 885 l 185 886 l 188 888 l 189 889 l 190 890 l 190 892 l 192 892 l 192 892 l 192 893 l 193 893 l 193 893 l 193 894 l 193 894 l 194 894 l 194 896 l 194 896 l 196 897 l 196 897 l 197 897 l 197 899 l 197 899 l 197 900 l 197 901 l 199 901 l 199 903 l 199 903 l 199 903 l 200 904 l 200 904 l 200 906 l 200 906 l 200 907 l 200 907 l 201 908 l 201 908 l 201 910 l 201 910 l 201 911 l 201 911 l 201 913 l 201 914 l 203 915 l 203 915 l 203 917 l 203 917 l 203 918 l 203 918 l 203 919 l 203 919 l 203 921 l 203 921 l 203 922 l 203 924 l 203 925 l 203 925 l 201 926 l 201 926 l 201 928 l 201 929 l 201 929 l 201 931 l 201 931 l 201 932 l 201 933 l 201 933 l 201 936 l 201 936 l 203 938 l 203 939 l 203 940 l 203 943 l 204 944 l 204 947 l 206 950 l 206 951 l 207 954 l 207 956 l 210 957 l 210 960 l 211 961 l 213 963 l 214 964 l 215 965 l 217 967 l 218 968 l 221 971 l 222 972 l 224 972 l 226 974 l 228 975 l 229 975 l 231 976 l 233 978 l 236 978 l 238 978 l 239 979 l 242 979 l 244 979 l 246 981 l 249 981 l 250 981 l 253 981 l 254 979 l 257 979 l 260 979 l 261 979 l 264 978 l 265 978 l 268 978 l 269 976 l 271 975 l 274 975 l 275 974 l 276 972 l 278 971 l 281 971 l 282 968 l 283 967 l 285 965 l 286 964 l 288 963 l 289 961 l 290 960 l 292 957 l 293 956 l 294 953 l 294 951 l 296 950 l 296 947 l 297 944 l 297 943 l 297 940 l 299 939 l 299 938 l 299 936 l 299 936 l 299 933 l 299 933 l 299 932 l 299 931 l 299 931 l 299 929 l 299 928 l 299 928 l 299 926 l 299 926 l 299 924 l 299 922 l 299 922 l 299 921 l 299 921 l 299 919 l 299 919 l 299 918 l 299 918 l 299 917 l 299 915 l 299 915 l 299 914 l 299 914 l 299 913 l 299 911 l 299 910 l 299 910 l 300 908 l 300 908 l 300 907 l 300 907 l 300 906 l 300 906 l 300 904 l 301 904 l 301 904 l 301 903 l 301 903 l 301 901 l 303 901 l 303 901 l 304 900 l 304 899 l 304 899 l 304 897 l 306 897 l 306 897 l 306 896 l 306 896 l 307 894 l 307 894 l 307 894 l 307 893 l 308 893 l 308 893 l 308 892 l 310 892 l 310 892 l 310 890 l 311 889 l 313 888 l 315 886 l 317 886 l 318 885 l 319 883 l 321 883 l 322 883 l 324 882 l 325 882 l 326 882 l 329 881 l 331 881 l 332 881 l 333 881 l 335 881 l 336 879 l 339 879 l 340 879 l 342 879 l 344 878 l 346 876 l 347 876 l 350 875 l 351 875 l 354 874 l 356 874 l 357 872 l 358 871 l 361 869 l 363 868 l 367 864 q 377 848 371 857 q 390 833 383 839 l 393 828 l 400 819 l 419 794 l 431 779 l 432 778 l 433 776 l 433 776 l 435 776 l 435 775 l 435 774 l 436 774 l 436 772 l 436 772 l 438 771 l 438 771 l 438 769 l 439 769 l 439 768 l 439 768 l 440 767 l 440 767 l 440 765 l 440 765 l 442 764 l 442 764 l 442 763 l 442 761 l 442 760 l 443 760 l 443 758 l 443 757 l 443 757 l 443 756 l 444 754 l 444 753 l 446 750 l 446 749 l 446 747 l 446 744 l 446 743 l 446 742 l 446 739 l 446 738 l 444 736 l 444 735 l 444 733 l 443 732 l 443 731 l 443 728 l 442 726 l 442 725 l 440 724 l 440 722 l 439 721 l 439 719 l 438 718 l 436 715 l 436 714 l 435 713 l 433 711 l 432 710 l 431 708 l 429 708 l 428 707 l 426 704 l 425 704 l 424 703 l 422 701 l 421 701 l 418 700 l 417 700 l 415 699 l 414 699 l 413 697 l 411 697 l 408 697 l 407 696 l 406 696 l 404 696 l 403 696 l 401 696 l 399 694 l 397 694 l 396 694 l 394 694 l 392 696 l 390 696 l 389 696 l 388 696 l 386 696 l 383 697 l 382 697 l 381 697 l 379 699 l 378 699 l 376 700 l 375 700 l 372 700 l 372 701 l 371 701 l 369 703 l 368 703 l 368 704 l 367 704 l 367 706 l 365 707 l 364 707 l 364 708 l 363 708 l 363 710 l 361 710 l 360 711 l 360 711 l 358 713 l 358 714 l 357 714 l 357 715 l 356 715 l 356 717 l 354 718 l 354 719 l 353 719 l 353 721 l 351 722 l 350 724 l 350 724 l 349 725 l 349 725 l 346 729 l 344 731 l 343 733 l 342 735 l 340 736 l 339 739 l 336 742 l 335 743 l 333 746 l 331 747 l 329 750 l 328 753 l 325 754 l 324 757 l 322 758 l 321 761 l 318 764 l 317 767 l 315 769 l 313 771 l 311 774 l 310 776 l 308 779 l 307 781 l 304 783 l 303 786 l 301 789 l 300 790 l 299 793 l 297 794 l 296 797 l 293 800 l 292 803 l 290 806 l 289 808 l 288 811 l 286 813 l 286 815 l 285 817 l 285 818 l 285 819 l 283 822 l 283 824 l 283 825 l 283 826 l 283 828 l 283 829 l 283 831 l 283 833 l 283 833 l 283 835 l 283 836 l 283 838 l 283 839 l 282 840 l 282 842 l 282 844 l 282 846 l 282 847 l 281 850 l 281 851 l 279 854 l 278 857 l 276 860 l 276 863 l 275 865 l 274 868 l 271 869 l 269 871 l 268 874 l 265 875 l 264 876 l 263 876 l 260 879 l 258 879 l 257 881 l 254 881 l 251 881 l 250 881 l 249 881 l 246 881 l 244 879 l 242 879 l 240 878 l 238 876 l 236 876 l 235 875 l 233 874 l 231 871 l 229 869 l 228 868 l 226 865 l 225 863 l 224 860 l 222 857 l 222 856 l 221 853 l 221 851 l 221 850 l 221 849 l 219 847 l 219 846 l 219 844 l 219 843 l 218 842 l 218 840 l 218 839 l 218 838 l 218 836 l 218 836 l 218 835 l 218 833 l 218 831 l 218 829 l 218 828 l 218 826 l 218 825 l 218 824 l 217 822 l 217 821 l 217 818 l 215 817 l 215 815 l 214 814 l 214 813 l 213 810 l 213 808 l 211 806 l 208 803 l 207 800 l 206 797 l 203 794 l 201 792 l 200 789 l 199 786 l 196 783 l 193 781 l 192 778 l 189 774 l 188 771 l 185 768 l 182 765 l 181 763 l 179 760 l 176 757 l 175 754 l 172 750 l 169 747 l 168 746 l 165 743 l 164 740 l 161 738 l 160 735 l 157 733 l 156 731 l 154 728 l 150 722 l 149 721 l 147 721 l 146 718 l 146 717 l 144 715 l 144 715 l 143 714 l 143 714 l 142 713 l 142 711 l 140 711 l 140 710 l 139 710 l 139 708 l 138 708 l 136 707 l 135 707 l 135 706 l 133 704 l 133 704 l 132 703 l 131 703 l 131 701 l 129 701 l 128 701 l 126 700 l 126 700 l 124 699 l 122 699 l 121 699 l 119 697 l 118 697 l 117 697 l 115 696 l 114 696 l 113 696 l 111 696 l 110 696 l 108 696 l 107 694 l 106 694 l 104 694 l 103 694 l 100 696 l 99 696 l 97 696 l 96 696 l 94 696 l 93 696 l 92 697 l 89 697 l 88 697 l 86 699 l 85 699 l 83 699 l 82 700 l 81 700 l 79 701 l 79 703 l 76 703 l 75 704 l 74 704 l 72 707 l 72 707 l 71 708 l 69 710 l 69 710 l 68 711 l 67 713 l 65 714 l 64 714 l 64 715 l 63 717 l 63 718 l 61 719 l 61 721 l 60 722 l 60 724 l 60 724 l 58 725 l 58 726 l 58 728 l 57 731 l 57 731 l 57 732 l 57 733 l 56 735 l 56 736 l 56 738 l 56 739 l 56 742 l 56 742 l 56 743 l 56 744 l 56 747 l 56 749 l 56 750 l 56 753 l 56 754 l 57 756 l 57 757 l 57 758 l 58 760 l 58 761 l 58 764 l 60 765 l 60 767 l 61 768 l 61 768 l 63 769 l 63 771 l 64 772 l 65 774 l 65 775 l 67 776 l 68 778 l 69 779 l 69 779 l 71 781 l 71 782 l 72 783 l 74 785 l 74 786 l 75 788 l 76 789 z "},"˜":{"ha":946,"x_min":56,"x_max":890,"o":"m 858 950 q 803 906 838 918 q 764 894 785 896 l 764 894 l 763 894 l 757 894 l 756 894 l 754 894 l 574 894 l 540 894 l 401 894 q 369 894 385 894 q 338 893 354 894 l 336 893 q 264 833 285 882 q 256 803 256 817 q 251 774 256 790 l 251 774 q 250 767 251 769 q 156 694 231 694 q 85 723 114 694 q 56 793 56 751 q 111 881 56 854 q 142 890 128 889 q 175 894 156 890 q 247 946 224 903 q 256 968 253 956 q 261 1006 261 989 q 274 1043 261 1022 q 326 1088 290 1074 q 358 1094 343 1094 q 392 1094 372 1094 l 540 1094 l 574 1094 q 665 1097 619 1094 q 760 1099 710 1099 q 822 1081 799 1097 q 858 1047 846 1065 q 858 950 890 1000 z "},"˚":{"ha":410,"x_min":56,"x_max":354,"o":"m 215 1604 q 174 1588 192 1604 q 157 1544 157 1571 q 175 1504 157 1522 q 215 1486 193 1486 q 258 1503 242 1486 q 275 1544 275 1521 q 215 1604 275 1604 m 217 1686 q 314 1644 274 1686 q 354 1549 354 1603 q 308 1447 354 1485 q 249 1418 286 1424 q 224 1413 236 1414 q 199 1411 211 1413 q 165 1400 178 1408 q 126 1389 149 1389 q 56 1458 56 1389 q 67 1497 56 1481 q 82 1542 74 1508 q 86 1581 82 1561 q 107 1628 89 1607 q 217 1686 146 1686 z "},"ˇ":{"ha":501,"x_min":56,"x_max":446,"o":"m 424 888 l 424 886 l 422 885 l 421 883 l 419 881 l 418 879 l 417 876 l 415 875 l 413 872 l 411 871 l 408 868 l 407 865 l 406 864 l 403 861 l 401 858 l 399 856 l 389 844 l 388 842 l 385 839 l 383 838 l 382 835 l 379 832 l 378 831 l 376 828 l 375 826 l 372 824 l 371 822 l 371 821 l 369 819 l 368 818 l 365 814 l 364 813 l 361 810 l 360 808 l 357 807 l 356 804 l 353 803 l 351 801 l 350 800 l 347 800 l 346 799 l 343 799 l 342 797 l 340 797 l 339 797 l 336 797 l 335 796 l 333 796 l 331 796 l 329 796 l 328 796 l 326 794 l 325 793 l 324 793 l 322 793 l 321 792 l 319 792 l 318 790 l 317 789 l 314 788 l 313 786 l 310 785 l 310 785 l 310 785 l 310 783 l 308 782 l 308 782 l 308 782 l 307 781 l 307 781 l 307 781 l 306 779 l 306 779 l 306 778 l 306 778 l 304 778 l 304 776 l 304 776 l 304 775 l 304 775 l 303 774 l 303 772 l 303 772 l 303 772 l 301 771 l 301 771 l 301 769 l 301 769 l 301 768 l 301 768 l 300 767 l 300 767 l 300 765 l 300 765 l 300 764 l 300 764 l 300 763 l 300 763 l 299 760 l 299 760 l 299 758 l 299 758 l 299 757 l 299 757 l 299 756 l 299 756 l 299 754 l 299 754 l 299 753 l 299 751 l 299 751 l 299 750 l 300 749 l 300 749 l 300 747 l 300 746 l 300 746 l 300 744 l 300 744 l 300 743 l 300 742 l 300 742 l 300 740 l 300 739 l 299 738 l 299 736 l 299 735 l 299 732 l 297 731 l 297 728 l 296 725 l 294 724 l 294 721 l 293 719 l 292 718 l 292 715 l 290 714 l 289 713 l 288 711 l 286 710 l 285 708 l 282 707 l 281 704 l 279 703 l 278 703 l 275 701 l 274 700 l 272 700 l 269 699 l 268 697 l 265 697 l 264 697 l 263 696 l 260 694 l 257 694 l 256 694 l 253 694 l 251 694 l 249 694 l 246 694 l 244 694 l 242 694 l 240 696 l 238 696 l 236 697 l 233 697 l 232 699 l 231 700 l 228 700 l 226 701 l 225 703 l 222 704 l 221 704 l 219 706 l 218 707 l 217 708 l 215 711 l 214 713 l 211 714 l 211 715 l 210 718 l 208 719 l 207 721 l 207 724 l 206 725 l 206 728 l 204 729 l 204 732 l 204 735 l 203 736 l 203 738 l 203 739 l 203 739 l 203 740 l 203 742 l 201 743 l 201 743 l 203 744 l 203 746 l 203 747 l 203 747 l 203 749 l 203 749 l 203 751 l 203 751 l 203 753 l 203 753 l 203 754 l 203 754 l 203 756 l 203 756 l 203 757 l 203 758 l 203 760 l 203 760 l 203 761 l 203 761 l 201 763 l 201 764 l 201 764 l 201 765 l 201 765 l 201 767 l 201 767 l 201 768 l 200 769 l 200 769 l 200 771 l 200 771 l 200 771 l 199 772 l 199 772 l 199 774 l 199 774 l 199 774 l 197 775 l 197 775 l 197 776 l 197 776 l 196 776 l 196 778 l 196 778 l 196 779 l 194 779 l 194 779 l 194 781 l 194 782 l 193 782 l 192 782 l 192 783 l 192 783 l 190 783 l 190 785 l 189 786 l 188 788 l 186 788 l 185 789 l 183 790 l 182 790 l 181 792 l 179 792 l 178 792 l 176 793 l 175 793 l 172 794 l 171 794 l 169 794 l 168 794 l 165 794 l 164 796 l 163 796 l 161 796 l 158 796 l 157 797 l 156 797 l 153 799 l 151 799 l 150 800 l 147 800 l 146 801 l 143 803 l 142 804 l 140 806 l 139 807 l 135 811 q 123 826 129 817 q 111 842 117 835 l 107 846 l 101 854 l 81 881 l 69 894 l 68 897 l 67 897 l 67 897 l 67 899 l 65 899 l 65 900 l 65 900 l 64 901 l 64 901 l 64 903 l 63 904 l 63 904 l 63 906 l 63 906 l 61 907 l 61 907 l 61 908 l 60 908 l 60 910 l 58 910 l 58 911 l 58 911 l 58 913 l 58 914 l 57 914 l 57 915 l 57 917 l 57 918 l 57 918 l 56 921 l 56 922 l 56 924 l 56 925 l 56 928 l 56 929 l 56 931 l 56 932 l 56 935 l 56 936 l 56 938 l 56 939 l 56 942 l 57 943 l 57 944 l 57 946 l 58 947 l 58 950 l 60 951 l 60 953 l 61 954 l 61 956 l 63 957 l 64 958 l 65 960 l 67 961 l 67 963 l 68 964 l 69 965 l 71 967 l 72 968 l 74 969 l 75 969 l 76 972 l 78 972 l 79 974 l 82 974 l 83 975 l 85 975 l 86 976 l 88 976 l 90 978 l 92 978 l 93 978 l 94 978 l 96 979 l 97 979 l 99 979 l 101 979 l 103 979 l 104 979 l 106 979 l 108 979 l 110 979 l 111 979 l 114 978 l 115 978 l 117 978 l 118 978 l 119 976 l 121 976 l 122 975 l 125 975 l 126 975 l 128 974 l 128 974 l 129 972 l 131 972 l 132 971 l 132 971 l 133 969 l 133 969 l 136 968 l 136 968 l 138 967 l 138 965 l 139 965 l 139 964 l 140 964 l 140 963 l 142 963 l 142 961 l 143 960 l 143 960 l 144 958 l 144 958 l 146 957 l 147 956 l 147 956 l 149 954 l 150 953 l 150 951 l 150 950 l 151 950 l 151 949 l 154 946 l 156 944 l 158 942 l 160 939 l 161 938 l 163 936 l 164 933 l 165 932 l 167 929 l 169 926 l 171 925 l 172 922 l 175 921 l 176 918 l 178 915 l 181 913 l 182 911 l 183 908 l 185 906 l 188 903 l 189 901 l 192 899 l 193 896 l 194 893 l 196 892 l 197 889 l 199 886 l 201 885 l 203 882 l 204 879 l 206 878 l 207 875 l 208 872 l 210 868 l 213 867 l 213 864 l 214 863 l 215 860 l 215 858 l 215 856 l 217 854 l 217 853 l 217 851 l 218 850 l 218 849 l 218 846 l 218 844 l 218 843 l 218 842 l 218 842 l 218 840 l 218 839 l 218 838 l 218 835 l 218 833 l 218 832 l 218 831 l 219 829 l 219 828 l 219 825 l 221 822 l 222 821 l 222 818 l 224 815 l 225 813 l 226 810 l 228 807 l 229 806 l 232 804 l 233 801 l 235 800 l 236 799 l 239 797 l 240 796 l 243 796 l 244 794 l 247 794 l 249 794 l 250 794 l 253 794 l 256 794 l 257 796 l 258 796 l 261 797 l 263 797 l 264 799 l 267 800 l 268 801 l 271 804 l 272 806 l 274 807 l 275 810 l 276 813 l 278 815 l 278 818 l 279 819 l 281 822 l 281 824 l 281 825 l 281 826 l 282 828 l 282 829 l 282 831 l 282 832 l 282 833 l 282 835 l 282 836 l 282 838 l 282 839 l 282 839 l 282 840 l 282 842 l 282 844 l 282 846 l 282 847 l 283 849 l 283 850 l 283 851 l 283 853 l 283 854 l 285 857 l 285 858 l 286 860 l 286 861 l 288 863 l 288 865 l 289 867 l 290 869 l 292 872 l 293 875 l 296 878 l 297 881 l 299 883 l 301 886 l 303 889 l 304 892 l 307 894 l 310 897 l 311 901 l 314 904 l 315 907 l 318 910 l 319 913 l 322 915 l 325 918 l 326 922 l 328 925 l 331 928 l 332 929 l 335 933 l 338 935 l 339 938 l 340 940 l 343 943 l 344 944 l 346 947 l 351 953 l 351 954 l 353 956 l 354 958 l 354 958 l 356 960 l 356 960 l 357 961 l 357 961 l 358 963 l 358 964 l 360 965 l 361 965 l 361 967 l 363 967 l 363 968 l 364 968 l 365 969 l 365 969 l 367 971 l 367 971 l 368 972 l 369 972 l 369 974 l 371 974 l 372 974 l 374 975 l 375 976 l 376 976 l 378 976 l 379 978 l 381 978 l 382 979 l 383 979 l 385 979 l 386 979 l 388 981 l 389 981 l 390 981 l 392 981 l 393 981 l 394 981 l 397 981 l 399 981 l 400 981 l 401 981 l 403 981 l 404 981 l 406 979 l 407 979 l 410 979 l 411 979 l 413 978 l 414 978 l 415 976 l 417 976 l 418 976 l 419 975 l 421 975 l 422 974 l 424 972 l 425 972 l 426 971 l 428 969 l 428 968 l 429 968 l 431 967 l 432 965 l 433 964 l 433 964 l 435 963 l 436 961 l 436 960 l 438 960 l 438 957 l 439 956 l 439 956 l 440 954 l 440 953 l 440 951 l 442 950 l 443 949 l 443 947 l 443 946 l 443 944 l 444 943 l 444 942 l 444 940 l 444 939 l 444 938 l 446 936 l 446 935 l 446 933 l 446 932 l 446 931 l 446 929 l 446 928 l 444 925 l 444 924 l 444 922 l 444 921 l 443 918 l 443 917 l 443 915 l 442 914 l 442 913 l 442 911 l 440 910 l 440 908 l 439 907 l 438 906 l 438 904 l 436 903 l 435 903 l 435 900 l 433 899 l 433 899 l 432 897 l 431 896 l 431 894 l 429 893 l 428 893 l 428 892 l 426 889 l 425 889 l 424 888 z "},"Ä":{"ha":1132,"x_min":56,"x_max":1076,"o":"m 403 679 l 403 681 l 403 681 l 408 681 l 410 681 l 446 681 l 474 681 l 499 681 q 540 680 519 681 q 581 675 560 679 q 649 626 629 664 q 658 591 657 610 q 667 554 658 572 q 711 511 682 524 q 735 504 724 504 q 761 501 747 504 l 761 501 q 763 501 761 501 q 767 500 765 500 q 828 421 828 482 q 803 362 828 386 q 744 338 778 338 q 671 383 694 338 q 661 422 663 403 q 660 439 661 432 q 617 500 653 479 q 567 513 600 508 l 565 513 l 565 513 l 564 513 l 474 513 l 446 513 l 410 513 l 410 513 l 408 513 l 403 513 l 403 513 l 403 513 q 343 544 365 514 q 332 565 333 556 q 326 589 331 575 q 292 615 318 615 q 260 596 269 615 q 255 552 256 588 q 254 508 254 517 l 254 407 q 253 360 254 382 q 238 315 253 338 q 156 272 207 272 q 67 328 92 272 q 56 370 56 349 q 57 415 57 392 l 57 419 l 57 658 l 57 690 l 57 890 l 57 892 q 56 928 56 911 q 69 964 57 946 q 131 1010 89 1000 l 131 1010 l 132 1011 q 138 1012 135 1011 q 143 1013 140 1013 l 144 1013 l 144 1013 q 160 1013 153 1013 q 176 1017 167 1014 q 247 1071 224 1025 q 244 1158 267 1111 q 193 1210 228 1193 q 164 1217 176 1217 q 135 1221 151 1217 l 135 1221 q 130 1222 132 1221 q 128 1222 128 1222 q 56 1317 56 1243 q 84 1385 56 1356 q 154 1414 113 1414 q 240 1360 211 1414 q 251 1314 249 1343 q 252 1305 251 1310 q 253 1294 253 1300 q 304 1224 261 1246 q 364 1208 328 1210 l 365 1208 l 365 1208 l 367 1208 l 571 1208 l 604 1208 l 778 1208 l 778 1208 l 779 1208 l 785 1208 l 786 1208 l 786 1208 q 851 1176 824 1204 q 878 1110 878 1147 q 876 1101 878 1104 q 877 1094 876 1097 q 879 1086 878 1090 q 931 1014 885 1036 q 951 1006 933 1011 q 988 999 972 1000 q 1025 989 1004 999 q 1076 910 1069 960 l 1076 910 l 1076 908 l 1076 903 l 1076 901 l 1076 900 l 1076 733 l 1076 700 l 1076 100 l 1076 100 l 1076 99 l 1076 93 l 1076 92 l 1076 92 q 1044 26 1072 53 q 976 0 1015 0 q 909 26 938 0 q 878 92 881 53 l 878 92 l 878 93 l 878 97 l 878 100 l 878 101 l 878 700 l 878 733 l 878 863 q 878 903 878 881 q 872 944 879 925 q 828 996 860 976 q 776 1010 804 1008 q 722 1011 747 1011 l 604 1011 l 571 1011 l 367 1011 l 365 1011 l 364 1011 l 358 1011 l 358 1011 l 358 1011 q 357 1011 357 1011 q 357 1011 357 1011 l 357 1011 l 357 1011 q 353 1011 354 1011 q 351 1011 351 1011 q 260 953 288 1011 q 253 906 251 935 q 254 856 254 876 l 254 778 q 294 683 253 686 q 403 679 336 679 m 468 1575 q 522 1552 499 1575 q 544 1499 544 1529 q 519 1442 544 1464 q 486 1426 507 1429 q 472 1424 479 1424 q 458 1422 464 1424 q 439 1415 446 1421 q 417 1410 429 1410 q 378 1449 378 1410 q 383 1469 378 1461 q 392 1494 388 1476 q 394 1517 392 1506 q 407 1543 396 1531 q 468 1575 428 1575 m 746 1575 q 800 1552 778 1575 q 822 1499 822 1529 q 797 1442 822 1464 q 764 1426 785 1429 q 750 1424 757 1424 q 736 1422 743 1424 q 717 1415 725 1421 q 696 1410 708 1410 q 656 1449 656 1410 q 663 1469 656 1461 q 671 1494 667 1476 q 674 1517 671 1506 q 685 1543 675 1531 q 746 1575 707 1575 z "},"Å":{"ha":1132,"x_min":56,"x_max":1076,"o":"m 576 1604 q 535 1588 553 1604 q 518 1544 518 1571 q 536 1504 518 1522 q 576 1486 554 1486 q 619 1503 603 1486 q 636 1544 636 1521 q 576 1604 636 1604 m 403 679 l 403 681 l 403 681 l 408 681 l 410 681 l 446 681 l 474 681 l 499 681 q 540 680 519 681 q 581 675 560 679 q 649 626 629 664 q 658 591 657 610 q 667 554 658 572 q 711 511 682 524 q 735 504 724 504 q 761 501 747 504 l 761 501 q 763 501 761 501 q 767 500 765 500 q 828 421 828 482 q 803 362 828 386 q 744 338 778 338 q 671 383 694 338 q 661 422 663 403 q 660 439 661 432 q 617 500 653 479 q 567 513 600 508 l 565 513 l 565 513 l 564 513 l 474 513 l 446 513 l 410 513 l 410 513 l 408 513 l 403 513 l 403 513 l 403 513 q 343 544 365 514 q 332 565 333 556 q 326 589 331 575 q 292 615 318 615 q 260 596 269 615 q 255 552 256 588 q 254 508 254 517 l 254 407 q 253 360 254 382 q 238 315 253 338 q 156 272 207 272 q 67 328 92 272 q 56 370 56 349 q 57 415 57 392 l 57 419 l 57 658 l 57 690 l 57 890 l 57 892 q 56 928 56 911 q 69 964 57 946 q 131 1010 89 1000 l 131 1010 l 132 1011 q 138 1012 135 1011 q 143 1013 140 1013 l 144 1013 l 144 1013 q 160 1013 153 1013 q 176 1017 167 1014 q 247 1071 224 1025 q 244 1158 267 1111 q 193 1210 228 1193 q 164 1217 176 1217 q 135 1221 151 1217 l 135 1221 q 130 1222 132 1221 q 128 1222 128 1222 q 56 1317 56 1243 q 84 1385 56 1356 q 154 1414 113 1414 q 240 1360 211 1414 q 251 1314 249 1343 q 252 1305 251 1310 q 253 1294 253 1300 q 304 1224 261 1246 q 364 1208 328 1210 l 365 1208 l 365 1208 l 367 1208 l 571 1208 l 604 1208 l 778 1208 l 778 1208 l 779 1208 l 785 1208 l 786 1208 l 786 1208 q 851 1176 824 1204 q 878 1110 878 1147 q 876 1101 878 1104 q 877 1094 876 1097 q 879 1086 878 1090 q 931 1014 885 1036 q 951 1006 933 1011 q 988 999 972 1000 q 1025 989 1004 999 q 1076 910 1069 960 l 1076 910 l 1076 908 l 1076 903 l 1076 901 l 1076 900 l 1076 733 l 1076 700 l 1076 100 l 1076 100 l 1076 99 l 1076 93 l 1076 92 l 1076 92 q 1044 26 1072 53 q 976 0 1015 0 q 909 26 938 0 q 878 92 881 53 l 878 92 l 878 93 l 878 97 l 878 100 l 878 101 l 878 700 l 878 733 l 878 863 q 878 903 878 881 q 872 944 879 925 q 828 996 860 976 q 776 1010 804 1008 q 722 1011 747 1011 l 604 1011 l 571 1011 l 367 1011 l 365 1011 l 364 1011 l 358 1011 l 358 1011 l 358 1011 q 357 1011 357 1011 q 357 1011 357 1011 l 357 1011 l 357 1011 q 353 1011 354 1011 q 351 1011 351 1011 q 260 953 288 1011 q 253 906 251 935 q 254 856 254 876 l 254 778 q 294 683 253 686 q 403 679 336 679 m 578 1686 q 675 1644 635 1686 q 715 1549 715 1603 q 669 1447 715 1485 q 610 1418 647 1424 q 585 1413 597 1414 q 560 1411 572 1413 q 526 1400 539 1408 q 488 1389 510 1389 q 417 1458 417 1389 q 428 1497 417 1481 q 443 1542 435 1508 q 447 1581 443 1561 q 468 1628 450 1607 q 578 1686 507 1686 z "},"É":{"ha":1260,"x_min":56,"x_max":1204,"o":"m 247 1157 q 194 1208 232 1192 q 165 1217 178 1217 q 135 1221 151 1217 l 135 1221 q 131 1222 133 1221 q 128 1222 129 1222 q 56 1318 56 1243 q 84 1388 56 1358 q 154 1417 113 1417 q 243 1363 214 1417 q 254 1315 251 1340 q 256 1296 254 1303 q 308 1222 264 1246 q 369 1208 331 1210 l 369 1208 l 369 1208 l 371 1208 l 393 1208 l 426 1208 l 621 1208 l 622 1208 l 624 1208 l 629 1208 l 631 1208 l 631 1208 q 695 1176 668 1204 q 722 1108 722 1147 q 695 1038 722 1067 q 631 1007 668 1010 l 631 1007 l 629 1007 l 624 1007 l 622 1007 l 621 1007 l 426 1007 l 393 1007 l 372 1007 l 369 1007 l 368 1007 l 363 1007 l 363 1007 l 363 1007 q 361 1007 361 1007 q 361 1007 361 1007 l 361 1007 l 361 1007 q 358 1007 360 1007 q 356 1007 356 1007 q 272 964 301 1007 q 253 880 249 931 q 257 792 257 829 l 257 665 l 257 632 l 257 669 l 257 561 q 256 515 257 540 q 264 471 256 490 q 292 432 272 450 q 355 408 321 406 q 425 411 389 411 q 617 410 521 411 q 811 410 714 410 q 859 409 835 410 q 908 404 883 408 q 989 346 967 390 q 1001 303 999 325 q 1013 260 1003 281 q 1064 208 1026 224 q 1094 200 1081 200 q 1124 196 1107 200 l 1124 196 q 1127 195 1125 196 q 1132 194 1129 194 q 1204 99 1204 172 q 1175 28 1204 57 q 1106 0 1146 0 q 1017 54 1044 0 q 1006 101 1007 71 q 1005 110 1006 106 q 1004 121 1004 115 q 951 194 994 169 q 890 208 925 206 l 890 208 l 889 208 l 889 208 q 701 208 794 208 q 517 208 608 208 l 517 210 l 392 210 l 392 210 l 390 210 l 385 210 l 383 210 l 383 210 q 383 210 383 210 q 382 210 382 210 q 332 212 354 210 q 289 233 310 214 q 258 285 264 256 l 258 285 l 257 286 q 256 292 257 289 q 256 299 256 294 l 256 299 l 256 299 q 253 315 254 307 q 251 331 253 322 q 196 403 242 381 q 165 411 179 410 q 135 418 150 413 q 94 441 115 424 q 61 493 72 458 q 56 530 56 513 q 56 568 56 547 l 56 604 l 56 604 l 56 606 l 56 611 l 56 613 l 56 614 l 56 632 l 56 665 l 56 886 l 56 886 l 56 918 q 56 924 56 921 q 57 931 57 926 q 131 1007 69 990 l 132 1007 l 133 1007 q 144 1008 138 1008 l 144 1008 l 146 1008 q 160 1009 153 1008 q 178 1013 168 1010 q 250 1069 228 1022 q 247 1157 269 1110 m 403 608 l 403 608 q 322 696 322 615 q 403 782 322 776 l 403 782 l 403 782 l 408 782 l 410 782 l 410 782 q 508 781 469 782 q 593 781 547 781 q 651 781 626 781 q 699 753 676 782 q 731 708 715 731 q 793 686 747 686 q 817 658 813 681 q 772 610 817 611 l 772 608 l 771 608 l 769 608 l 768 608 l 767 608 q 588 608 665 608 q 411 608 511 608 l 410 608 l 408 608 l 403 608 l 403 608 m 811 853 q 875 789 875 853 q 811 724 875 724 q 746 789 746 724 q 811 853 746 853 m 596 1508 q 579 1497 585 1504 q 572 1472 571 1485 q 550 1403 588 1428 q 469 1418 503 1369 q 485 1500 436 1468 q 485 1500 485 1500 q 485 1500 485 1500 q 494 1505 490 1504 q 504 1508 497 1506 q 525 1536 521 1518 q 524 1561 528 1554 q 531 1589 519 1568 q 538 1601 533 1594 q 544 1614 542 1608 l 622 1783 q 650 1815 633 1811 q 727 1795 676 1824 q 786 1733 778 1767 q 782 1707 789 1715 q 764 1686 775 1699 l 647 1554 q 640 1546 644 1553 q 631 1533 635 1539 q 596 1508 611 1511 z "},"Ñ":{"ha":1194,"x_min":56,"x_max":1139,"o":"m 863 1472 q 807 1428 842 1440 q 768 1417 789 1418 l 768 1417 l 767 1417 l 761 1417 l 760 1417 l 758 1417 l 578 1417 l 544 1417 l 406 1417 q 374 1417 389 1417 q 342 1415 358 1417 l 340 1415 q 268 1356 289 1404 q 260 1326 260 1339 q 256 1296 260 1313 l 256 1296 q 254 1289 256 1292 q 160 1217 235 1217 q 89 1245 118 1217 q 60 1315 60 1274 q 115 1403 60 1376 q 146 1412 132 1411 q 179 1417 160 1413 q 251 1468 228 1425 q 260 1490 257 1478 q 265 1528 265 1511 q 278 1565 265 1544 q 331 1610 294 1596 q 362 1617 347 1617 q 396 1617 376 1617 l 544 1617 l 578 1617 q 669 1619 624 1617 q 764 1621 714 1621 q 826 1603 803 1619 q 863 1569 850 1588 q 863 1472 894 1522 m 832 317 q 851 277 842 296 q 890 258 861 258 q 935 290 932 258 q 938 346 938 321 l 938 863 l 938 896 l 938 1310 l 938 1311 l 938 1314 l 938 1318 l 938 1319 l 939 1319 q 970 1385 942 1357 q 1039 1413 999 1413 q 1106 1385 1078 1413 q 1139 1319 1135 1357 l 1139 1319 l 1139 1318 l 1139 1313 l 1139 1311 l 1139 1311 l 1139 896 l 1139 863 l 1139 336 q 1139 301 1139 317 q 1132 269 1139 286 q 1088 218 1119 236 q 1050 206 1067 206 q 1013 200 1033 206 q 990 192 993 193 q 939 118 944 165 q 934 85 935 100 q 925 54 933 71 q 838 0 900 1 q 778 19 803 0 q 747 53 757 35 q 728 94 738 72 l 315 925 l 315 925 q 288 942 306 942 q 256 910 256 942 q 256 908 256 908 q 256 907 256 907 q 256 833 253 872 q 260 758 260 794 l 260 447 q 260 384 260 414 q 240 326 260 354 q 158 286 208 286 q 69 339 96 286 q 56 386 56 363 q 57 436 57 410 l 57 764 q 56 844 57 804 q 60 925 56 883 q 133 1001 74 988 l 133 1001 l 136 1003 q 140 1003 138 1003 q 147 1004 143 1004 l 147 1004 l 147 1004 q 163 1005 156 1004 q 179 1008 171 1006 q 253 1064 229 1017 q 250 1153 271 1101 q 197 1204 231 1189 q 167 1211 181 1211 q 138 1215 154 1211 l 138 1217 q 131 1218 132 1217 q 58 1313 58 1236 q 87 1383 58 1354 q 157 1411 115 1411 q 244 1357 219 1411 q 257 1311 254 1338 q 258 1292 257 1299 q 275 1250 263 1268 q 303 1224 292 1225 q 340 1217 315 1222 q 378 1199 365 1211 q 390 1188 390 1188 l 390 1188 q 411 1161 400 1178 l 411 1161 l 413 1160 l 832 317 z "},"Ö":{"ha":1124,"x_min":56,"x_max":1068,"o":"m 250 1150 q 197 1201 231 1186 q 167 1208 181 1208 q 138 1213 154 1208 l 138 1213 q 133 1213 135 1213 q 131 1215 132 1214 q 58 1310 58 1233 q 87 1380 58 1351 q 157 1408 115 1408 q 244 1354 218 1408 q 257 1308 254 1335 q 258 1288 257 1296 q 311 1215 267 1236 q 352 1201 331 1203 q 396 1200 374 1200 l 429 1200 l 540 1200 l 547 1200 l 547 1200 l 549 1200 l 575 1200 l 576 1200 l 578 1200 l 583 1200 l 585 1200 l 694 1200 l 728 1200 l 733 1200 q 806 1174 765 1196 q 864 1088 847 1153 l 864 1088 q 872 1061 865 1075 q 944 1004 893 1014 q 960 1002 953 1003 q 976 1001 968 1001 l 976 1001 l 978 1001 q 989 999 972 1004 l 990 999 l 990 999 q 1064 922 1051 985 q 1067 876 1068 901 q 1067 831 1067 851 l 1067 797 l 1067 474 l 1067 406 l 1067 403 l 1067 396 l 1065 396 l 1065 360 q 1067 336 1065 343 l 1067 329 q 1065 308 1065 318 q 1060 285 1064 297 q 1027 233 1049 250 q 988 210 1006 215 q 956 203 971 204 q 926 196 942 203 q 869 124 879 174 q 867 106 868 114 q 867 92 867 99 l 867 90 l 867 90 q 864 79 861 74 l 864 76 l 864 76 q 833 25 857 46 q 774 3 810 4 q 715 1 744 0 q 658 1 686 1 l 656 1 l 606 1 l 572 1 l 551 1 l 518 1 l 468 1 l 465 1 q 407 1 436 1 q 350 3 378 0 q 292 25 314 4 q 260 76 268 46 l 260 76 l 260 79 q 258 90 258 82 l 258 90 l 258 92 q 256 106 257 99 q 254 124 256 114 q 197 196 243 174 q 167 203 182 203 q 138 210 153 204 q 95 233 117 215 q 64 285 74 250 q 58 322 57 304 q 58 360 58 339 l 58 396 l 58 396 l 58 397 l 58 403 l 58 404 l 58 483 l 58 797 l 58 831 q 57 876 58 851 q 60 922 56 901 q 133 999 74 985 l 133 999 l 135 999 q 140 999 138 999 q 147 1001 143 1000 l 147 1001 l 147 1001 q 163 1002 156 1001 q 179 1004 171 1003 q 251 1061 231 1015 q 250 1150 271 1097 m 585 999 l 583 999 l 578 999 l 576 999 l 575 999 l 550 999 l 547 999 l 546 999 l 540 999 l 540 999 l 429 999 l 396 999 l 374 999 l 372 999 l 371 999 l 365 999 l 364 999 l 364 1000 q 364 1000 364 1000 q 364 1000 364 1000 l 364 999 l 364 999 q 358 1000 361 1000 q 281 964 311 1000 q 265 940 271 951 q 256 885 253 913 q 260 831 260 858 l 260 797 l 260 463 l 260 463 l 260 353 q 259 307 260 332 q 267 264 258 282 q 294 228 272 246 q 358 202 324 201 q 428 203 392 203 l 551 203 l 572 203 l 696 203 q 765 202 731 203 q 829 228 799 201 q 857 264 850 246 q 865 307 865 282 q 864 353 864 332 l 864 463 l 865 463 l 865 797 l 865 831 q 868 885 865 858 q 858 940 871 913 q 843 964 850 957 q 767 1000 813 1000 q 761 999 763 1000 l 761 999 l 761 1000 q 760 1000 761 1000 q 760 1000 760 1000 l 760 999 l 758 999 l 753 999 l 751 999 l 750 999 l 728 999 l 694 999 l 585 999 m 450 1575 q 503 1552 481 1575 q 526 1499 526 1529 q 501 1442 526 1464 q 468 1426 489 1429 q 453 1424 461 1424 q 440 1422 446 1424 q 421 1415 428 1421 q 399 1410 411 1410 q 360 1449 360 1410 q 365 1469 360 1461 q 374 1494 369 1476 q 376 1517 374 1506 q 389 1543 378 1531 q 450 1575 410 1575 m 728 1575 q 782 1552 760 1575 q 804 1499 804 1529 q 779 1442 804 1464 q 746 1426 767 1429 q 732 1424 739 1424 q 718 1422 725 1424 q 699 1415 707 1421 q 678 1410 690 1410 q 638 1449 638 1410 q 644 1469 638 1461 q 653 1494 649 1476 q 656 1517 653 1506 q 667 1543 657 1531 q 728 1575 689 1575 z "},"Ü":{"ha":1135,"x_min":56,"x_max":1079,"o":"m 461 1644 q 515 1622 492 1644 q 538 1568 538 1599 q 513 1511 538 1533 q 479 1496 500 1499 q 465 1493 472 1493 q 451 1492 457 1493 q 432 1485 439 1490 q 410 1479 422 1479 q 371 1518 371 1479 q 376 1539 371 1531 q 385 1564 381 1546 q 388 1586 385 1575 q 400 1613 389 1600 q 461 1644 421 1644 m 739 1644 q 793 1622 771 1644 q 815 1568 815 1599 q 790 1511 815 1533 q 757 1496 778 1499 q 743 1493 750 1493 q 729 1492 736 1493 q 710 1485 718 1490 q 689 1479 701 1479 q 649 1518 649 1479 q 656 1539 649 1531 q 664 1564 660 1546 q 667 1586 664 1575 q 678 1613 668 1600 q 739 1644 700 1644 m 56 911 l 56 1090 q 56 1123 56 1107 q 64 1156 56 1139 q 108 1208 75 1189 q 145 1219 128 1219 q 183 1226 163 1219 q 204 1235 196 1228 q 257 1308 247 1256 q 260 1340 260 1325 q 269 1372 261 1354 q 358 1426 297 1426 q 428 1397 399 1426 q 457 1326 457 1368 q 385 1232 457 1250 q 378 1231 382 1231 l 378 1231 q 348 1226 361 1226 q 318 1218 335 1225 q 258 1146 268 1197 l 258 1144 q 256 1112 256 1128 q 257 1081 257 1096 l 257 911 l 257 878 l 257 718 l 257 718 l 257 668 l 257 635 l 257 465 l 258 465 l 258 356 q 258 310 258 335 q 265 267 257 285 q 293 228 274 242 q 356 203 322 201 q 425 206 390 206 l 690 206 q 755 202 721 206 q 818 213 789 199 q 878 304 878 238 q 877 307 878 306 q 876 310 876 308 l 876 310 l 878 310 q 878 310 878 310 q 878 311 878 311 l 876 311 l 876 313 l 876 317 l 876 319 l 876 321 l 876 465 l 876 465 l 876 1038 l 876 1050 l 878 1050 q 978 1138 889 1138 q 1078 1050 1065 1138 l 1079 1050 l 1079 1038 l 1079 358 q 1078 317 1079 338 q 1068 275 1076 296 q 1036 232 1056 246 q 1000 214 1017 218 q 969 207 983 208 q 939 199 954 206 q 882 126 892 176 q 880 110 881 117 q 879 94 879 103 l 879 93 l 879 93 q 877 87 878 89 q 876 82 876 85 l 876 81 l 876 81 q 800 7 863 18 q 793 5 796 6 q 788 4 790 4 l 775 4 l 775 4 l 724 4 l 690 4 q 517 1 606 4 q 346 6 429 -3 q 289 29 314 7 q 258 81 267 46 l 258 81 l 258 82 q 256 87 257 85 q 256 93 256 89 l 256 93 l 256 94 q 253 110 254 103 q 253 126 253 117 q 196 199 242 176 q 165 207 179 206 q 135 214 151 208 q 94 236 115 219 q 63 289 72 253 q 56 326 56 308 q 57 364 57 343 l 57 400 l 56 400 l 56 400 l 56 407 l 56 407 l 56 408 l 56 454 l 56 454 l 56 456 l 56 461 l 56 463 l 56 463 l 56 878 l 56 911 z "},"á":{"ha":968,"x_min":56,"x_max":913,"o":"m 731 22 l 729 21 l 728 19 l 726 19 l 724 18 l 722 17 l 721 15 l 719 14 l 718 14 l 717 13 l 714 11 l 711 10 l 710 8 l 707 8 l 706 7 l 703 6 l 700 6 l 699 4 l 696 4 l 694 3 l 692 3 l 689 3 l 688 1 l 685 1 l 683 1 l 681 1 l 679 1 l 676 0 l 675 0 l 672 0 l 671 0 l 668 0 l 667 0 l 664 0 l 663 0 l 660 0 l 658 0 l 656 0 l 654 0 l 651 0 l 650 0 l 647 0 l 319 0 l 318 0 l 317 0 l 315 0 l 313 0 l 311 0 l 310 0 l 308 0 l 306 1 l 304 1 l 303 1 l 301 1 l 300 1 l 299 1 l 296 1 l 294 3 l 293 3 l 292 3 l 289 3 l 288 4 l 286 4 l 285 6 l 283 6 l 281 6 l 279 7 l 278 7 l 276 8 l 274 10 l 272 10 l 271 11 l 268 11 l 267 13 l 265 14 l 264 15 l 261 17 l 260 17 l 258 18 l 257 19 l 256 21 l 254 22 l 253 24 l 251 25 l 250 26 l 249 28 l 247 29 l 246 31 l 244 32 l 243 33 l 242 36 l 240 38 l 239 39 l 239 40 l 238 42 l 236 44 l 235 46 l 233 47 l 233 50 l 232 51 l 232 53 l 231 56 l 229 57 l 229 58 l 228 61 l 228 63 l 228 64 l 226 67 l 226 67 l 226 68 l 226 69 l 225 71 l 225 72 l 225 74 l 225 75 l 225 76 l 225 78 l 224 79 l 224 81 l 224 82 l 224 82 l 224 83 l 224 85 l 224 86 l 224 88 l 224 89 l 222 89 l 222 90 l 222 92 l 222 93 l 222 94 l 222 94 l 222 96 l 222 97 l 221 97 l 221 99 l 221 100 l 221 100 l 221 101 l 219 104 l 218 107 l 218 108 l 217 111 l 215 114 l 214 115 l 213 118 l 211 121 l 210 122 l 208 125 l 207 126 l 206 128 l 204 131 l 203 132 l 200 133 l 199 136 l 197 138 l 194 139 l 193 140 l 190 143 l 189 144 l 186 146 l 185 147 l 182 147 l 179 149 l 178 150 l 175 151 l 172 153 l 171 153 l 168 154 l 165 154 l 163 156 l 161 156 l 161 156 l 160 156 l 158 156 l 157 157 l 156 157 l 156 157 l 154 157 l 153 157 l 151 157 l 150 157 l 150 157 l 149 157 l 147 158 l 146 158 l 144 158 l 143 158 l 142 158 l 140 158 l 140 158 l 139 158 l 138 158 l 136 158 l 135 158 l 133 160 l 132 160 l 131 160 l 129 160 l 128 160 l 126 160 l 125 161 l 124 161 l 119 163 l 117 163 l 113 164 l 110 165 l 106 167 l 103 169 l 100 171 l 96 172 l 93 175 l 90 176 l 88 179 l 85 182 l 82 183 l 81 186 l 78 189 l 75 192 l 74 194 l 71 197 l 69 200 l 67 204 l 65 207 l 64 211 l 63 214 l 61 217 l 60 221 l 60 224 l 58 228 l 57 232 l 57 235 l 57 239 l 56 243 l 56 247 l 56 247 l 56 249 l 56 250 l 56 251 l 57 253 l 57 254 l 57 256 l 57 256 l 57 318 l 57 319 l 56 322 l 56 324 l 56 326 l 56 328 l 56 331 l 56 332 l 56 335 l 56 336 l 56 339 l 56 340 l 57 343 l 57 344 l 57 346 l 57 349 l 57 350 l 58 353 l 58 354 l 58 356 l 58 358 l 60 360 l 60 361 l 60 364 l 61 365 l 61 367 l 63 369 l 63 371 l 63 372 l 64 375 l 65 376 l 65 378 l 67 381 l 67 382 l 68 383 l 69 386 l 71 388 l 72 389 l 72 390 l 74 393 l 75 394 l 76 396 l 78 397 l 79 399 l 81 400 l 82 401 l 83 403 l 85 404 l 86 406 l 88 407 l 89 408 l 90 410 l 93 411 l 94 413 l 96 414 l 97 414 l 99 415 l 101 417 l 103 417 l 104 418 l 106 419 l 108 421 l 110 421 l 113 422 l 114 422 l 115 424 l 118 424 l 119 425 l 122 425 l 124 425 l 125 426 l 126 426 l 129 426 l 131 426 l 132 428 l 133 428 l 136 428 l 138 428 l 139 428 l 140 428 l 142 428 l 144 428 l 146 428 l 147 428 l 149 429 l 150 429 l 151 429 l 153 429 l 154 429 l 156 429 l 157 429 l 158 429 l 160 429 l 161 431 l 163 431 l 164 431 l 165 431 l 168 432 l 171 432 l 172 433 l 175 433 l 178 435 l 181 436 l 182 438 l 185 438 l 186 439 l 189 440 l 190 442 l 193 443 l 194 444 l 197 446 l 199 449 l 200 450 l 203 451 l 204 453 l 206 456 l 207 457 l 208 458 l 211 461 l 211 463 l 213 465 l 214 467 l 215 469 l 217 472 l 218 474 l 218 476 l 219 479 l 221 481 l 221 483 l 222 485 l 222 486 l 222 488 l 222 489 l 222 489 l 222 490 l 224 492 l 224 493 l 224 494 l 224 496 l 224 497 l 224 499 l 224 500 l 225 501 l 225 503 l 225 504 l 225 506 l 225 507 l 225 508 l 226 510 l 226 511 l 226 513 l 226 514 l 226 515 l 228 517 l 228 518 l 228 521 l 229 522 l 229 524 l 231 525 l 231 526 l 232 528 l 232 531 l 233 532 l 233 533 l 235 535 l 236 536 l 236 538 l 238 539 l 239 542 l 240 543 l 240 544 l 242 546 l 243 547 l 244 549 l 246 550 l 247 551 l 249 553 l 250 554 l 250 556 l 251 557 l 253 558 l 256 558 l 256 560 l 257 561 l 260 563 l 261 564 l 263 564 l 264 565 l 265 567 l 267 567 l 268 568 l 271 569 l 272 569 l 274 571 l 276 572 l 279 574 l 281 574 l 283 575 l 285 575 l 288 576 l 290 576 l 292 578 l 294 578 l 296 578 l 299 578 l 301 579 l 303 579 l 306 579 l 307 579 l 310 579 l 311 579 l 314 579 l 315 579 l 318 579 l 319 579 l 322 579 l 324 579 l 326 579 l 328 579 l 331 579 l 332 579 l 335 579 l 336 579 l 339 579 l 340 579 l 735 579 l 735 735 l 735 736 l 735 738 l 735 739 l 735 740 l 735 743 l 733 744 l 733 746 l 733 747 l 733 749 l 732 750 l 732 751 l 732 754 l 731 756 l 731 757 l 729 758 l 729 760 l 728 763 l 726 764 l 725 767 l 725 768 l 724 771 l 722 772 l 721 774 l 718 776 l 717 778 l 715 779 l 714 781 l 713 782 l 710 783 l 708 786 l 707 788 l 704 789 l 703 789 l 700 790 l 699 792 l 696 793 l 694 794 l 692 794 l 689 796 l 688 796 l 685 797 l 682 797 l 681 799 l 678 799 l 675 799 l 672 799 l 669 799 l 667 799 l 667 799 l 667 799 l 667 799 l 665 799 l 665 799 l 665 799 l 664 799 l 664 799 l 561 799 l 561 799 l 363 799 l 361 799 l 360 799 l 358 799 l 357 799 l 356 799 l 354 799 l 353 799 l 351 799 l 350 799 l 350 799 l 349 799 l 347 799 l 346 799 l 344 799 l 343 799 l 342 799 l 340 799 l 339 799 l 338 799 l 336 799 l 335 799 l 335 799 l 333 799 l 331 800 l 328 800 l 326 800 l 325 800 l 324 800 l 322 800 l 322 800 l 321 800 l 319 800 l 318 800 l 317 800 l 315 800 l 314 800 l 313 799 l 311 799 l 311 800 l 310 800 l 308 800 l 307 800 l 306 800 l 304 800 l 303 800 l 301 800 l 300 800 l 299 800 l 297 800 l 296 800 l 294 800 l 294 800 l 293 800 l 292 801 l 290 801 l 289 801 l 288 801 l 286 801 l 285 803 l 283 803 l 282 803 l 278 804 l 276 806 l 272 806 l 271 807 l 268 808 l 265 810 l 263 811 l 260 813 l 257 815 l 256 817 l 253 818 l 250 819 l 249 822 l 246 824 l 244 826 l 242 828 l 240 831 l 239 832 l 236 835 l 235 838 l 233 839 l 232 842 l 231 844 l 229 847 l 228 850 l 226 853 l 225 856 l 225 858 l 224 861 l 222 864 l 222 867 l 221 869 l 221 871 l 221 874 l 221 875 l 219 876 l 219 879 l 219 881 l 219 882 l 219 883 l 219 885 l 219 888 l 219 889 l 219 890 l 219 892 l 219 893 l 218 894 l 218 896 l 218 899 l 218 901 l 217 903 l 217 906 l 215 908 l 215 911 l 214 914 l 213 915 l 211 918 l 211 921 l 210 922 l 208 925 l 207 928 l 206 929 l 204 931 l 201 933 l 200 935 l 199 938 l 197 939 l 194 940 l 193 943 l 190 944 l 189 946 l 186 947 l 185 949 l 182 950 l 181 951 l 178 953 l 175 953 l 174 954 l 171 956 l 168 956 l 167 957 l 165 957 l 164 957 l 163 958 l 161 958 l 160 958 l 158 958 l 157 960 l 156 960 l 154 960 l 153 960 l 151 960 l 150 961 l 149 961 l 146 961 l 144 961 l 143 961 l 142 961 l 140 961 l 139 961 l 138 963 l 135 963 l 133 963 l 132 963 l 131 963 l 129 964 l 126 964 l 125 964 l 124 965 l 122 965 l 119 965 l 118 967 l 115 967 l 111 968 l 108 969 l 106 972 l 101 974 l 99 975 l 96 976 l 93 979 l 90 981 l 88 983 l 86 985 l 83 988 l 81 990 l 78 992 l 76 994 l 74 997 l 72 1000 l 71 1003 l 68 1006 l 67 1010 l 65 1013 l 64 1015 l 63 1018 l 61 1022 l 60 1025 l 60 1029 l 58 1032 l 58 1036 l 57 1039 l 57 1043 l 57 1046 l 57 1050 l 57 1054 l 57 1058 l 58 1064 l 58 1068 l 60 1072 l 61 1076 l 63 1081 l 64 1085 l 65 1088 l 67 1092 l 69 1096 l 72 1099 l 74 1103 l 76 1106 l 79 1110 l 82 1113 l 86 1115 l 89 1118 l 92 1121 l 96 1122 l 99 1125 l 103 1128 l 107 1129 l 111 1131 l 114 1132 l 118 1133 l 122 1135 l 126 1136 l 132 1138 l 136 1138 l 140 1138 l 144 1138 l 149 1138 l 153 1138 l 156 1138 l 160 1136 l 164 1136 l 167 1135 l 171 1133 l 175 1133 l 178 1132 l 182 1129 l 185 1128 l 188 1126 l 192 1125 l 194 1122 l 197 1121 l 200 1118 l 203 1115 l 206 1114 l 208 1111 l 211 1108 l 213 1106 l 215 1103 l 217 1100 l 219 1096 l 221 1093 l 222 1090 l 225 1086 l 226 1083 l 228 1079 l 228 1076 l 229 1072 l 231 1069 l 231 1067 l 232 1065 l 232 1063 l 232 1061 l 232 1058 l 232 1057 l 233 1056 l 233 1053 l 233 1051 l 233 1050 l 233 1049 l 233 1047 l 233 1044 l 233 1043 l 233 1042 l 235 1040 l 235 1038 l 235 1035 l 236 1032 l 236 1031 l 238 1028 l 239 1025 l 239 1024 l 240 1021 l 242 1018 l 242 1017 l 243 1014 l 244 1013 l 246 1010 l 247 1008 l 249 1006 l 250 1004 l 251 1001 l 254 1000 l 256 999 l 257 997 l 260 994 l 261 993 l 263 992 l 265 990 l 267 989 l 269 988 l 271 986 l 274 985 l 275 985 l 278 983 l 281 982 l 282 981 l 285 981 l 286 979 l 288 979 l 289 979 l 292 978 l 293 978 l 294 978 l 296 978 l 297 976 l 299 976 l 300 976 l 303 976 l 304 976 l 306 975 l 307 975 l 308 975 l 311 975 l 314 975 l 317 975 l 319 975 l 321 975 l 324 975 l 326 975 l 329 975 l 332 975 l 335 975 l 338 975 l 340 975 l 343 975 l 346 975 l 349 975 l 351 975 l 354 975 l 357 975 l 360 975 l 363 975 l 365 975 l 368 975 l 371 975 l 374 975 l 376 975 l 379 975 l 382 975 l 385 975 l 388 975 l 390 975 l 393 975 l 396 975 l 510 975 l 510 976 l 593 976 l 593 975 l 594 975 l 597 976 l 600 976 l 604 976 l 607 976 l 611 976 l 614 976 l 617 975 l 621 975 l 624 975 l 628 975 l 631 975 l 633 975 l 638 975 l 640 974 l 643 974 l 647 974 l 650 972 l 654 972 l 657 972 l 661 971 l 664 969 l 667 969 l 671 968 l 674 967 l 678 965 l 681 964 l 685 963 l 688 961 l 690 960 l 693 958 l 696 957 l 697 956 l 700 954 l 703 953 l 706 951 l 707 949 l 710 947 l 713 946 l 715 943 l 717 942 l 719 939 l 722 938 l 724 935 l 726 932 l 729 931 l 731 928 l 733 925 l 735 922 l 738 919 l 739 917 l 740 913 l 743 910 l 744 907 l 746 903 l 749 900 l 750 896 l 751 893 l 753 889 l 754 885 l 754 882 l 756 881 l 756 878 l 756 875 l 757 872 l 757 871 l 758 868 l 760 865 l 761 864 l 761 861 l 763 858 l 764 857 l 765 854 l 767 853 l 768 850 l 769 849 l 772 847 l 774 844 l 775 843 l 778 842 l 779 840 l 781 839 l 783 838 l 785 836 l 788 835 l 789 833 l 792 832 l 794 831 l 796 831 l 799 829 l 801 828 l 803 828 l 806 828 l 808 826 l 810 826 l 811 826 l 813 826 l 814 825 l 815 825 l 817 825 l 818 825 l 819 825 l 822 825 l 822 825 l 825 825 l 826 825 l 828 824 l 829 824 l 831 824 l 832 824 l 833 824 l 833 824 l 835 824 l 836 824 l 836 824 l 838 822 l 839 822 l 840 822 l 842 822 l 843 822 l 844 822 l 844 822 l 849 821 l 851 819 l 854 819 l 857 818 l 860 817 l 863 815 l 865 814 l 868 813 l 871 811 l 874 810 l 876 807 l 878 806 l 881 803 l 883 801 l 886 800 l 888 797 l 890 794 l 892 793 l 894 790 l 896 788 l 897 785 l 899 782 l 900 779 l 903 778 l 904 774 l 906 772 l 906 768 l 907 765 l 908 763 l 910 760 l 910 757 l 911 753 l 911 751 l 911 750 l 911 749 l 911 747 l 913 746 l 913 744 l 913 743 l 913 742 l 911 696 l 911 294 l 911 292 l 913 290 l 913 288 l 913 285 l 913 283 l 913 281 l 913 278 l 913 276 l 913 274 l 913 271 l 913 268 l 913 265 l 913 264 l 913 261 l 913 258 l 913 256 l 913 253 l 911 251 l 911 249 l 911 246 l 911 243 l 911 240 l 910 238 l 910 235 l 908 233 l 908 231 l 907 228 l 906 225 l 906 222 l 904 219 l 903 217 l 901 215 l 901 213 l 900 211 l 899 210 l 899 208 l 897 207 l 896 206 l 894 204 l 894 203 l 893 201 l 892 200 l 890 199 l 889 197 l 889 196 l 888 194 l 886 193 l 885 192 l 883 190 l 882 189 l 881 188 l 879 188 l 878 186 l 876 185 l 875 183 l 874 183 l 872 182 l 869 181 l 868 179 l 867 179 l 865 178 l 864 178 l 863 176 l 861 175 l 858 175 l 857 174 l 856 174 l 854 172 l 853 172 l 851 172 l 849 172 l 847 171 l 846 171 l 844 171 l 843 171 l 842 169 l 840 169 l 839 169 l 838 169 l 836 169 l 835 168 l 833 168 l 832 168 l 829 168 l 828 168 l 826 168 l 825 167 l 824 167 l 822 167 l 822 167 l 821 167 l 819 167 l 818 167 l 817 165 l 815 165 l 814 165 l 811 164 l 808 163 l 806 163 l 804 161 l 801 160 l 800 158 l 797 157 l 794 156 l 793 154 l 792 153 l 789 151 l 788 150 l 785 149 l 783 146 l 782 144 l 781 143 l 778 140 l 776 139 l 775 138 l 774 135 l 772 133 l 771 131 l 771 129 l 769 126 l 768 124 l 767 122 l 767 119 l 765 117 l 764 115 l 764 113 l 763 110 l 763 108 l 763 107 l 763 106 l 761 104 l 761 103 l 761 101 l 761 100 l 761 99 l 761 97 l 761 96 l 761 94 l 761 93 l 761 90 l 761 89 l 760 88 l 760 86 l 760 85 l 760 83 l 760 82 l 760 79 l 760 78 l 760 76 l 758 75 l 758 72 l 758 71 l 758 69 l 757 67 l 757 65 l 757 64 l 756 61 l 756 60 l 754 58 l 754 56 l 753 54 l 753 53 l 751 51 l 750 49 l 750 47 l 749 46 l 749 44 l 747 43 l 746 40 l 744 39 l 744 38 l 743 36 l 742 35 l 740 33 l 739 32 l 739 31 l 738 29 l 736 28 l 735 26 l 733 25 l 732 24 l 731 22 m 735 244 l 735 246 l 735 247 l 735 249 l 735 250 l 735 250 l 735 251 l 735 253 l 735 254 l 735 256 l 735 257 l 735 258 l 735 260 l 735 261 l 736 263 l 736 264 l 736 265 l 736 267 l 735 269 l 735 271 l 735 272 l 735 274 l 735 275 l 735 276 l 735 278 l 735 279 l 735 281 l 735 403 l 422 403 l 422 403 l 319 403 l 315 403 l 314 403 l 313 403 l 311 403 l 308 403 l 307 403 l 306 403 l 304 403 l 301 403 l 300 403 l 299 403 l 297 401 l 296 401 l 294 401 l 290 400 l 286 400 l 282 399 l 278 396 l 275 394 l 271 393 l 268 392 l 265 389 l 263 388 l 260 386 l 257 383 l 254 381 l 253 378 l 250 376 l 249 374 l 246 371 l 244 368 l 243 365 l 242 361 l 240 358 l 239 356 l 238 351 l 238 349 l 236 344 l 235 340 l 235 338 l 235 333 l 233 329 l 233 325 l 233 321 l 233 317 l 233 313 l 233 246 l 233 246 l 233 246 l 233 244 l 233 244 l 233 243 l 233 242 l 233 242 l 233 240 l 233 239 l 233 239 l 233 238 l 233 236 l 233 236 l 233 231 l 235 225 l 236 221 l 238 217 l 239 213 l 240 210 l 243 206 l 244 203 l 247 200 l 250 199 l 253 196 l 256 193 l 258 192 l 261 189 l 265 188 l 269 186 l 272 185 l 276 183 l 281 182 l 285 182 l 289 181 l 294 179 l 299 179 l 303 178 l 307 178 l 313 178 l 317 178 l 322 178 l 326 178 l 331 178 l 336 176 l 340 176 l 639 176 l 640 176 l 643 176 l 644 176 l 646 176 l 647 178 l 649 178 l 650 178 l 651 178 l 653 178 l 654 178 l 656 178 l 657 178 l 657 178 l 658 178 l 660 178 l 661 178 l 663 178 l 664 178 l 665 178 l 667 178 l 668 178 l 669 178 l 671 179 l 672 179 l 672 179 l 674 179 l 675 179 l 676 181 l 678 181 l 679 181 l 681 181 l 682 182 l 685 182 l 686 183 l 689 185 l 692 185 l 693 186 l 696 188 l 699 189 l 700 190 l 703 192 l 704 193 l 706 194 l 708 196 l 710 197 l 711 200 l 714 201 l 715 203 l 717 206 l 718 207 l 719 208 l 722 211 l 722 213 l 724 215 l 725 217 l 726 219 l 728 222 l 729 224 l 729 226 l 731 229 l 732 231 l 732 233 l 733 236 l 733 239 l 733 239 l 733 240 l 735 242 l 735 243 l 735 244 m 589 1244 q 572 1233 578 1240 q 565 1208 564 1221 q 543 1139 581 1164 q 463 1154 496 1106 q 478 1236 429 1204 q 478 1236 478 1236 q 478 1236 478 1236 q 487 1241 483 1240 q 497 1244 490 1242 q 518 1272 514 1254 q 517 1297 521 1290 q 524 1325 513 1304 q 531 1338 526 1331 q 538 1350 535 1344 l 615 1519 q 643 1551 626 1547 q 720 1531 669 1560 q 779 1469 771 1503 q 775 1443 782 1451 q 757 1422 768 1435 l 640 1290 q 633 1282 638 1289 q 624 1269 628 1275 q 589 1244 604 1247 z "},"à":{"ha":968,"x_min":56,"x_max":913,"o":"m 731 22 l 729 21 l 728 19 l 726 19 l 724 18 l 722 17 l 721 15 l 719 14 l 718 14 l 717 13 l 714 11 l 711 10 l 710 8 l 707 8 l 706 7 l 703 6 l 700 6 l 699 4 l 696 4 l 694 3 l 692 3 l 689 3 l 688 1 l 685 1 l 683 1 l 681 1 l 679 1 l 676 0 l 675 0 l 672 0 l 671 0 l 668 0 l 667 0 l 664 0 l 663 0 l 660 0 l 658 0 l 656 0 l 654 0 l 651 0 l 650 0 l 647 0 l 319 0 l 318 0 l 317 0 l 315 0 l 313 0 l 311 0 l 310 0 l 308 0 l 306 1 l 304 1 l 303 1 l 301 1 l 300 1 l 299 1 l 296 1 l 294 3 l 293 3 l 292 3 l 289 3 l 288 4 l 286 4 l 285 6 l 283 6 l 281 6 l 279 7 l 278 7 l 276 8 l 274 10 l 272 10 l 271 11 l 268 11 l 267 13 l 265 14 l 264 15 l 261 17 l 260 17 l 258 18 l 257 19 l 256 21 l 254 22 l 253 24 l 251 25 l 250 26 l 249 28 l 247 29 l 246 31 l 244 32 l 243 33 l 242 36 l 240 38 l 239 39 l 239 40 l 238 42 l 236 44 l 235 46 l 233 47 l 233 50 l 232 51 l 232 53 l 231 56 l 229 57 l 229 58 l 228 61 l 228 63 l 228 64 l 226 67 l 226 67 l 226 68 l 226 69 l 225 71 l 225 72 l 225 74 l 225 75 l 225 76 l 225 78 l 224 79 l 224 81 l 224 82 l 224 82 l 224 83 l 224 85 l 224 86 l 224 88 l 224 89 l 222 89 l 222 90 l 222 92 l 222 93 l 222 94 l 222 94 l 222 96 l 222 97 l 221 97 l 221 99 l 221 100 l 221 100 l 221 101 l 219 104 l 218 107 l 218 108 l 217 111 l 215 114 l 214 115 l 213 118 l 211 121 l 210 122 l 208 125 l 207 126 l 206 128 l 204 131 l 203 132 l 200 133 l 199 136 l 197 138 l 194 139 l 193 140 l 190 143 l 189 144 l 186 146 l 185 147 l 182 147 l 179 149 l 178 150 l 175 151 l 172 153 l 171 153 l 168 154 l 165 154 l 163 156 l 161 156 l 161 156 l 160 156 l 158 156 l 157 157 l 156 157 l 156 157 l 154 157 l 153 157 l 151 157 l 150 157 l 150 157 l 149 157 l 147 158 l 146 158 l 144 158 l 143 158 l 142 158 l 140 158 l 140 158 l 139 158 l 138 158 l 136 158 l 135 158 l 133 160 l 132 160 l 131 160 l 129 160 l 128 160 l 126 160 l 125 161 l 124 161 l 119 163 l 117 163 l 113 164 l 110 165 l 106 167 l 103 169 l 100 171 l 96 172 l 93 175 l 90 176 l 88 179 l 85 182 l 82 183 l 81 186 l 78 189 l 75 192 l 74 194 l 71 197 l 69 200 l 67 204 l 65 207 l 64 211 l 63 214 l 61 217 l 60 221 l 60 224 l 58 228 l 57 232 l 57 235 l 57 239 l 56 243 l 56 247 l 56 247 l 56 249 l 56 250 l 56 251 l 57 253 l 57 254 l 57 256 l 57 256 l 57 318 l 57 319 l 56 322 l 56 324 l 56 326 l 56 328 l 56 331 l 56 332 l 56 335 l 56 336 l 56 339 l 56 340 l 57 343 l 57 344 l 57 346 l 57 349 l 57 350 l 58 353 l 58 354 l 58 356 l 58 358 l 60 360 l 60 361 l 60 364 l 61 365 l 61 367 l 63 369 l 63 371 l 63 372 l 64 375 l 65 376 l 65 378 l 67 381 l 67 382 l 68 383 l 69 386 l 71 388 l 72 389 l 72 390 l 74 393 l 75 394 l 76 396 l 78 397 l 79 399 l 81 400 l 82 401 l 83 403 l 85 404 l 86 406 l 88 407 l 89 408 l 90 410 l 93 411 l 94 413 l 96 414 l 97 414 l 99 415 l 101 417 l 103 417 l 104 418 l 106 419 l 108 421 l 110 421 l 113 422 l 114 422 l 115 424 l 118 424 l 119 425 l 122 425 l 124 425 l 125 426 l 126 426 l 129 426 l 131 426 l 132 428 l 133 428 l 136 428 l 138 428 l 139 428 l 140 428 l 142 428 l 144 428 l 146 428 l 147 428 l 149 429 l 150 429 l 151 429 l 153 429 l 154 429 l 156 429 l 157 429 l 158 429 l 160 429 l 161 431 l 163 431 l 164 431 l 165 431 l 168 432 l 171 432 l 172 433 l 175 433 l 178 435 l 181 436 l 182 438 l 185 438 l 186 439 l 189 440 l 190 442 l 193 443 l 194 444 l 197 446 l 199 449 l 200 450 l 203 451 l 204 453 l 206 456 l 207 457 l 208 458 l 211 461 l 211 463 l 213 465 l 214 467 l 215 469 l 217 472 l 218 474 l 218 476 l 219 479 l 221 481 l 221 483 l 222 485 l 222 486 l 222 488 l 222 489 l 222 489 l 222 490 l 224 492 l 224 493 l 224 494 l 224 496 l 224 497 l 224 499 l 224 500 l 225 501 l 225 503 l 225 504 l 225 506 l 225 507 l 225 508 l 226 510 l 226 511 l 226 513 l 226 514 l 226 515 l 228 517 l 228 518 l 228 521 l 229 522 l 229 524 l 231 525 l 231 526 l 232 528 l 232 531 l 233 532 l 233 533 l 235 535 l 236 536 l 236 538 l 238 539 l 239 542 l 240 543 l 240 544 l 242 546 l 243 547 l 244 549 l 246 550 l 247 551 l 249 553 l 250 554 l 250 556 l 251 557 l 253 558 l 256 558 l 256 560 l 257 561 l 260 563 l 261 564 l 263 564 l 264 565 l 265 567 l 267 567 l 268 568 l 271 569 l 272 569 l 274 571 l 276 572 l 279 574 l 281 574 l 283 575 l 285 575 l 288 576 l 290 576 l 292 578 l 294 578 l 296 578 l 299 578 l 301 579 l 303 579 l 306 579 l 307 579 l 310 579 l 311 579 l 314 579 l 315 579 l 318 579 l 319 579 l 322 579 l 324 579 l 326 579 l 328 579 l 331 579 l 332 579 l 335 579 l 336 579 l 339 579 l 340 579 l 735 579 l 735 735 l 735 736 l 735 738 l 735 739 l 735 740 l 735 743 l 733 744 l 733 746 l 733 747 l 733 749 l 732 750 l 732 751 l 732 754 l 731 756 l 731 757 l 729 758 l 729 760 l 728 763 l 726 764 l 725 767 l 725 768 l 724 771 l 722 772 l 721 774 l 718 776 l 717 778 l 715 779 l 714 781 l 713 782 l 710 783 l 708 786 l 707 788 l 704 789 l 703 789 l 700 790 l 699 792 l 696 793 l 694 794 l 692 794 l 689 796 l 688 796 l 685 797 l 682 797 l 681 799 l 678 799 l 675 799 l 672 799 l 669 799 l 667 799 l 667 799 l 667 799 l 667 799 l 665 799 l 665 799 l 665 799 l 664 799 l 664 799 l 561 799 l 561 799 l 363 799 l 361 799 l 360 799 l 358 799 l 357 799 l 356 799 l 354 799 l 353 799 l 351 799 l 350 799 l 350 799 l 349 799 l 347 799 l 346 799 l 344 799 l 343 799 l 342 799 l 340 799 l 339 799 l 338 799 l 336 799 l 335 799 l 335 799 l 333 799 l 331 800 l 328 800 l 326 800 l 325 800 l 324 800 l 322 800 l 322 800 l 321 800 l 319 800 l 318 800 l 317 800 l 315 800 l 314 800 l 313 799 l 311 799 l 311 800 l 310 800 l 308 800 l 307 800 l 306 800 l 304 800 l 303 800 l 301 800 l 300 800 l 299 800 l 297 800 l 296 800 l 294 800 l 294 800 l 293 800 l 292 801 l 290 801 l 289 801 l 288 801 l 286 801 l 285 803 l 283 803 l 282 803 l 278 804 l 276 806 l 272 806 l 271 807 l 268 808 l 265 810 l 263 811 l 260 813 l 257 815 l 256 817 l 253 818 l 250 819 l 249 822 l 246 824 l 244 826 l 242 828 l 240 831 l 239 832 l 236 835 l 235 838 l 233 839 l 232 842 l 231 844 l 229 847 l 228 850 l 226 853 l 225 856 l 225 858 l 224 861 l 222 864 l 222 867 l 221 869 l 221 871 l 221 874 l 221 875 l 219 876 l 219 879 l 219 881 l 219 882 l 219 883 l 219 885 l 219 888 l 219 889 l 219 890 l 219 892 l 219 893 l 218 894 l 218 896 l 218 899 l 218 901 l 217 903 l 217 906 l 215 908 l 215 911 l 214 914 l 213 915 l 211 918 l 211 921 l 210 922 l 208 925 l 207 928 l 206 929 l 204 931 l 201 933 l 200 935 l 199 938 l 197 939 l 194 940 l 193 943 l 190 944 l 189 946 l 186 947 l 185 949 l 182 950 l 181 951 l 178 953 l 175 953 l 174 954 l 171 956 l 168 956 l 167 957 l 165 957 l 164 957 l 163 958 l 161 958 l 160 958 l 158 958 l 157 960 l 156 960 l 154 960 l 153 960 l 151 960 l 150 961 l 149 961 l 146 961 l 144 961 l 143 961 l 142 961 l 140 961 l 139 961 l 138 963 l 135 963 l 133 963 l 132 963 l 131 963 l 129 964 l 126 964 l 125 964 l 124 965 l 122 965 l 119 965 l 118 967 l 115 967 l 111 968 l 108 969 l 106 972 l 101 974 l 99 975 l 96 976 l 93 979 l 90 981 l 88 983 l 86 985 l 83 988 l 81 990 l 78 992 l 76 994 l 74 997 l 72 1000 l 71 1003 l 68 1006 l 67 1010 l 65 1013 l 64 1015 l 63 1018 l 61 1022 l 60 1025 l 60 1029 l 58 1032 l 58 1036 l 57 1039 l 57 1043 l 57 1046 l 57 1050 l 57 1054 l 57 1058 l 58 1064 l 58 1068 l 60 1072 l 61 1076 l 63 1081 l 64 1085 l 65 1088 l 67 1092 l 69 1096 l 72 1099 l 74 1103 l 76 1106 l 79 1110 l 82 1113 l 86 1115 l 89 1118 l 92 1121 l 96 1122 l 99 1125 l 103 1128 l 107 1129 l 111 1131 l 114 1132 l 118 1133 l 122 1135 l 126 1136 l 132 1138 l 136 1138 l 140 1138 l 144 1138 l 149 1138 l 153 1138 l 156 1138 l 160 1136 l 164 1136 l 167 1135 l 171 1133 l 175 1133 l 178 1132 l 182 1129 l 185 1128 l 188 1126 l 192 1125 l 194 1122 l 197 1121 l 200 1118 l 203 1115 l 206 1114 l 208 1111 l 211 1108 l 213 1106 l 215 1103 l 217 1100 l 219 1096 l 221 1093 l 222 1090 l 225 1086 l 226 1083 l 228 1079 l 228 1076 l 229 1072 l 231 1069 l 231 1067 l 232 1065 l 232 1063 l 232 1061 l 232 1058 l 232 1057 l 233 1056 l 233 1053 l 233 1051 l 233 1050 l 233 1049 l 233 1047 l 233 1044 l 233 1043 l 233 1042 l 235 1040 l 235 1038 l 235 1035 l 236 1032 l 236 1031 l 238 1028 l 239 1025 l 239 1024 l 240 1021 l 242 1018 l 242 1017 l 243 1014 l 244 1013 l 246 1010 l 247 1008 l 249 1006 l 250 1004 l 251 1001 l 254 1000 l 256 999 l 257 997 l 260 994 l 261 993 l 263 992 l 265 990 l 267 989 l 269 988 l 271 986 l 274 985 l 275 985 l 278 983 l 281 982 l 282 981 l 285 981 l 286 979 l 288 979 l 289 979 l 292 978 l 293 978 l 294 978 l 296 978 l 297 976 l 299 976 l 300 976 l 303 976 l 304 976 l 306 975 l 307 975 l 308 975 l 311 975 l 314 975 l 317 975 l 319 975 l 321 975 l 324 975 l 326 975 l 329 975 l 332 975 l 335 975 l 338 975 l 340 975 l 343 975 l 346 975 l 349 975 l 351 975 l 354 975 l 357 975 l 360 975 l 363 975 l 365 975 l 368 975 l 371 975 l 374 975 l 376 975 l 379 975 l 382 975 l 385 975 l 388 975 l 390 975 l 393 975 l 396 975 l 510 975 l 510 976 l 593 976 l 593 975 l 594 975 l 597 976 l 600 976 l 604 976 l 607 976 l 611 976 l 614 976 l 617 975 l 621 975 l 624 975 l 628 975 l 631 975 l 633 975 l 638 975 l 640 974 l 643 974 l 647 974 l 650 972 l 654 972 l 657 972 l 661 971 l 664 969 l 667 969 l 671 968 l 674 967 l 678 965 l 681 964 l 685 963 l 688 961 l 690 960 l 693 958 l 696 957 l 697 956 l 700 954 l 703 953 l 706 951 l 707 949 l 710 947 l 713 946 l 715 943 l 717 942 l 719 939 l 722 938 l 724 935 l 726 932 l 729 931 l 731 928 l 733 925 l 735 922 l 738 919 l 739 917 l 740 913 l 743 910 l 744 907 l 746 903 l 749 900 l 750 896 l 751 893 l 753 889 l 754 885 l 754 882 l 756 881 l 756 878 l 756 875 l 757 872 l 757 871 l 758 868 l 760 865 l 761 864 l 761 861 l 763 858 l 764 857 l 765 854 l 767 853 l 768 850 l 769 849 l 772 847 l 774 844 l 775 843 l 778 842 l 779 840 l 781 839 l 783 838 l 785 836 l 788 835 l 789 833 l 792 832 l 794 831 l 796 831 l 799 829 l 801 828 l 803 828 l 806 828 l 808 826 l 810 826 l 811 826 l 813 826 l 814 825 l 815 825 l 817 825 l 818 825 l 819 825 l 822 825 l 822 825 l 825 825 l 826 825 l 828 824 l 829 824 l 831 824 l 832 824 l 833 824 l 833 824 l 835 824 l 836 824 l 836 824 l 838 822 l 839 822 l 840 822 l 842 822 l 843 822 l 844 822 l 844 822 l 849 821 l 851 819 l 854 819 l 857 818 l 860 817 l 863 815 l 865 814 l 868 813 l 871 811 l 874 810 l 876 807 l 878 806 l 881 803 l 883 801 l 886 800 l 888 797 l 890 794 l 892 793 l 894 790 l 896 788 l 897 785 l 899 782 l 900 779 l 903 778 l 904 774 l 906 772 l 906 768 l 907 765 l 908 763 l 910 760 l 910 757 l 911 753 l 911 751 l 911 750 l 911 749 l 911 747 l 913 746 l 913 744 l 913 743 l 913 742 l 911 696 l 911 294 l 911 292 l 913 290 l 913 288 l 913 285 l 913 283 l 913 281 l 913 278 l 913 276 l 913 274 l 913 271 l 913 268 l 913 265 l 913 264 l 913 261 l 913 258 l 913 256 l 913 253 l 911 251 l 911 249 l 911 246 l 911 243 l 911 240 l 910 238 l 910 235 l 908 233 l 908 231 l 907 228 l 906 225 l 906 222 l 904 219 l 903 217 l 901 215 l 901 213 l 900 211 l 899 210 l 899 208 l 897 207 l 896 206 l 894 204 l 894 203 l 893 201 l 892 200 l 890 199 l 889 197 l 889 196 l 888 194 l 886 193 l 885 192 l 883 190 l 882 189 l 881 188 l 879 188 l 878 186 l 876 185 l 875 183 l 874 183 l 872 182 l 869 181 l 868 179 l 867 179 l 865 178 l 864 178 l 863 176 l 861 175 l 858 175 l 857 174 l 856 174 l 854 172 l 853 172 l 851 172 l 849 172 l 847 171 l 846 171 l 844 171 l 843 171 l 842 169 l 840 169 l 839 169 l 838 169 l 836 169 l 835 168 l 833 168 l 832 168 l 829 168 l 828 168 l 826 168 l 825 167 l 824 167 l 822 167 l 822 167 l 821 167 l 819 167 l 818 167 l 817 165 l 815 165 l 814 165 l 811 164 l 808 163 l 806 163 l 804 161 l 801 160 l 800 158 l 797 157 l 794 156 l 793 154 l 792 153 l 789 151 l 788 150 l 785 149 l 783 146 l 782 144 l 781 143 l 778 140 l 776 139 l 775 138 l 774 135 l 772 133 l 771 131 l 771 129 l 769 126 l 768 124 l 767 122 l 767 119 l 765 117 l 764 115 l 764 113 l 763 110 l 763 108 l 763 107 l 763 106 l 761 104 l 761 103 l 761 101 l 761 100 l 761 99 l 761 97 l 761 96 l 761 94 l 761 93 l 761 90 l 761 89 l 760 88 l 760 86 l 760 85 l 760 83 l 760 82 l 760 79 l 760 78 l 760 76 l 758 75 l 758 72 l 758 71 l 758 69 l 757 67 l 757 65 l 757 64 l 756 61 l 756 60 l 754 58 l 754 56 l 753 54 l 753 53 l 751 51 l 750 49 l 750 47 l 749 46 l 749 44 l 747 43 l 746 40 l 744 39 l 744 38 l 743 36 l 742 35 l 740 33 l 739 32 l 739 31 l 738 29 l 736 28 l 735 26 l 733 25 l 732 24 l 731 22 m 735 244 l 735 246 l 735 247 l 735 249 l 735 250 l 735 250 l 735 251 l 735 253 l 735 254 l 735 256 l 735 257 l 735 258 l 735 260 l 735 261 l 736 263 l 736 264 l 736 265 l 736 267 l 735 269 l 735 271 l 735 272 l 735 274 l 735 275 l 735 276 l 735 278 l 735 279 l 735 281 l 735 403 l 422 403 l 422 403 l 319 403 l 315 403 l 314 403 l 313 403 l 311 403 l 308 403 l 307 403 l 306 403 l 304 403 l 301 403 l 300 403 l 299 403 l 297 401 l 296 401 l 294 401 l 290 400 l 286 400 l 282 399 l 278 396 l 275 394 l 271 393 l 268 392 l 265 389 l 263 388 l 260 386 l 257 383 l 254 381 l 253 378 l 250 376 l 249 374 l 246 371 l 244 368 l 243 365 l 242 361 l 240 358 l 239 356 l 238 351 l 238 349 l 236 344 l 235 340 l 235 338 l 235 333 l 233 329 l 233 325 l 233 321 l 233 317 l 233 313 l 233 246 l 233 246 l 233 246 l 233 244 l 233 244 l 233 243 l 233 242 l 233 242 l 233 240 l 233 239 l 233 239 l 233 238 l 233 236 l 233 236 l 233 231 l 235 225 l 236 221 l 238 217 l 239 213 l 240 210 l 243 206 l 244 203 l 247 200 l 250 199 l 253 196 l 256 193 l 258 192 l 261 189 l 265 188 l 269 186 l 272 185 l 276 183 l 281 182 l 285 182 l 289 181 l 294 179 l 299 179 l 303 178 l 307 178 l 313 178 l 317 178 l 322 178 l 326 178 l 331 178 l 336 176 l 340 176 l 639 176 l 640 176 l 643 176 l 644 176 l 646 176 l 647 178 l 649 178 l 650 178 l 651 178 l 653 178 l 654 178 l 656 178 l 657 178 l 657 178 l 658 178 l 660 178 l 661 178 l 663 178 l 664 178 l 665 178 l 667 178 l 668 178 l 669 178 l 671 179 l 672 179 l 672 179 l 674 179 l 675 179 l 676 181 l 678 181 l 679 181 l 681 181 l 682 182 l 685 182 l 686 183 l 689 185 l 692 185 l 693 186 l 696 188 l 699 189 l 700 190 l 703 192 l 704 193 l 706 194 l 708 196 l 710 197 l 711 200 l 714 201 l 715 203 l 717 206 l 718 207 l 719 208 l 722 211 l 722 213 l 724 215 l 725 217 l 726 219 l 728 222 l 729 224 l 729 226 l 731 229 l 732 231 l 732 233 l 733 236 l 733 239 l 733 239 l 733 240 l 735 242 l 735 243 l 735 244 m 508 1288 q 511 1268 507 1276 q 529 1250 518 1254 q 581 1199 576 1243 q 531 1133 589 1142 q 465 1185 471 1128 q 465 1185 465 1185 q 465 1185 465 1185 q 465 1195 464 1192 q 467 1206 465 1199 q 451 1238 465 1225 q 428 1248 436 1249 q 407 1267 419 1247 q 399 1278 403 1271 q 390 1290 394 1285 l 276 1438 q 260 1476 257 1460 q 314 1536 265 1504 q 396 1560 363 1568 q 417 1544 413 1554 q 428 1518 421 1533 l 492 1354 q 495 1344 492 1351 q 501 1329 499 1336 q 508 1288 513 1303 z "},"â":{"ha":968,"x_min":56,"x_max":913,"o":"m 731 22 l 729 21 l 728 19 l 726 19 l 724 18 l 722 17 l 721 15 l 719 14 l 718 14 l 717 13 l 714 11 l 711 10 l 710 8 l 707 8 l 706 7 l 703 6 l 700 6 l 699 4 l 696 4 l 694 3 l 692 3 l 689 3 l 688 1 l 685 1 l 683 1 l 681 1 l 679 1 l 676 0 l 675 0 l 672 0 l 671 0 l 668 0 l 667 0 l 664 0 l 663 0 l 660 0 l 658 0 l 656 0 l 654 0 l 651 0 l 650 0 l 647 0 l 319 0 l 318 0 l 317 0 l 315 0 l 313 0 l 311 0 l 310 0 l 308 0 l 306 1 l 304 1 l 303 1 l 301 1 l 300 1 l 299 1 l 296 1 l 294 3 l 293 3 l 292 3 l 289 3 l 288 4 l 286 4 l 285 6 l 283 6 l 281 6 l 279 7 l 278 7 l 276 8 l 274 10 l 272 10 l 271 11 l 268 11 l 267 13 l 265 14 l 264 15 l 261 17 l 260 17 l 258 18 l 257 19 l 256 21 l 254 22 l 253 24 l 251 25 l 250 26 l 249 28 l 247 29 l 246 31 l 244 32 l 243 33 l 242 36 l 240 38 l 239 39 l 239 40 l 238 42 l 236 44 l 235 46 l 233 47 l 233 50 l 232 51 l 232 53 l 231 56 l 229 57 l 229 58 l 228 61 l 228 63 l 228 64 l 226 67 l 226 67 l 226 68 l 226 69 l 225 71 l 225 72 l 225 74 l 225 75 l 225 76 l 225 78 l 224 79 l 224 81 l 224 82 l 224 82 l 224 83 l 224 85 l 224 86 l 224 88 l 224 89 l 222 89 l 222 90 l 222 92 l 222 93 l 222 94 l 222 94 l 222 96 l 222 97 l 221 97 l 221 99 l 221 100 l 221 100 l 221 101 l 219 104 l 218 107 l 218 108 l 217 111 l 215 114 l 214 115 l 213 118 l 211 121 l 210 122 l 208 125 l 207 126 l 206 128 l 204 131 l 203 132 l 200 133 l 199 136 l 197 138 l 194 139 l 193 140 l 190 143 l 189 144 l 186 146 l 185 147 l 182 147 l 179 149 l 178 150 l 175 151 l 172 153 l 171 153 l 168 154 l 165 154 l 163 156 l 161 156 l 161 156 l 160 156 l 158 156 l 157 157 l 156 157 l 156 157 l 154 157 l 153 157 l 151 157 l 150 157 l 150 157 l 149 157 l 147 158 l 146 158 l 144 158 l 143 158 l 142 158 l 140 158 l 140 158 l 139 158 l 138 158 l 136 158 l 135 158 l 133 160 l 132 160 l 131 160 l 129 160 l 128 160 l 126 160 l 125 161 l 124 161 l 119 163 l 117 163 l 113 164 l 110 165 l 106 167 l 103 169 l 100 171 l 96 172 l 93 175 l 90 176 l 88 179 l 85 182 l 82 183 l 81 186 l 78 189 l 75 192 l 74 194 l 71 197 l 69 200 l 67 204 l 65 207 l 64 211 l 63 214 l 61 217 l 60 221 l 60 224 l 58 228 l 57 232 l 57 235 l 57 239 l 56 243 l 56 247 l 56 247 l 56 249 l 56 250 l 56 251 l 57 253 l 57 254 l 57 256 l 57 256 l 57 318 l 57 319 l 56 322 l 56 324 l 56 326 l 56 328 l 56 331 l 56 332 l 56 335 l 56 336 l 56 339 l 56 340 l 57 343 l 57 344 l 57 346 l 57 349 l 57 350 l 58 353 l 58 354 l 58 356 l 58 358 l 60 360 l 60 361 l 60 364 l 61 365 l 61 367 l 63 369 l 63 371 l 63 372 l 64 375 l 65 376 l 65 378 l 67 381 l 67 382 l 68 383 l 69 386 l 71 388 l 72 389 l 72 390 l 74 393 l 75 394 l 76 396 l 78 397 l 79 399 l 81 400 l 82 401 l 83 403 l 85 404 l 86 406 l 88 407 l 89 408 l 90 410 l 93 411 l 94 413 l 96 414 l 97 414 l 99 415 l 101 417 l 103 417 l 104 418 l 106 419 l 108 421 l 110 421 l 113 422 l 114 422 l 115 424 l 118 424 l 119 425 l 122 425 l 124 425 l 125 426 l 126 426 l 129 426 l 131 426 l 132 428 l 133 428 l 136 428 l 138 428 l 139 428 l 140 428 l 142 428 l 144 428 l 146 428 l 147 428 l 149 429 l 150 429 l 151 429 l 153 429 l 154 429 l 156 429 l 157 429 l 158 429 l 160 429 l 161 431 l 163 431 l 164 431 l 165 431 l 168 432 l 171 432 l 172 433 l 175 433 l 178 435 l 181 436 l 182 438 l 185 438 l 186 439 l 189 440 l 190 442 l 193 443 l 194 444 l 197 446 l 199 449 l 200 450 l 203 451 l 204 453 l 206 456 l 207 457 l 208 458 l 211 461 l 211 463 l 213 465 l 214 467 l 215 469 l 217 472 l 218 474 l 218 476 l 219 479 l 221 481 l 221 483 l 222 485 l 222 486 l 222 488 l 222 489 l 222 489 l 222 490 l 224 492 l 224 493 l 224 494 l 224 496 l 224 497 l 224 499 l 224 500 l 225 501 l 225 503 l 225 504 l 225 506 l 225 507 l 225 508 l 226 510 l 226 511 l 226 513 l 226 514 l 226 515 l 228 517 l 228 518 l 228 521 l 229 522 l 229 524 l 231 525 l 231 526 l 232 528 l 232 531 l 233 532 l 233 533 l 235 535 l 236 536 l 236 538 l 238 539 l 239 542 l 240 543 l 240 544 l 242 546 l 243 547 l 244 549 l 246 550 l 247 551 l 249 553 l 250 554 l 250 556 l 251 557 l 253 558 l 256 558 l 256 560 l 257 561 l 260 563 l 261 564 l 263 564 l 264 565 l 265 567 l 267 567 l 268 568 l 271 569 l 272 569 l 274 571 l 276 572 l 279 574 l 281 574 l 283 575 l 285 575 l 288 576 l 290 576 l 292 578 l 294 578 l 296 578 l 299 578 l 301 579 l 303 579 l 306 579 l 307 579 l 310 579 l 311 579 l 314 579 l 315 579 l 318 579 l 319 579 l 322 579 l 324 579 l 326 579 l 328 579 l 331 579 l 332 579 l 335 579 l 336 579 l 339 579 l 340 579 l 735 579 l 735 735 l 735 736 l 735 738 l 735 739 l 735 740 l 735 743 l 733 744 l 733 746 l 733 747 l 733 749 l 732 750 l 732 751 l 732 754 l 731 756 l 731 757 l 729 758 l 729 760 l 728 763 l 726 764 l 725 767 l 725 768 l 724 771 l 722 772 l 721 774 l 718 776 l 717 778 l 715 779 l 714 781 l 713 782 l 710 783 l 708 786 l 707 788 l 704 789 l 703 789 l 700 790 l 699 792 l 696 793 l 694 794 l 692 794 l 689 796 l 688 796 l 685 797 l 682 797 l 681 799 l 678 799 l 675 799 l 672 799 l 669 799 l 667 799 l 667 799 l 667 799 l 667 799 l 665 799 l 665 799 l 665 799 l 664 799 l 664 799 l 561 799 l 561 799 l 363 799 l 361 799 l 360 799 l 358 799 l 357 799 l 356 799 l 354 799 l 353 799 l 351 799 l 350 799 l 350 799 l 349 799 l 347 799 l 346 799 l 344 799 l 343 799 l 342 799 l 340 799 l 339 799 l 338 799 l 336 799 l 335 799 l 335 799 l 333 799 l 331 800 l 328 800 l 326 800 l 325 800 l 324 800 l 322 800 l 322 800 l 321 800 l 319 800 l 318 800 l 317 800 l 315 800 l 314 800 l 313 799 l 311 799 l 311 800 l 310 800 l 308 800 l 307 800 l 306 800 l 304 800 l 303 800 l 301 800 l 300 800 l 299 800 l 297 800 l 296 800 l 294 800 l 294 800 l 293 800 l 292 801 l 290 801 l 289 801 l 288 801 l 286 801 l 285 803 l 283 803 l 282 803 l 278 804 l 276 806 l 272 806 l 271 807 l 268 808 l 265 810 l 263 811 l 260 813 l 257 815 l 256 817 l 253 818 l 250 819 l 249 822 l 246 824 l 244 826 l 242 828 l 240 831 l 239 832 l 236 835 l 235 838 l 233 839 l 232 842 l 231 844 l 229 847 l 228 850 l 226 853 l 225 856 l 225 858 l 224 861 l 222 864 l 222 867 l 221 869 l 221 871 l 221 874 l 221 875 l 219 876 l 219 879 l 219 881 l 219 882 l 219 883 l 219 885 l 219 888 l 219 889 l 219 890 l 219 892 l 219 893 l 218 894 l 218 896 l 218 899 l 218 901 l 217 903 l 217 906 l 215 908 l 215 911 l 214 914 l 213 915 l 211 918 l 211 921 l 210 922 l 208 925 l 207 928 l 206 929 l 204 931 l 201 933 l 200 935 l 199 938 l 197 939 l 194 940 l 193 943 l 190 944 l 189 946 l 186 947 l 185 949 l 182 950 l 181 951 l 178 953 l 175 953 l 174 954 l 171 956 l 168 956 l 167 957 l 165 957 l 164 957 l 163 958 l 161 958 l 160 958 l 158 958 l 157 960 l 156 960 l 154 960 l 153 960 l 151 960 l 150 961 l 149 961 l 146 961 l 144 961 l 143 961 l 142 961 l 140 961 l 139 961 l 138 963 l 135 963 l 133 963 l 132 963 l 131 963 l 129 964 l 126 964 l 125 964 l 124 965 l 122 965 l 119 965 l 118 967 l 115 967 l 111 968 l 108 969 l 106 972 l 101 974 l 99 975 l 96 976 l 93 979 l 90 981 l 88 983 l 86 985 l 83 988 l 81 990 l 78 992 l 76 994 l 74 997 l 72 1000 l 71 1003 l 68 1006 l 67 1010 l 65 1013 l 64 1015 l 63 1018 l 61 1022 l 60 1025 l 60 1029 l 58 1032 l 58 1036 l 57 1039 l 57 1043 l 57 1046 l 57 1050 l 57 1054 l 57 1058 l 58 1064 l 58 1068 l 60 1072 l 61 1076 l 63 1081 l 64 1085 l 65 1088 l 67 1092 l 69 1096 l 72 1099 l 74 1103 l 76 1106 l 79 1110 l 82 1113 l 86 1115 l 89 1118 l 92 1121 l 96 1122 l 99 1125 l 103 1128 l 107 1129 l 111 1131 l 114 1132 l 118 1133 l 122 1135 l 126 1136 l 132 1138 l 136 1138 l 140 1138 l 144 1138 l 149 1138 l 153 1138 l 156 1138 l 160 1136 l 164 1136 l 167 1135 l 171 1133 l 175 1133 l 178 1132 l 182 1129 l 185 1128 l 188 1126 l 192 1125 l 194 1122 l 197 1121 l 200 1118 l 203 1115 l 206 1114 l 208 1111 l 211 1108 l 213 1106 l 215 1103 l 217 1100 l 219 1096 l 221 1093 l 222 1090 l 225 1086 l 226 1083 l 228 1079 l 228 1076 l 229 1072 l 231 1069 l 231 1067 l 232 1065 l 232 1063 l 232 1061 l 232 1058 l 232 1057 l 233 1056 l 233 1053 l 233 1051 l 233 1050 l 233 1049 l 233 1047 l 233 1044 l 233 1043 l 233 1042 l 235 1040 l 235 1038 l 235 1035 l 236 1032 l 236 1031 l 238 1028 l 239 1025 l 239 1024 l 240 1021 l 242 1018 l 242 1017 l 243 1014 l 244 1013 l 246 1010 l 247 1008 l 249 1006 l 250 1004 l 251 1001 l 254 1000 l 256 999 l 257 997 l 260 994 l 261 993 l 263 992 l 265 990 l 267 989 l 269 988 l 271 986 l 274 985 l 275 985 l 278 983 l 281 982 l 282 981 l 285 981 l 286 979 l 288 979 l 289 979 l 292 978 l 293 978 l 294 978 l 296 978 l 297 976 l 299 976 l 300 976 l 303 976 l 304 976 l 306 975 l 307 975 l 308 975 l 311 975 l 314 975 l 317 975 l 319 975 l 321 975 l 324 975 l 326 975 l 329 975 l 332 975 l 335 975 l 338 975 l 340 975 l 343 975 l 346 975 l 349 975 l 351 975 l 354 975 l 357 975 l 360 975 l 363 975 l 365 975 l 368 975 l 371 975 l 374 975 l 376 975 l 379 975 l 382 975 l 385 975 l 388 975 l 390 975 l 393 975 l 396 975 l 510 975 l 510 976 l 593 976 l 593 975 l 594 975 l 597 976 l 600 976 l 604 976 l 607 976 l 611 976 l 614 976 l 617 975 l 621 975 l 624 975 l 628 975 l 631 975 l 633 975 l 638 975 l 640 974 l 643 974 l 647 974 l 650 972 l 654 972 l 657 972 l 661 971 l 664 969 l 667 969 l 671 968 l 674 967 l 678 965 l 681 964 l 685 963 l 688 961 l 690 960 l 693 958 l 696 957 l 697 956 l 700 954 l 703 953 l 706 951 l 707 949 l 710 947 l 713 946 l 715 943 l 717 942 l 719 939 l 722 938 l 724 935 l 726 932 l 729 931 l 731 928 l 733 925 l 735 922 l 738 919 l 739 917 l 740 913 l 743 910 l 744 907 l 746 903 l 749 900 l 750 896 l 751 893 l 753 889 l 754 885 l 754 882 l 756 881 l 756 878 l 756 875 l 757 872 l 757 871 l 758 868 l 760 865 l 761 864 l 761 861 l 763 858 l 764 857 l 765 854 l 767 853 l 768 850 l 769 849 l 772 847 l 774 844 l 775 843 l 778 842 l 779 840 l 781 839 l 783 838 l 785 836 l 788 835 l 789 833 l 792 832 l 794 831 l 796 831 l 799 829 l 801 828 l 803 828 l 806 828 l 808 826 l 810 826 l 811 826 l 813 826 l 814 825 l 815 825 l 817 825 l 818 825 l 819 825 l 822 825 l 822 825 l 825 825 l 826 825 l 828 824 l 829 824 l 831 824 l 832 824 l 833 824 l 833 824 l 835 824 l 836 824 l 836 824 l 838 822 l 839 822 l 840 822 l 842 822 l 843 822 l 844 822 l 844 822 l 849 821 l 851 819 l 854 819 l 857 818 l 860 817 l 863 815 l 865 814 l 868 813 l 871 811 l 874 810 l 876 807 l 878 806 l 881 803 l 883 801 l 886 800 l 888 797 l 890 794 l 892 793 l 894 790 l 896 788 l 897 785 l 899 782 l 900 779 l 903 778 l 904 774 l 906 772 l 906 768 l 907 765 l 908 763 l 910 760 l 910 757 l 911 753 l 911 751 l 911 750 l 911 749 l 911 747 l 913 746 l 913 744 l 913 743 l 913 742 l 911 696 l 911 294 l 911 292 l 913 290 l 913 288 l 913 285 l 913 283 l 913 281 l 913 278 l 913 276 l 913 274 l 913 271 l 913 268 l 913 265 l 913 264 l 913 261 l 913 258 l 913 256 l 913 253 l 911 251 l 911 249 l 911 246 l 911 243 l 911 240 l 910 238 l 910 235 l 908 233 l 908 231 l 907 228 l 906 225 l 906 222 l 904 219 l 903 217 l 901 215 l 901 213 l 900 211 l 899 210 l 899 208 l 897 207 l 896 206 l 894 204 l 894 203 l 893 201 l 892 200 l 890 199 l 889 197 l 889 196 l 888 194 l 886 193 l 885 192 l 883 190 l 882 189 l 881 188 l 879 188 l 878 186 l 876 185 l 875 183 l 874 183 l 872 182 l 869 181 l 868 179 l 867 179 l 865 178 l 864 178 l 863 176 l 861 175 l 858 175 l 857 174 l 856 174 l 854 172 l 853 172 l 851 172 l 849 172 l 847 171 l 846 171 l 844 171 l 843 171 l 842 169 l 840 169 l 839 169 l 838 169 l 836 169 l 835 168 l 833 168 l 832 168 l 829 168 l 828 168 l 826 168 l 825 167 l 824 167 l 822 167 l 822 167 l 821 167 l 819 167 l 818 167 l 817 165 l 815 165 l 814 165 l 811 164 l 808 163 l 806 163 l 804 161 l 801 160 l 800 158 l 797 157 l 794 156 l 793 154 l 792 153 l 789 151 l 788 150 l 785 149 l 783 146 l 782 144 l 781 143 l 778 140 l 776 139 l 775 138 l 774 135 l 772 133 l 771 131 l 771 129 l 769 126 l 768 124 l 767 122 l 767 119 l 765 117 l 764 115 l 764 113 l 763 110 l 763 108 l 763 107 l 763 106 l 761 104 l 761 103 l 761 101 l 761 100 l 761 99 l 761 97 l 761 96 l 761 94 l 761 93 l 761 90 l 761 89 l 760 88 l 760 86 l 760 85 l 760 83 l 760 82 l 760 79 l 760 78 l 760 76 l 758 75 l 758 72 l 758 71 l 758 69 l 757 67 l 757 65 l 757 64 l 756 61 l 756 60 l 754 58 l 754 56 l 753 54 l 753 53 l 751 51 l 750 49 l 750 47 l 749 46 l 749 44 l 747 43 l 746 40 l 744 39 l 744 38 l 743 36 l 742 35 l 740 33 l 739 32 l 739 31 l 738 29 l 736 28 l 735 26 l 733 25 l 732 24 l 731 22 m 735 244 l 735 246 l 735 247 l 735 249 l 735 250 l 735 250 l 735 251 l 735 253 l 735 254 l 735 256 l 735 257 l 735 258 l 735 260 l 735 261 l 736 263 l 736 264 l 736 265 l 736 267 l 735 269 l 735 271 l 735 272 l 735 274 l 735 275 l 735 276 l 735 278 l 735 279 l 735 281 l 735 403 l 422 403 l 422 403 l 319 403 l 315 403 l 314 403 l 313 403 l 311 403 l 308 403 l 307 403 l 306 403 l 304 403 l 301 403 l 300 403 l 299 403 l 297 401 l 296 401 l 294 401 l 290 400 l 286 400 l 282 399 l 278 396 l 275 394 l 271 393 l 268 392 l 265 389 l 263 388 l 260 386 l 257 383 l 254 381 l 253 378 l 250 376 l 249 374 l 246 371 l 244 368 l 243 365 l 242 361 l 240 358 l 239 356 l 238 351 l 238 349 l 236 344 l 235 340 l 235 338 l 235 333 l 233 329 l 233 325 l 233 321 l 233 317 l 233 313 l 233 246 l 233 246 l 233 246 l 233 244 l 233 244 l 233 243 l 233 242 l 233 242 l 233 240 l 233 239 l 233 239 l 233 238 l 233 236 l 233 236 l 233 231 l 235 225 l 236 221 l 238 217 l 239 213 l 240 210 l 243 206 l 244 203 l 247 200 l 250 199 l 253 196 l 256 193 l 258 192 l 261 189 l 265 188 l 269 186 l 272 185 l 276 183 l 281 182 l 285 182 l 289 181 l 294 179 l 299 179 l 303 178 l 307 178 l 313 178 l 317 178 l 322 178 l 326 178 l 331 178 l 336 176 l 340 176 l 639 176 l 640 176 l 643 176 l 644 176 l 646 176 l 647 178 l 649 178 l 650 178 l 651 178 l 653 178 l 654 178 l 656 178 l 657 178 l 657 178 l 658 178 l 660 178 l 661 178 l 663 178 l 664 178 l 665 178 l 667 178 l 668 178 l 669 178 l 671 179 l 672 179 l 672 179 l 674 179 l 675 179 l 676 181 l 678 181 l 679 181 l 681 181 l 682 182 l 685 182 l 686 183 l 689 185 l 692 185 l 693 186 l 696 188 l 699 189 l 700 190 l 703 192 l 704 193 l 706 194 l 708 196 l 710 197 l 711 200 l 714 201 l 715 203 l 717 206 l 718 207 l 719 208 l 722 211 l 722 213 l 724 215 l 725 217 l 726 219 l 728 222 l 729 224 l 729 226 l 731 229 l 732 231 l 732 233 l 733 236 l 733 239 l 733 239 l 733 240 l 735 242 l 735 243 l 735 244 m 654 1336 l 654 1335 l 653 1333 l 651 1332 l 650 1329 l 649 1328 l 647 1325 l 646 1324 l 643 1321 l 642 1319 l 639 1317 l 638 1314 l 636 1313 l 633 1310 l 632 1307 l 629 1304 l 619 1293 l 618 1290 l 615 1288 l 614 1286 l 613 1283 l 610 1281 l 608 1279 l 607 1276 l 606 1275 l 603 1272 l 601 1271 l 601 1269 l 600 1268 l 599 1267 l 596 1263 l 594 1261 l 592 1258 l 590 1257 l 588 1256 l 586 1253 l 583 1251 l 582 1250 l 581 1249 l 578 1249 l 576 1247 l 574 1247 l 572 1246 l 571 1246 l 569 1246 l 567 1246 l 565 1244 l 564 1244 l 561 1244 l 560 1244 l 558 1244 l 557 1243 l 556 1242 l 554 1242 l 553 1242 l 551 1240 l 550 1240 l 549 1239 l 547 1238 l 544 1236 l 543 1235 l 540 1233 l 540 1233 l 540 1233 l 540 1232 l 539 1231 l 539 1231 l 539 1231 l 538 1229 l 538 1229 l 538 1229 l 536 1228 l 536 1228 l 536 1226 l 536 1226 l 535 1226 l 535 1225 l 535 1225 l 535 1224 l 535 1224 l 533 1222 l 533 1221 l 533 1221 l 533 1221 l 532 1219 l 532 1219 l 532 1218 l 532 1218 l 532 1217 l 532 1217 l 531 1215 l 531 1215 l 531 1214 l 531 1214 l 531 1213 l 531 1213 l 531 1211 l 531 1211 l 529 1208 l 529 1208 l 529 1207 l 529 1207 l 529 1206 l 529 1206 l 529 1204 l 529 1204 l 529 1203 l 529 1203 l 529 1201 l 529 1200 l 529 1200 l 529 1199 l 531 1197 l 531 1197 l 531 1196 l 531 1194 l 531 1194 l 531 1193 l 531 1193 l 531 1192 l 531 1190 l 531 1190 l 531 1189 l 531 1188 l 529 1186 l 529 1185 l 529 1183 l 529 1181 l 528 1179 l 528 1176 l 526 1174 l 525 1172 l 525 1169 l 524 1168 l 522 1167 l 522 1164 l 521 1163 l 519 1161 l 518 1160 l 517 1158 l 515 1157 l 513 1156 l 511 1153 l 510 1151 l 508 1151 l 506 1150 l 504 1149 l 503 1149 l 500 1147 l 499 1146 l 496 1146 l 494 1146 l 493 1144 l 490 1143 l 488 1143 l 486 1143 l 483 1143 l 482 1143 l 479 1143 l 476 1143 l 475 1143 l 472 1143 l 471 1144 l 468 1144 l 467 1146 l 464 1146 l 463 1147 l 461 1149 l 458 1149 l 457 1150 l 456 1151 l 453 1153 l 451 1153 l 450 1154 l 449 1156 l 447 1157 l 446 1160 l 444 1161 l 442 1163 l 442 1164 l 440 1167 l 439 1168 l 438 1169 l 438 1172 l 436 1174 l 436 1176 l 435 1178 l 435 1181 l 435 1183 l 433 1185 l 433 1186 l 433 1188 l 433 1188 l 433 1189 l 433 1190 l 432 1192 l 432 1192 l 433 1193 l 433 1194 l 433 1196 l 433 1196 l 433 1197 l 433 1197 l 433 1200 l 433 1200 l 433 1201 l 433 1201 l 433 1203 l 433 1203 l 433 1204 l 433 1204 l 433 1206 l 433 1207 l 433 1208 l 433 1208 l 433 1210 l 433 1210 l 432 1211 l 432 1213 l 432 1213 l 432 1214 l 432 1214 l 432 1215 l 432 1215 l 432 1217 l 431 1218 l 431 1218 l 431 1219 l 431 1219 l 431 1219 l 429 1221 l 429 1221 l 429 1222 l 429 1222 l 429 1222 l 428 1224 l 428 1224 l 428 1225 l 428 1225 l 426 1225 l 426 1226 l 426 1226 l 426 1228 l 425 1228 l 425 1228 l 425 1229 l 425 1231 l 424 1231 l 422 1231 l 422 1232 l 422 1232 l 421 1232 l 421 1233 l 419 1235 l 418 1236 l 417 1236 l 415 1238 l 414 1239 l 413 1239 l 411 1240 l 410 1240 l 408 1240 l 407 1242 l 406 1242 l 403 1243 l 401 1243 l 400 1243 l 399 1243 l 396 1243 l 394 1244 l 393 1244 l 392 1244 l 389 1244 l 388 1246 l 386 1246 l 383 1247 l 382 1247 l 381 1249 l 378 1249 l 376 1250 l 374 1251 l 372 1253 l 371 1254 l 369 1256 l 365 1260 q 353 1274 360 1265 q 342 1290 347 1283 l 338 1294 l 332 1303 l 311 1329 l 300 1343 l 299 1346 l 297 1346 l 297 1346 l 297 1347 l 296 1347 l 296 1349 l 296 1349 l 294 1350 l 294 1350 l 294 1351 l 293 1353 l 293 1353 l 293 1354 l 293 1354 l 292 1356 l 292 1356 l 292 1357 l 290 1357 l 290 1358 l 289 1358 l 289 1360 l 289 1360 l 289 1361 l 289 1363 l 288 1363 l 288 1364 l 288 1365 l 288 1367 l 288 1367 l 286 1369 l 286 1371 l 286 1372 l 286 1374 l 286 1376 l 286 1378 l 286 1379 l 286 1381 l 286 1383 l 286 1385 l 286 1386 l 286 1388 l 286 1390 l 288 1392 l 288 1393 l 288 1394 l 289 1396 l 289 1399 l 290 1400 l 290 1401 l 292 1403 l 292 1404 l 293 1406 l 294 1407 l 296 1408 l 297 1410 l 297 1411 l 299 1413 l 300 1414 l 301 1415 l 303 1417 l 304 1418 l 306 1418 l 307 1421 l 308 1421 l 310 1422 l 313 1422 l 314 1424 l 315 1424 l 317 1425 l 318 1425 l 321 1426 l 322 1426 l 324 1426 l 325 1426 l 326 1428 l 328 1428 l 329 1428 l 332 1428 l 333 1428 l 335 1428 l 336 1428 l 339 1428 l 340 1428 l 342 1428 l 344 1426 l 346 1426 l 347 1426 l 349 1426 l 350 1425 l 351 1425 l 353 1424 l 356 1424 l 357 1424 l 358 1422 l 358 1422 l 360 1421 l 361 1421 l 363 1419 l 363 1419 l 364 1418 l 364 1418 l 367 1417 l 367 1417 l 368 1415 l 368 1414 l 369 1414 l 369 1413 l 371 1413 l 371 1411 l 372 1411 l 372 1410 l 374 1408 l 374 1408 l 375 1407 l 375 1407 l 376 1406 l 378 1404 l 378 1404 l 379 1403 l 381 1401 l 381 1400 l 381 1399 l 382 1399 l 382 1397 l 385 1394 l 386 1393 l 389 1390 l 390 1388 l 392 1386 l 393 1385 l 394 1382 l 396 1381 l 397 1378 l 400 1375 l 401 1374 l 403 1371 l 406 1369 l 407 1367 l 408 1364 l 411 1361 l 413 1360 l 414 1357 l 415 1354 l 418 1351 l 419 1350 l 422 1347 l 424 1344 l 425 1342 l 426 1340 l 428 1338 l 429 1335 l 432 1333 l 433 1331 l 435 1328 l 436 1326 l 438 1324 l 439 1321 l 440 1317 l 443 1315 l 443 1313 l 444 1311 l 446 1308 l 446 1307 l 446 1304 l 447 1303 l 447 1301 l 447 1300 l 449 1299 l 449 1297 l 449 1294 l 449 1293 l 449 1292 l 449 1290 l 449 1290 l 449 1289 l 449 1288 l 449 1286 l 449 1283 l 449 1282 l 449 1281 l 449 1279 l 450 1278 l 450 1276 l 450 1274 l 451 1271 l 453 1269 l 453 1267 l 454 1264 l 456 1261 l 457 1258 l 458 1256 l 460 1254 l 463 1253 l 464 1250 l 465 1249 l 467 1247 l 469 1246 l 471 1244 l 474 1244 l 475 1243 l 478 1243 l 479 1243 l 481 1243 l 483 1243 l 486 1243 l 488 1244 l 489 1244 l 492 1246 l 493 1246 l 494 1247 l 497 1249 l 499 1250 l 501 1253 l 503 1254 l 504 1256 l 506 1258 l 507 1261 l 508 1264 l 508 1267 l 510 1268 l 511 1271 l 511 1272 l 511 1274 l 511 1275 l 513 1276 l 513 1278 l 513 1279 l 513 1281 l 513 1282 l 513 1283 l 513 1285 l 513 1286 l 513 1288 l 513 1288 l 513 1289 l 513 1290 l 513 1293 l 513 1294 l 513 1296 l 514 1297 l 514 1299 l 514 1300 l 514 1301 l 514 1303 l 515 1306 l 515 1307 l 517 1308 l 517 1310 l 518 1311 l 518 1314 l 519 1315 l 521 1318 l 522 1321 l 524 1324 l 526 1326 l 528 1329 l 529 1332 l 532 1335 l 533 1338 l 535 1340 l 538 1343 l 540 1346 l 542 1350 l 544 1353 l 546 1356 l 549 1358 l 550 1361 l 553 1364 l 556 1367 l 557 1371 l 558 1374 l 561 1376 l 563 1378 l 565 1382 l 568 1383 l 569 1386 l 571 1389 l 574 1392 l 575 1393 l 576 1396 l 582 1401 l 582 1403 l 583 1404 l 585 1407 l 585 1407 l 586 1408 l 586 1408 l 588 1410 l 588 1410 l 589 1411 l 589 1413 l 590 1414 l 592 1414 l 592 1415 l 593 1415 l 593 1417 l 594 1417 l 596 1418 l 596 1418 l 597 1419 l 597 1419 l 599 1421 l 600 1421 l 600 1422 l 601 1422 l 603 1422 l 604 1424 l 606 1425 l 607 1425 l 608 1425 l 610 1426 l 611 1426 l 613 1428 l 614 1428 l 615 1428 l 617 1428 l 618 1429 l 619 1429 l 621 1429 l 622 1429 l 624 1429 l 625 1429 l 628 1429 l 629 1429 l 631 1429 l 632 1429 l 633 1429 l 635 1429 l 636 1428 l 638 1428 l 640 1428 l 642 1428 l 643 1426 l 644 1426 l 646 1425 l 647 1425 l 649 1425 l 650 1424 l 651 1424 l 653 1422 l 654 1421 l 656 1421 l 657 1419 l 658 1418 l 658 1417 l 660 1417 l 661 1415 l 663 1414 l 664 1413 l 664 1413 l 665 1411 l 667 1410 l 667 1408 l 668 1408 l 668 1406 l 669 1404 l 669 1404 l 671 1403 l 671 1401 l 671 1400 l 672 1399 l 674 1397 l 674 1396 l 674 1394 l 674 1393 l 675 1392 l 675 1390 l 675 1389 l 675 1388 l 675 1386 l 676 1385 l 676 1383 l 676 1382 l 676 1381 l 676 1379 l 676 1378 l 676 1376 l 675 1374 l 675 1372 l 675 1371 l 675 1369 l 674 1367 l 674 1365 l 674 1364 l 672 1363 l 672 1361 l 672 1360 l 671 1358 l 671 1357 l 669 1356 l 668 1354 l 668 1353 l 667 1351 l 665 1351 l 665 1349 l 664 1347 l 664 1347 l 663 1346 l 661 1344 l 661 1343 l 660 1342 l 658 1342 l 658 1340 l 657 1338 l 656 1338 l 654 1336 z "},"ä":{"ha":968,"x_min":56,"x_max":913,"o":"m 731 22 l 729 21 l 728 19 l 726 19 l 724 18 l 722 17 l 721 15 l 719 14 l 718 14 l 717 13 l 714 11 l 711 10 l 710 8 l 707 8 l 706 7 l 703 6 l 700 6 l 699 4 l 696 4 l 694 3 l 692 3 l 689 3 l 688 1 l 685 1 l 683 1 l 681 1 l 679 1 l 676 0 l 675 0 l 672 0 l 671 0 l 668 0 l 667 0 l 664 0 l 663 0 l 660 0 l 658 0 l 656 0 l 654 0 l 651 0 l 650 0 l 647 0 l 319 0 l 318 0 l 317 0 l 315 0 l 313 0 l 311 0 l 310 0 l 308 0 l 306 1 l 304 1 l 303 1 l 301 1 l 300 1 l 299 1 l 296 1 l 294 3 l 293 3 l 292 3 l 289 3 l 288 4 l 286 4 l 285 6 l 283 6 l 281 6 l 279 7 l 278 7 l 276 8 l 274 10 l 272 10 l 271 11 l 268 11 l 267 13 l 265 14 l 264 15 l 261 17 l 260 17 l 258 18 l 257 19 l 256 21 l 254 22 l 253 24 l 251 25 l 250 26 l 249 28 l 247 29 l 246 31 l 244 32 l 243 33 l 242 36 l 240 38 l 239 39 l 239 40 l 238 42 l 236 44 l 235 46 l 233 47 l 233 50 l 232 51 l 232 53 l 231 56 l 229 57 l 229 58 l 228 61 l 228 63 l 228 64 l 226 67 l 226 67 l 226 68 l 226 69 l 225 71 l 225 72 l 225 74 l 225 75 l 225 76 l 225 78 l 224 79 l 224 81 l 224 82 l 224 82 l 224 83 l 224 85 l 224 86 l 224 88 l 224 89 l 222 89 l 222 90 l 222 92 l 222 93 l 222 94 l 222 94 l 222 96 l 222 97 l 221 97 l 221 99 l 221 100 l 221 100 l 221 101 l 219 104 l 218 107 l 218 108 l 217 111 l 215 114 l 214 115 l 213 118 l 211 121 l 210 122 l 208 125 l 207 126 l 206 128 l 204 131 l 203 132 l 200 133 l 199 136 l 197 138 l 194 139 l 193 140 l 190 143 l 189 144 l 186 146 l 185 147 l 182 147 l 179 149 l 178 150 l 175 151 l 172 153 l 171 153 l 168 154 l 165 154 l 163 156 l 161 156 l 161 156 l 160 156 l 158 156 l 157 157 l 156 157 l 156 157 l 154 157 l 153 157 l 151 157 l 150 157 l 150 157 l 149 157 l 147 158 l 146 158 l 144 158 l 143 158 l 142 158 l 140 158 l 140 158 l 139 158 l 138 158 l 136 158 l 135 158 l 133 160 l 132 160 l 131 160 l 129 160 l 128 160 l 126 160 l 125 161 l 124 161 l 119 163 l 117 163 l 113 164 l 110 165 l 106 167 l 103 169 l 100 171 l 96 172 l 93 175 l 90 176 l 88 179 l 85 182 l 82 183 l 81 186 l 78 189 l 75 192 l 74 194 l 71 197 l 69 200 l 67 204 l 65 207 l 64 211 l 63 214 l 61 217 l 60 221 l 60 224 l 58 228 l 57 232 l 57 235 l 57 239 l 56 243 l 56 247 l 56 247 l 56 249 l 56 250 l 56 251 l 57 253 l 57 254 l 57 256 l 57 256 l 57 318 l 57 319 l 56 322 l 56 324 l 56 326 l 56 328 l 56 331 l 56 332 l 56 335 l 56 336 l 56 339 l 56 340 l 57 343 l 57 344 l 57 346 l 57 349 l 57 350 l 58 353 l 58 354 l 58 356 l 58 358 l 60 360 l 60 361 l 60 364 l 61 365 l 61 367 l 63 369 l 63 371 l 63 372 l 64 375 l 65 376 l 65 378 l 67 381 l 67 382 l 68 383 l 69 386 l 71 388 l 72 389 l 72 390 l 74 393 l 75 394 l 76 396 l 78 397 l 79 399 l 81 400 l 82 401 l 83 403 l 85 404 l 86 406 l 88 407 l 89 408 l 90 410 l 93 411 l 94 413 l 96 414 l 97 414 l 99 415 l 101 417 l 103 417 l 104 418 l 106 419 l 108 421 l 110 421 l 113 422 l 114 422 l 115 424 l 118 424 l 119 425 l 122 425 l 124 425 l 125 426 l 126 426 l 129 426 l 131 426 l 132 428 l 133 428 l 136 428 l 138 428 l 139 428 l 140 428 l 142 428 l 144 428 l 146 428 l 147 428 l 149 429 l 150 429 l 151 429 l 153 429 l 154 429 l 156 429 l 157 429 l 158 429 l 160 429 l 161 431 l 163 431 l 164 431 l 165 431 l 168 432 l 171 432 l 172 433 l 175 433 l 178 435 l 181 436 l 182 438 l 185 438 l 186 439 l 189 440 l 190 442 l 193 443 l 194 444 l 197 446 l 199 449 l 200 450 l 203 451 l 204 453 l 206 456 l 207 457 l 208 458 l 211 461 l 211 463 l 213 465 l 214 467 l 215 469 l 217 472 l 218 474 l 218 476 l 219 479 l 221 481 l 221 483 l 222 485 l 222 486 l 222 488 l 222 489 l 222 489 l 222 490 l 224 492 l 224 493 l 224 494 l 224 496 l 224 497 l 224 499 l 224 500 l 225 501 l 225 503 l 225 504 l 225 506 l 225 507 l 225 508 l 226 510 l 226 511 l 226 513 l 226 514 l 226 515 l 228 517 l 228 518 l 228 521 l 229 522 l 229 524 l 231 525 l 231 526 l 232 528 l 232 531 l 233 532 l 233 533 l 235 535 l 236 536 l 236 538 l 238 539 l 239 542 l 240 543 l 240 544 l 242 546 l 243 547 l 244 549 l 246 550 l 247 551 l 249 553 l 250 554 l 250 556 l 251 557 l 253 558 l 256 558 l 256 560 l 257 561 l 260 563 l 261 564 l 263 564 l 264 565 l 265 567 l 267 567 l 268 568 l 271 569 l 272 569 l 274 571 l 276 572 l 279 574 l 281 574 l 283 575 l 285 575 l 288 576 l 290 576 l 292 578 l 294 578 l 296 578 l 299 578 l 301 579 l 303 579 l 306 579 l 307 579 l 310 579 l 311 579 l 314 579 l 315 579 l 318 579 l 319 579 l 322 579 l 324 579 l 326 579 l 328 579 l 331 579 l 332 579 l 335 579 l 336 579 l 339 579 l 340 579 l 735 579 l 735 735 l 735 736 l 735 738 l 735 739 l 735 740 l 735 743 l 733 744 l 733 746 l 733 747 l 733 749 l 732 750 l 732 751 l 732 754 l 731 756 l 731 757 l 729 758 l 729 760 l 728 763 l 726 764 l 725 767 l 725 768 l 724 771 l 722 772 l 721 774 l 718 776 l 717 778 l 715 779 l 714 781 l 713 782 l 710 783 l 708 786 l 707 788 l 704 789 l 703 789 l 700 790 l 699 792 l 696 793 l 694 794 l 692 794 l 689 796 l 688 796 l 685 797 l 682 797 l 681 799 l 678 799 l 675 799 l 672 799 l 669 799 l 667 799 l 667 799 l 667 799 l 667 799 l 665 799 l 665 799 l 665 799 l 664 799 l 664 799 l 561 799 l 561 799 l 363 799 l 361 799 l 360 799 l 358 799 l 357 799 l 356 799 l 354 799 l 353 799 l 351 799 l 350 799 l 350 799 l 349 799 l 347 799 l 346 799 l 344 799 l 343 799 l 342 799 l 340 799 l 339 799 l 338 799 l 336 799 l 335 799 l 335 799 l 333 799 l 331 800 l 328 800 l 326 800 l 325 800 l 324 800 l 322 800 l 322 800 l 321 800 l 319 800 l 318 800 l 317 800 l 315 800 l 314 800 l 313 799 l 311 799 l 311 800 l 310 800 l 308 800 l 307 800 l 306 800 l 304 800 l 303 800 l 301 800 l 300 800 l 299 800 l 297 800 l 296 800 l 294 800 l 294 800 l 293 800 l 292 801 l 290 801 l 289 801 l 288 801 l 286 801 l 285 803 l 283 803 l 282 803 l 278 804 l 276 806 l 272 806 l 271 807 l 268 808 l 265 810 l 263 811 l 260 813 l 257 815 l 256 817 l 253 818 l 250 819 l 249 822 l 246 824 l 244 826 l 242 828 l 240 831 l 239 832 l 236 835 l 235 838 l 233 839 l 232 842 l 231 844 l 229 847 l 228 850 l 226 853 l 225 856 l 225 858 l 224 861 l 222 864 l 222 867 l 221 869 l 221 871 l 221 874 l 221 875 l 219 876 l 219 879 l 219 881 l 219 882 l 219 883 l 219 885 l 219 888 l 219 889 l 219 890 l 219 892 l 219 893 l 218 894 l 218 896 l 218 899 l 218 901 l 217 903 l 217 906 l 215 908 l 215 911 l 214 914 l 213 915 l 211 918 l 211 921 l 210 922 l 208 925 l 207 928 l 206 929 l 204 931 l 201 933 l 200 935 l 199 938 l 197 939 l 194 940 l 193 943 l 190 944 l 189 946 l 186 947 l 185 949 l 182 950 l 181 951 l 178 953 l 175 953 l 174 954 l 171 956 l 168 956 l 167 957 l 165 957 l 164 957 l 163 958 l 161 958 l 160 958 l 158 958 l 157 960 l 156 960 l 154 960 l 153 960 l 151 960 l 150 961 l 149 961 l 146 961 l 144 961 l 143 961 l 142 961 l 140 961 l 139 961 l 138 963 l 135 963 l 133 963 l 132 963 l 131 963 l 129 964 l 126 964 l 125 964 l 124 965 l 122 965 l 119 965 l 118 967 l 115 967 l 111 968 l 108 969 l 106 972 l 101 974 l 99 975 l 96 976 l 93 979 l 90 981 l 88 983 l 86 985 l 83 988 l 81 990 l 78 992 l 76 994 l 74 997 l 72 1000 l 71 1003 l 68 1006 l 67 1010 l 65 1013 l 64 1015 l 63 1018 l 61 1022 l 60 1025 l 60 1029 l 58 1032 l 58 1036 l 57 1039 l 57 1043 l 57 1046 l 57 1050 l 57 1054 l 57 1058 l 58 1064 l 58 1068 l 60 1072 l 61 1076 l 63 1081 l 64 1085 l 65 1088 l 67 1092 l 69 1096 l 72 1099 l 74 1103 l 76 1106 l 79 1110 l 82 1113 l 86 1115 l 89 1118 l 92 1121 l 96 1122 l 99 1125 l 103 1128 l 107 1129 l 111 1131 l 114 1132 l 118 1133 l 122 1135 l 126 1136 l 132 1138 l 136 1138 l 140 1138 l 144 1138 l 149 1138 l 153 1138 l 156 1138 l 160 1136 l 164 1136 l 167 1135 l 171 1133 l 175 1133 l 178 1132 l 182 1129 l 185 1128 l 188 1126 l 192 1125 l 194 1122 l 197 1121 l 200 1118 l 203 1115 l 206 1114 l 208 1111 l 211 1108 l 213 1106 l 215 1103 l 217 1100 l 219 1096 l 221 1093 l 222 1090 l 225 1086 l 226 1083 l 228 1079 l 228 1076 l 229 1072 l 231 1069 l 231 1067 l 232 1065 l 232 1063 l 232 1061 l 232 1058 l 232 1057 l 233 1056 l 233 1053 l 233 1051 l 233 1050 l 233 1049 l 233 1047 l 233 1044 l 233 1043 l 233 1042 l 235 1040 l 235 1038 l 235 1035 l 236 1032 l 236 1031 l 238 1028 l 239 1025 l 239 1024 l 240 1021 l 242 1018 l 242 1017 l 243 1014 l 244 1013 l 246 1010 l 247 1008 l 249 1006 l 250 1004 l 251 1001 l 254 1000 l 256 999 l 257 997 l 260 994 l 261 993 l 263 992 l 265 990 l 267 989 l 269 988 l 271 986 l 274 985 l 275 985 l 278 983 l 281 982 l 282 981 l 285 981 l 286 979 l 288 979 l 289 979 l 292 978 l 293 978 l 294 978 l 296 978 l 297 976 l 299 976 l 300 976 l 303 976 l 304 976 l 306 975 l 307 975 l 308 975 l 311 975 l 314 975 l 317 975 l 319 975 l 321 975 l 324 975 l 326 975 l 329 975 l 332 975 l 335 975 l 338 975 l 340 975 l 343 975 l 346 975 l 349 975 l 351 975 l 354 975 l 357 975 l 360 975 l 363 975 l 365 975 l 368 975 l 371 975 l 374 975 l 376 975 l 379 975 l 382 975 l 385 975 l 388 975 l 390 975 l 393 975 l 396 975 l 510 975 l 510 976 l 593 976 l 593 975 l 594 975 l 597 976 l 600 976 l 604 976 l 607 976 l 611 976 l 614 976 l 617 975 l 621 975 l 624 975 l 628 975 l 631 975 l 633 975 l 638 975 l 640 974 l 643 974 l 647 974 l 650 972 l 654 972 l 657 972 l 661 971 l 664 969 l 667 969 l 671 968 l 674 967 l 678 965 l 681 964 l 685 963 l 688 961 l 690 960 l 693 958 l 696 957 l 697 956 l 700 954 l 703 953 l 706 951 l 707 949 l 710 947 l 713 946 l 715 943 l 717 942 l 719 939 l 722 938 l 724 935 l 726 932 l 729 931 l 731 928 l 733 925 l 735 922 l 738 919 l 739 917 l 740 913 l 743 910 l 744 907 l 746 903 l 749 900 l 750 896 l 751 893 l 753 889 l 754 885 l 754 882 l 756 881 l 756 878 l 756 875 l 757 872 l 757 871 l 758 868 l 760 865 l 761 864 l 761 861 l 763 858 l 764 857 l 765 854 l 767 853 l 768 850 l 769 849 l 772 847 l 774 844 l 775 843 l 778 842 l 779 840 l 781 839 l 783 838 l 785 836 l 788 835 l 789 833 l 792 832 l 794 831 l 796 831 l 799 829 l 801 828 l 803 828 l 806 828 l 808 826 l 810 826 l 811 826 l 813 826 l 814 825 l 815 825 l 817 825 l 818 825 l 819 825 l 822 825 l 822 825 l 825 825 l 826 825 l 828 824 l 829 824 l 831 824 l 832 824 l 833 824 l 833 824 l 835 824 l 836 824 l 836 824 l 838 822 l 839 822 l 840 822 l 842 822 l 843 822 l 844 822 l 844 822 l 849 821 l 851 819 l 854 819 l 857 818 l 860 817 l 863 815 l 865 814 l 868 813 l 871 811 l 874 810 l 876 807 l 878 806 l 881 803 l 883 801 l 886 800 l 888 797 l 890 794 l 892 793 l 894 790 l 896 788 l 897 785 l 899 782 l 900 779 l 903 778 l 904 774 l 906 772 l 906 768 l 907 765 l 908 763 l 910 760 l 910 757 l 911 753 l 911 751 l 911 750 l 911 749 l 911 747 l 913 746 l 913 744 l 913 743 l 913 742 l 911 696 l 911 294 l 911 292 l 913 290 l 913 288 l 913 285 l 913 283 l 913 281 l 913 278 l 913 276 l 913 274 l 913 271 l 913 268 l 913 265 l 913 264 l 913 261 l 913 258 l 913 256 l 913 253 l 911 251 l 911 249 l 911 246 l 911 243 l 911 240 l 910 238 l 910 235 l 908 233 l 908 231 l 907 228 l 906 225 l 906 222 l 904 219 l 903 217 l 901 215 l 901 213 l 900 211 l 899 210 l 899 208 l 897 207 l 896 206 l 894 204 l 894 203 l 893 201 l 892 200 l 890 199 l 889 197 l 889 196 l 888 194 l 886 193 l 885 192 l 883 190 l 882 189 l 881 188 l 879 188 l 878 186 l 876 185 l 875 183 l 874 183 l 872 182 l 869 181 l 868 179 l 867 179 l 865 178 l 864 178 l 863 176 l 861 175 l 858 175 l 857 174 l 856 174 l 854 172 l 853 172 l 851 172 l 849 172 l 847 171 l 846 171 l 844 171 l 843 171 l 842 169 l 840 169 l 839 169 l 838 169 l 836 169 l 835 168 l 833 168 l 832 168 l 829 168 l 828 168 l 826 168 l 825 167 l 824 167 l 822 167 l 822 167 l 821 167 l 819 167 l 818 167 l 817 165 l 815 165 l 814 165 l 811 164 l 808 163 l 806 163 l 804 161 l 801 160 l 800 158 l 797 157 l 794 156 l 793 154 l 792 153 l 789 151 l 788 150 l 785 149 l 783 146 l 782 144 l 781 143 l 778 140 l 776 139 l 775 138 l 774 135 l 772 133 l 771 131 l 771 129 l 769 126 l 768 124 l 767 122 l 767 119 l 765 117 l 764 115 l 764 113 l 763 110 l 763 108 l 763 107 l 763 106 l 761 104 l 761 103 l 761 101 l 761 100 l 761 99 l 761 97 l 761 96 l 761 94 l 761 93 l 761 90 l 761 89 l 760 88 l 760 86 l 760 85 l 760 83 l 760 82 l 760 79 l 760 78 l 760 76 l 758 75 l 758 72 l 758 71 l 758 69 l 757 67 l 757 65 l 757 64 l 756 61 l 756 60 l 754 58 l 754 56 l 753 54 l 753 53 l 751 51 l 750 49 l 750 47 l 749 46 l 749 44 l 747 43 l 746 40 l 744 39 l 744 38 l 743 36 l 742 35 l 740 33 l 739 32 l 739 31 l 738 29 l 736 28 l 735 26 l 733 25 l 732 24 l 731 22 m 735 244 l 735 246 l 735 247 l 735 249 l 735 250 l 735 250 l 735 251 l 735 253 l 735 254 l 735 256 l 735 257 l 735 258 l 735 260 l 735 261 l 736 263 l 736 264 l 736 265 l 736 267 l 735 269 l 735 271 l 735 272 l 735 274 l 735 275 l 735 276 l 735 278 l 735 279 l 735 281 l 735 403 l 422 403 l 422 403 l 319 403 l 315 403 l 314 403 l 313 403 l 311 403 l 308 403 l 307 403 l 306 403 l 304 403 l 301 403 l 300 403 l 299 403 l 297 401 l 296 401 l 294 401 l 290 400 l 286 400 l 282 399 l 278 396 l 275 394 l 271 393 l 268 392 l 265 389 l 263 388 l 260 386 l 257 383 l 254 381 l 253 378 l 250 376 l 249 374 l 246 371 l 244 368 l 243 365 l 242 361 l 240 358 l 239 356 l 238 351 l 238 349 l 236 344 l 235 340 l 235 338 l 235 333 l 233 329 l 233 325 l 233 321 l 233 317 l 233 313 l 233 246 l 233 246 l 233 246 l 233 244 l 233 244 l 233 243 l 233 242 l 233 242 l 233 240 l 233 239 l 233 239 l 233 238 l 233 236 l 233 236 l 233 231 l 235 225 l 236 221 l 238 217 l 239 213 l 240 210 l 243 206 l 244 203 l 247 200 l 250 199 l 253 196 l 256 193 l 258 192 l 261 189 l 265 188 l 269 186 l 272 185 l 276 183 l 281 182 l 285 182 l 289 181 l 294 179 l 299 179 l 303 178 l 307 178 l 313 178 l 317 178 l 322 178 l 326 178 l 331 178 l 336 176 l 340 176 l 639 176 l 640 176 l 643 176 l 644 176 l 646 176 l 647 178 l 649 178 l 650 178 l 651 178 l 653 178 l 654 178 l 656 178 l 657 178 l 657 178 l 658 178 l 660 178 l 661 178 l 663 178 l 664 178 l 665 178 l 667 178 l 668 178 l 669 178 l 671 179 l 672 179 l 672 179 l 674 179 l 675 179 l 676 181 l 678 181 l 679 181 l 681 181 l 682 182 l 685 182 l 686 183 l 689 185 l 692 185 l 693 186 l 696 188 l 699 189 l 700 190 l 703 192 l 704 193 l 706 194 l 708 196 l 710 197 l 711 200 l 714 201 l 715 203 l 717 206 l 718 207 l 719 208 l 722 211 l 722 213 l 724 215 l 725 217 l 726 219 l 728 222 l 729 224 l 729 226 l 731 229 l 732 231 l 732 233 l 733 236 l 733 239 l 733 239 l 733 240 l 735 242 l 735 243 l 735 244 m 394 1306 q 448 1283 425 1306 q 471 1229 471 1260 q 446 1172 471 1194 q 413 1157 433 1160 q 398 1154 406 1154 q 385 1153 390 1154 q 365 1146 372 1151 q 343 1140 356 1140 q 304 1179 304 1140 q 310 1200 304 1192 q 318 1225 314 1207 q 321 1247 318 1236 q 333 1274 322 1261 q 394 1306 354 1306 m 672 1306 q 726 1283 704 1306 q 749 1229 749 1260 q 724 1172 749 1194 q 690 1157 711 1160 q 676 1154 683 1154 q 663 1153 669 1154 q 643 1146 651 1151 q 622 1140 635 1140 q 582 1179 582 1140 q 589 1200 582 1192 q 597 1225 593 1207 q 600 1247 597 1236 q 611 1274 601 1261 q 672 1306 633 1306 z "},"ã":{"ha":968,"x_min":56,"x_max":913,"o":"m 861 1214 q 806 1169 840 1182 q 767 1158 788 1160 l 767 1158 l 765 1158 l 760 1158 l 758 1158 l 757 1158 l 576 1158 l 543 1158 l 404 1158 q 372 1158 388 1158 q 340 1157 357 1158 l 339 1157 q 267 1097 288 1146 q 258 1067 258 1081 q 254 1038 258 1054 l 254 1038 q 253 1031 254 1033 q 158 958 233 958 q 88 987 117 958 q 58 1057 58 1015 q 114 1144 58 1118 q 144 1153 131 1153 q 178 1158 158 1154 q 250 1210 226 1167 q 258 1232 256 1219 q 264 1269 264 1253 q 276 1307 264 1286 q 329 1351 293 1338 q 360 1358 346 1358 q 394 1358 375 1358 l 543 1358 l 576 1358 q 667 1360 622 1358 q 763 1363 713 1363 q 825 1345 801 1361 q 861 1311 849 1329 q 861 1214 893 1264 m 731 22 l 729 21 l 728 19 l 726 19 l 724 18 l 722 17 l 721 15 l 719 14 l 718 14 l 717 13 l 714 11 l 711 10 l 710 8 l 707 8 l 706 7 l 703 6 l 700 6 l 699 4 l 696 4 l 694 3 l 692 3 l 689 3 l 688 1 l 685 1 l 683 1 l 681 1 l 679 1 l 676 0 l 675 0 l 672 0 l 671 0 l 668 0 l 667 0 l 664 0 l 663 0 l 660 0 l 658 0 l 656 0 l 654 0 l 651 0 l 650 0 l 647 0 l 319 0 l 318 0 l 317 0 l 315 0 l 313 0 l 311 0 l 310 0 l 308 0 l 306 1 l 304 1 l 303 1 l 301 1 l 300 1 l 299 1 l 296 1 l 294 3 l 293 3 l 292 3 l 289 3 l 288 4 l 286 4 l 285 6 l 283 6 l 281 6 l 279 7 l 278 7 l 276 8 l 274 10 l 272 10 l 271 11 l 268 11 l 267 13 l 265 14 l 264 15 l 261 17 l 260 17 l 258 18 l 257 19 l 256 21 l 254 22 l 253 24 l 251 25 l 250 26 l 249 28 l 247 29 l 246 31 l 244 32 l 243 33 l 242 36 l 240 38 l 239 39 l 239 40 l 238 42 l 236 44 l 235 46 l 233 47 l 233 50 l 232 51 l 232 53 l 231 56 l 229 57 l 229 58 l 228 61 l 228 63 l 228 64 l 226 67 l 226 67 l 226 68 l 226 69 l 225 71 l 225 72 l 225 74 l 225 75 l 225 76 l 225 78 l 224 79 l 224 81 l 224 82 l 224 82 l 224 83 l 224 85 l 224 86 l 224 88 l 224 89 l 222 89 l 222 90 l 222 92 l 222 93 l 222 94 l 222 94 l 222 96 l 222 97 l 221 97 l 221 99 l 221 100 l 221 100 l 221 101 l 219 104 l 218 107 l 218 108 l 217 111 l 215 114 l 214 115 l 213 118 l 211 121 l 210 122 l 208 125 l 207 126 l 206 128 l 204 131 l 203 132 l 200 133 l 199 136 l 197 138 l 194 139 l 193 140 l 190 143 l 189 144 l 186 146 l 185 147 l 182 147 l 179 149 l 178 150 l 175 151 l 172 153 l 171 153 l 168 154 l 165 154 l 163 156 l 161 156 l 161 156 l 160 156 l 158 156 l 157 157 l 156 157 l 156 157 l 154 157 l 153 157 l 151 157 l 150 157 l 150 157 l 149 157 l 147 158 l 146 158 l 144 158 l 143 158 l 142 158 l 140 158 l 140 158 l 139 158 l 138 158 l 136 158 l 135 158 l 133 160 l 132 160 l 131 160 l 129 160 l 128 160 l 126 160 l 125 161 l 124 161 l 119 163 l 117 163 l 113 164 l 110 165 l 106 167 l 103 169 l 100 171 l 96 172 l 93 175 l 90 176 l 88 179 l 85 182 l 82 183 l 81 186 l 78 189 l 75 192 l 74 194 l 71 197 l 69 200 l 67 204 l 65 207 l 64 211 l 63 214 l 61 217 l 60 221 l 60 224 l 58 228 l 57 232 l 57 235 l 57 239 l 56 243 l 56 247 l 56 247 l 56 249 l 56 250 l 56 251 l 57 253 l 57 254 l 57 256 l 57 256 l 57 318 l 57 319 l 56 322 l 56 324 l 56 326 l 56 328 l 56 331 l 56 332 l 56 335 l 56 336 l 56 339 l 56 340 l 57 343 l 57 344 l 57 346 l 57 349 l 57 350 l 58 353 l 58 354 l 58 356 l 58 358 l 60 360 l 60 361 l 60 364 l 61 365 l 61 367 l 63 369 l 63 371 l 63 372 l 64 375 l 65 376 l 65 378 l 67 381 l 67 382 l 68 383 l 69 386 l 71 388 l 72 389 l 72 390 l 74 393 l 75 394 l 76 396 l 78 397 l 79 399 l 81 400 l 82 401 l 83 403 l 85 404 l 86 406 l 88 407 l 89 408 l 90 410 l 93 411 l 94 413 l 96 414 l 97 414 l 99 415 l 101 417 l 103 417 l 104 418 l 106 419 l 108 421 l 110 421 l 113 422 l 114 422 l 115 424 l 118 424 l 119 425 l 122 425 l 124 425 l 125 426 l 126 426 l 129 426 l 131 426 l 132 428 l 133 428 l 136 428 l 138 428 l 139 428 l 140 428 l 142 428 l 144 428 l 146 428 l 147 428 l 149 429 l 150 429 l 151 429 l 153 429 l 154 429 l 156 429 l 157 429 l 158 429 l 160 429 l 161 431 l 163 431 l 164 431 l 165 431 l 168 432 l 171 432 l 172 433 l 175 433 l 178 435 l 181 436 l 182 438 l 185 438 l 186 439 l 189 440 l 190 442 l 193 443 l 194 444 l 197 446 l 199 449 l 200 450 l 203 451 l 204 453 l 206 456 l 207 457 l 208 458 l 211 461 l 211 463 l 213 465 l 214 467 l 215 469 l 217 472 l 218 474 l 218 476 l 219 479 l 221 481 l 221 483 l 222 485 l 222 486 l 222 488 l 222 489 l 222 489 l 222 490 l 224 492 l 224 493 l 224 494 l 224 496 l 224 497 l 224 499 l 224 500 l 225 501 l 225 503 l 225 504 l 225 506 l 225 507 l 225 508 l 226 510 l 226 511 l 226 513 l 226 514 l 226 515 l 228 517 l 228 518 l 228 521 l 229 522 l 229 524 l 231 525 l 231 526 l 232 528 l 232 531 l 233 532 l 233 533 l 235 535 l 236 536 l 236 538 l 238 539 l 239 542 l 240 543 l 240 544 l 242 546 l 243 547 l 244 549 l 246 550 l 247 551 l 249 553 l 250 554 l 250 556 l 251 557 l 253 558 l 256 558 l 256 560 l 257 561 l 260 563 l 261 564 l 263 564 l 264 565 l 265 567 l 267 567 l 268 568 l 271 569 l 272 569 l 274 571 l 276 572 l 279 574 l 281 574 l 283 575 l 285 575 l 288 576 l 290 576 l 292 578 l 294 578 l 296 578 l 299 578 l 301 579 l 303 579 l 306 579 l 307 579 l 310 579 l 311 579 l 314 579 l 315 579 l 318 579 l 319 579 l 322 579 l 324 579 l 326 579 l 328 579 l 331 579 l 332 579 l 335 579 l 336 579 l 339 579 l 340 579 l 735 579 l 735 735 l 735 736 l 735 738 l 735 739 l 735 740 l 735 743 l 733 744 l 733 746 l 733 747 l 733 749 l 732 750 l 732 751 l 732 754 l 731 756 l 731 757 l 729 758 l 729 760 l 728 763 l 726 764 l 725 767 l 725 768 l 724 771 l 722 772 l 721 774 l 718 776 l 717 778 l 715 779 l 714 781 l 713 782 l 710 783 l 708 786 l 707 788 l 704 789 l 703 789 l 700 790 l 699 792 l 696 793 l 694 794 l 692 794 l 689 796 l 688 796 l 685 797 l 682 797 l 681 799 l 678 799 l 675 799 l 672 799 l 669 799 l 667 799 l 667 799 l 667 799 l 667 799 l 665 799 l 665 799 l 665 799 l 664 799 l 664 799 l 561 799 l 561 799 l 363 799 l 361 799 l 360 799 l 358 799 l 357 799 l 356 799 l 354 799 l 353 799 l 351 799 l 350 799 l 350 799 l 349 799 l 347 799 l 346 799 l 344 799 l 343 799 l 342 799 l 340 799 l 339 799 l 338 799 l 336 799 l 335 799 l 335 799 l 333 799 l 331 800 l 328 800 l 326 800 l 325 800 l 324 800 l 322 800 l 322 800 l 321 800 l 319 800 l 318 800 l 317 800 l 315 800 l 314 800 l 313 799 l 311 799 l 311 800 l 310 800 l 308 800 l 307 800 l 306 800 l 304 800 l 303 800 l 301 800 l 300 800 l 299 800 l 297 800 l 296 800 l 294 800 l 294 800 l 293 800 l 292 801 l 290 801 l 289 801 l 288 801 l 286 801 l 285 803 l 283 803 l 282 803 l 278 804 l 276 806 l 272 806 l 271 807 l 268 808 l 265 810 l 263 811 l 260 813 l 257 815 l 256 817 l 253 818 l 250 819 l 249 822 l 246 824 l 244 826 l 242 828 l 240 831 l 239 832 l 236 835 l 235 838 l 233 839 l 232 842 l 231 844 l 229 847 l 228 850 l 226 853 l 225 856 l 225 858 l 224 861 l 222 864 l 222 867 l 221 869 l 221 871 l 221 874 l 221 875 l 219 876 l 219 879 l 219 881 l 219 882 l 219 883 l 219 885 l 219 888 l 219 889 l 219 890 l 219 892 l 219 893 l 218 894 l 218 896 l 218 899 l 218 901 l 217 903 l 217 906 l 215 908 l 215 911 l 214 914 l 213 915 l 211 918 l 211 921 l 210 922 l 208 925 l 207 928 l 206 929 l 204 931 l 201 933 l 200 935 l 199 938 l 197 939 l 194 940 l 193 943 l 190 944 l 189 946 l 186 947 l 185 949 l 182 950 l 181 951 l 178 953 l 175 953 l 174 954 l 171 956 l 168 956 l 167 957 l 165 957 l 164 957 l 163 958 l 161 958 l 160 958 l 158 958 l 157 960 l 156 960 l 154 960 l 153 960 l 151 960 l 150 961 l 149 961 l 146 961 l 144 961 l 143 961 l 142 961 l 140 961 l 139 961 l 138 963 l 135 963 l 133 963 l 132 963 l 131 963 l 129 964 l 126 964 l 125 964 l 124 965 l 122 965 l 119 965 l 118 967 l 115 967 l 111 968 l 108 969 l 106 972 l 101 974 l 99 975 l 96 976 l 93 979 l 90 981 l 88 983 l 86 985 l 83 988 l 81 990 l 78 992 l 76 994 l 74 997 l 72 1000 l 71 1003 l 68 1006 l 67 1010 l 65 1013 l 64 1015 l 63 1018 l 61 1022 l 60 1025 l 60 1029 l 58 1032 l 58 1036 l 57 1039 l 57 1043 l 57 1046 l 57 1050 l 57 1054 l 57 1058 l 58 1064 l 58 1068 l 60 1072 l 61 1076 l 63 1081 l 64 1085 l 65 1088 l 67 1092 l 69 1096 l 72 1099 l 74 1103 l 76 1106 l 79 1110 l 82 1113 l 86 1115 l 89 1118 l 92 1121 l 96 1122 l 99 1125 l 103 1128 l 107 1129 l 111 1131 l 114 1132 l 118 1133 l 122 1135 l 126 1136 l 132 1138 l 136 1138 l 140 1138 l 144 1138 l 149 1138 l 153 1138 l 156 1138 l 160 1136 l 164 1136 l 167 1135 l 171 1133 l 175 1133 l 178 1132 l 182 1129 l 185 1128 l 188 1126 l 192 1125 l 194 1122 l 197 1121 l 200 1118 l 203 1115 l 206 1114 l 208 1111 l 211 1108 l 213 1106 l 215 1103 l 217 1100 l 219 1096 l 221 1093 l 222 1090 l 225 1086 l 226 1083 l 228 1079 l 228 1076 l 229 1072 l 231 1069 l 231 1067 l 232 1065 l 232 1063 l 232 1061 l 232 1058 l 232 1057 l 233 1056 l 233 1053 l 233 1051 l 233 1050 l 233 1049 l 233 1047 l 233 1044 l 233 1043 l 233 1042 l 235 1040 l 235 1038 l 235 1035 l 236 1032 l 236 1031 l 238 1028 l 239 1025 l 239 1024 l 240 1021 l 242 1018 l 242 1017 l 243 1014 l 244 1013 l 246 1010 l 247 1008 l 249 1006 l 250 1004 l 251 1001 l 254 1000 l 256 999 l 257 997 l 260 994 l 261 993 l 263 992 l 265 990 l 267 989 l 269 988 l 271 986 l 274 985 l 275 985 l 278 983 l 281 982 l 282 981 l 285 981 l 286 979 l 288 979 l 289 979 l 292 978 l 293 978 l 294 978 l 296 978 l 297 976 l 299 976 l 300 976 l 303 976 l 304 976 l 306 975 l 307 975 l 308 975 l 311 975 l 314 975 l 317 975 l 319 975 l 321 975 l 324 975 l 326 975 l 329 975 l 332 975 l 335 975 l 338 975 l 340 975 l 343 975 l 346 975 l 349 975 l 351 975 l 354 975 l 357 975 l 360 975 l 363 975 l 365 975 l 368 975 l 371 975 l 374 975 l 376 975 l 379 975 l 382 975 l 385 975 l 388 975 l 390 975 l 393 975 l 396 975 l 510 975 l 510 976 l 593 976 l 593 975 l 594 975 l 597 976 l 600 976 l 604 976 l 607 976 l 611 976 l 614 976 l 617 975 l 621 975 l 624 975 l 628 975 l 631 975 l 633 975 l 638 975 l 640 974 l 643 974 l 647 974 l 650 972 l 654 972 l 657 972 l 661 971 l 664 969 l 667 969 l 671 968 l 674 967 l 678 965 l 681 964 l 685 963 l 688 961 l 690 960 l 693 958 l 696 957 l 697 956 l 700 954 l 703 953 l 706 951 l 707 949 l 710 947 l 713 946 l 715 943 l 717 942 l 719 939 l 722 938 l 724 935 l 726 932 l 729 931 l 731 928 l 733 925 l 735 922 l 738 919 l 739 917 l 740 913 l 743 910 l 744 907 l 746 903 l 749 900 l 750 896 l 751 893 l 753 889 l 754 885 l 754 882 l 756 881 l 756 878 l 756 875 l 757 872 l 757 871 l 758 868 l 760 865 l 761 864 l 761 861 l 763 858 l 764 857 l 765 854 l 767 853 l 768 850 l 769 849 l 772 847 l 774 844 l 775 843 l 778 842 l 779 840 l 781 839 l 783 838 l 785 836 l 788 835 l 789 833 l 792 832 l 794 831 l 796 831 l 799 829 l 801 828 l 803 828 l 806 828 l 808 826 l 810 826 l 811 826 l 813 826 l 814 825 l 815 825 l 817 825 l 818 825 l 819 825 l 822 825 l 822 825 l 825 825 l 826 825 l 828 824 l 829 824 l 831 824 l 832 824 l 833 824 l 833 824 l 835 824 l 836 824 l 836 824 l 838 822 l 839 822 l 840 822 l 842 822 l 843 822 l 844 822 l 844 822 l 849 821 l 851 819 l 854 819 l 857 818 l 860 817 l 863 815 l 865 814 l 868 813 l 871 811 l 874 810 l 876 807 l 878 806 l 881 803 l 883 801 l 886 800 l 888 797 l 890 794 l 892 793 l 894 790 l 896 788 l 897 785 l 899 782 l 900 779 l 903 778 l 904 774 l 906 772 l 906 768 l 907 765 l 908 763 l 910 760 l 910 757 l 911 753 l 911 751 l 911 750 l 911 749 l 911 747 l 913 746 l 913 744 l 913 743 l 913 742 l 911 696 l 911 294 l 911 292 l 913 290 l 913 288 l 913 285 l 913 283 l 913 281 l 913 278 l 913 276 l 913 274 l 913 271 l 913 268 l 913 265 l 913 264 l 913 261 l 913 258 l 913 256 l 913 253 l 911 251 l 911 249 l 911 246 l 911 243 l 911 240 l 910 238 l 910 235 l 908 233 l 908 231 l 907 228 l 906 225 l 906 222 l 904 219 l 903 217 l 901 215 l 901 213 l 900 211 l 899 210 l 899 208 l 897 207 l 896 206 l 894 204 l 894 203 l 893 201 l 892 200 l 890 199 l 889 197 l 889 196 l 888 194 l 886 193 l 885 192 l 883 190 l 882 189 l 881 188 l 879 188 l 878 186 l 876 185 l 875 183 l 874 183 l 872 182 l 869 181 l 868 179 l 867 179 l 865 178 l 864 178 l 863 176 l 861 175 l 858 175 l 857 174 l 856 174 l 854 172 l 853 172 l 851 172 l 849 172 l 847 171 l 846 171 l 844 171 l 843 171 l 842 169 l 840 169 l 839 169 l 838 169 l 836 169 l 835 168 l 833 168 l 832 168 l 829 168 l 828 168 l 826 168 l 825 167 l 824 167 l 822 167 l 822 167 l 821 167 l 819 167 l 818 167 l 817 165 l 815 165 l 814 165 l 811 164 l 808 163 l 806 163 l 804 161 l 801 160 l 800 158 l 797 157 l 794 156 l 793 154 l 792 153 l 789 151 l 788 150 l 785 149 l 783 146 l 782 144 l 781 143 l 778 140 l 776 139 l 775 138 l 774 135 l 772 133 l 771 131 l 771 129 l 769 126 l 768 124 l 767 122 l 767 119 l 765 117 l 764 115 l 764 113 l 763 110 l 763 108 l 763 107 l 763 106 l 761 104 l 761 103 l 761 101 l 761 100 l 761 99 l 761 97 l 761 96 l 761 94 l 761 93 l 761 90 l 761 89 l 760 88 l 760 86 l 760 85 l 760 83 l 760 82 l 760 79 l 760 78 l 760 76 l 758 75 l 758 72 l 758 71 l 758 69 l 757 67 l 757 65 l 757 64 l 756 61 l 756 60 l 754 58 l 754 56 l 753 54 l 753 53 l 751 51 l 750 49 l 750 47 l 749 46 l 749 44 l 747 43 l 746 40 l 744 39 l 744 38 l 743 36 l 742 35 l 740 33 l 739 32 l 739 31 l 738 29 l 736 28 l 735 26 l 733 25 l 732 24 l 731 22 m 735 244 l 735 246 l 735 247 l 735 249 l 735 250 l 735 250 l 735 251 l 735 253 l 735 254 l 735 256 l 735 257 l 735 258 l 735 260 l 735 261 l 736 263 l 736 264 l 736 265 l 736 267 l 735 269 l 735 271 l 735 272 l 735 274 l 735 275 l 735 276 l 735 278 l 735 279 l 735 281 l 735 403 l 422 403 l 422 403 l 319 403 l 315 403 l 314 403 l 313 403 l 311 403 l 308 403 l 307 403 l 306 403 l 304 403 l 301 403 l 300 403 l 299 403 l 297 401 l 296 401 l 294 401 l 290 400 l 286 400 l 282 399 l 278 396 l 275 394 l 271 393 l 268 392 l 265 389 l 263 388 l 260 386 l 257 383 l 254 381 l 253 378 l 250 376 l 249 374 l 246 371 l 244 368 l 243 365 l 242 361 l 240 358 l 239 356 l 238 351 l 238 349 l 236 344 l 235 340 l 235 338 l 235 333 l 233 329 l 233 325 l 233 321 l 233 317 l 233 313 l 233 246 l 233 246 l 233 246 l 233 244 l 233 244 l 233 243 l 233 242 l 233 242 l 233 240 l 233 239 l 233 239 l 233 238 l 233 236 l 233 236 l 233 231 l 235 225 l 236 221 l 238 217 l 239 213 l 240 210 l 243 206 l 244 203 l 247 200 l 250 199 l 253 196 l 256 193 l 258 192 l 261 189 l 265 188 l 269 186 l 272 185 l 276 183 l 281 182 l 285 182 l 289 181 l 294 179 l 299 179 l 303 178 l 307 178 l 313 178 l 317 178 l 322 178 l 326 178 l 331 178 l 336 176 l 340 176 l 639 176 l 640 176 l 643 176 l 644 176 l 646 176 l 647 178 l 649 178 l 650 178 l 651 178 l 653 178 l 654 178 l 656 178 l 657 178 l 657 178 l 658 178 l 660 178 l 661 178 l 663 178 l 664 178 l 665 178 l 667 178 l 668 178 l 669 178 l 671 179 l 672 179 l 672 179 l 674 179 l 675 179 l 676 181 l 678 181 l 679 181 l 681 181 l 682 182 l 685 182 l 686 183 l 689 185 l 692 185 l 693 186 l 696 188 l 699 189 l 700 190 l 703 192 l 704 193 l 706 194 l 708 196 l 710 197 l 711 200 l 714 201 l 715 203 l 717 206 l 718 207 l 719 208 l 722 211 l 722 213 l 724 215 l 725 217 l 726 219 l 728 222 l 729 224 l 729 226 l 731 229 l 732 231 l 732 233 l 733 236 l 733 239 l 733 239 l 733 240 l 735 242 l 735 243 l 735 244 z "}}}
